<svg width="22" height="25" viewBox="0 0 22 25" fill="none" xmlns="http://www.w3.org/2000/svg">
<path d="M21.881 8.875H16.9038C16.8129 8.23106 16.6272 7.65909 16.3469 7.15909C16.0666 6.65151 15.7068 6.2197 15.2674 5.86364C14.828 5.50757 14.3204 5.23485 13.7447 5.04545C13.1765 4.85606 12.5591 4.76136 11.8924 4.76136C10.6879 4.76136 9.63861 5.06061 8.74467 5.65909C7.85073 6.25 7.15755 7.11364 6.66513 8.25C6.1727 9.37879 5.92649 10.75 5.92649 12.3636C5.92649 14.0227 6.1727 15.4167 6.66513 16.5455C7.16513 17.6742 7.8621 18.5265 8.75604 19.1023C9.64998 19.678 10.6841 19.9659 11.8583 19.9659C12.5174 19.9659 13.1272 19.8788 13.6879 19.7045C14.256 19.5303 14.7598 19.2765 15.1992 18.9432C15.6386 18.6023 16.0023 18.1894 16.2901 17.7045C16.5856 17.2197 16.7901 16.6667 16.9038 16.0455L21.881 16.0682C21.7523 17.1364 21.4303 18.1667 20.9151 19.1591C20.4076 20.1439 19.7219 21.0265 18.8583 21.8068C18.0022 22.5795 16.9795 23.1932 15.7901 23.6477C14.6083 24.0947 13.2712 24.3182 11.7788 24.3182C9.70301 24.3182 7.84695 23.8485 6.21058 22.9091C4.58179 21.9697 3.29392 20.6098 2.34695 18.8295C1.40755 17.0492 0.937855 14.8939 0.937855 12.3636C0.937855 9.82576 1.41513 7.66667 2.36967 5.88636C3.32422 4.10606 4.61967 2.75 6.25604 1.81818C7.8924 0.878787 9.73331 0.40909 11.7788 0.40909C13.1272 0.40909 14.3772 0.598484 15.5288 0.977272C16.6879 1.35606 17.7144 1.90909 18.6083 2.63636C19.5022 3.35606 20.2295 4.23864 20.7901 5.28409C21.3583 6.32954 21.7219 7.52651 21.881 8.875Z" fill="url(#paint0_linear_579_6037)"/>
<path d="M21.881 8.875H16.9038C16.8129 8.23106 16.6272 7.65909 16.3469 7.15909C16.0666 6.65151 15.7068 6.2197 15.2674 5.86364C14.828 5.50757 14.3204 5.23485 13.7447 5.04545C13.1765 4.85606 12.5591 4.76136 11.8924 4.76136C10.6879 4.76136 9.63861 5.06061 8.74467 5.65909C7.85073 6.25 7.15755 7.11364 6.66513 8.25C6.1727 9.37879 5.92649 10.75 5.92649 12.3636C5.92649 14.0227 6.1727 15.4167 6.66513 16.5455C7.16513 17.6742 7.8621 18.5265 8.75604 19.1023C9.64998 19.678 10.6841 19.9659 11.8583 19.9659C12.5174 19.9659 13.1272 19.8788 13.6879 19.7045C14.256 19.5303 14.7598 19.2765 15.1992 18.9432C15.6386 18.6023 16.0023 18.1894 16.2901 17.7045C16.5856 17.2197 16.7901 16.6667 16.9038 16.0455L21.881 16.0682C21.7523 17.1364 21.4303 18.1667 20.9151 19.1591C20.4076 20.1439 19.7219 21.0265 18.8583 21.8068C18.0022 22.5795 16.9795 23.1932 15.7901 23.6477C14.6083 24.0947 13.2712 24.3182 11.7788 24.3182C9.70301 24.3182 7.84695 23.8485 6.21058 22.9091C4.58179 21.9697 3.29392 20.6098 2.34695 18.8295C1.40755 17.0492 0.937855 14.8939 0.937855 12.3636C0.937855 9.82576 1.41513 7.66667 2.36967 5.88636C3.32422 4.10606 4.61967 2.75 6.25604 1.81818C7.8924 0.878787 9.73331 0.40909 11.7788 0.40909C13.1272 0.40909 14.3772 0.598484 15.5288 0.977272C16.6879 1.35606 17.7144 1.90909 18.6083 2.63636C19.5022 3.35606 20.2295 4.23864 20.7901 5.28409C21.3583 6.32954 21.7219 7.52651 21.881 8.875Z" fill="black" fill-opacity="0.2"/>
<defs>
<linearGradient id="paint0_linear_579_6037" x1="-0.675781" y1="11.9091" x2="24.3242" y2="11.9091" gradientUnits="userSpaceOnUse">
<stop stop-color="#1D91DE"/>
<stop offset="1" stop-color="#1D47A9"/>
</linearGradient>
</defs>
</svg>
