<svg width="136" height="62" viewBox="0 0 136 62" fill="none" xmlns="http://www.w3.org/2000/svg">
<g id="Parking Management">
<path d="M27.0187 10.6322H21.4528C21.294 9.72522 21.0013 8.92177 20.5747 8.22183C20.1481 7.51203 19.6173 6.91067 18.9823 6.41776C18.3473 5.92484 17.6231 5.55516 16.8095 5.3087C16.0059 5.05238 15.1377 4.92423 14.2051 4.92423C12.5482 4.92423 11.0798 5.33828 9.79996 6.16637C8.52009 6.98461 7.51802 8.18733 6.79375 9.77451C6.06948 11.3518 5.70734 13.2791 5.70734 15.5564C5.70734 17.8731 6.06948 19.8251 6.79375 21.4122C7.52794 22.9896 8.53001 24.1824 9.79996 24.9908C11.0798 25.7893 12.5433 26.1886 14.1902 26.1886C15.103 26.1886 15.9563 26.0703 16.75 25.8337C17.5536 25.5872 18.2729 25.2274 18.9079 24.7542C19.5528 24.281 20.0935 23.6994 20.5301 23.0093C20.9765 22.3192 21.2841 21.5306 21.4528 20.6433L27.0187 20.6729C26.8104 22.1122 26.359 23.4628 25.6644 24.7246C24.9799 25.9865 24.082 27.1005 22.9708 28.0666C21.8596 29.0229 20.5598 29.7721 19.0716 30.3143C17.5834 30.8467 15.9315 31.1128 14.1158 31.1128C11.437 31.1128 9.04593 30.4967 6.94257 29.2644C4.83921 28.0321 3.18232 26.2527 1.9719 23.9261C0.761475 21.5996 0.156264 18.8097 0.156264 15.5564C0.156264 12.2933 0.766436 9.50341 1.98678 7.18671C3.20713 4.86015 4.86898 3.08072 6.97234 1.84843C9.0757 0.616144 11.4569 0 14.1158 0C15.8124 0 17.3899 0.236599 18.8484 0.709798C20.3068 1.183 21.6066 1.87801 22.7475 2.79483C23.8885 3.7018 24.8261 4.81578 25.5603 6.1368C26.3044 7.44795 26.7905 8.94642 27.0187 10.6322Z" fill="url(#paint0_linear_92_5060)"/>
<path d="M27.0187 10.6322H21.4528C21.294 9.72522 21.0013 8.92177 20.5747 8.22183C20.1481 7.51203 19.6173 6.91067 18.9823 6.41776C18.3473 5.92484 17.6231 5.55516 16.8095 5.3087C16.0059 5.05238 15.1377 4.92423 14.2051 4.92423C12.5482 4.92423 11.0798 5.33828 9.79996 6.16637C8.52009 6.98461 7.51802 8.18733 6.79375 9.77451C6.06948 11.3518 5.70734 13.2791 5.70734 15.5564C5.70734 17.8731 6.06948 19.8251 6.79375 21.4122C7.52794 22.9896 8.53001 24.1824 9.79996 24.9908C11.0798 25.7893 12.5433 26.1886 14.1902 26.1886C15.103 26.1886 15.9563 26.0703 16.75 25.8337C17.5536 25.5872 18.2729 25.2274 18.9079 24.7542C19.5528 24.281 20.0935 23.6994 20.5301 23.0093C20.9765 22.3192 21.2841 21.5306 21.4528 20.6433L27.0187 20.6729C26.8104 22.1122 26.359 23.4628 25.6644 24.7246C24.9799 25.9865 24.082 27.1005 22.9708 28.0666C21.8596 29.0229 20.5598 29.7721 19.0716 30.3143C17.5834 30.8467 15.9315 31.1128 14.1158 31.1128C11.437 31.1128 9.04593 30.4967 6.94257 29.2644C4.83921 28.0321 3.18232 26.2527 1.9719 23.9261C0.761475 21.5996 0.156264 18.8097 0.156264 15.5564C0.156264 12.2933 0.766436 9.50341 1.98678 7.18671C3.20713 4.86015 4.86898 3.08072 6.97234 1.84843C9.0757 0.616144 11.4569 0 14.1158 0C15.8124 0 17.3899 0.236599 18.8484 0.709798C20.3068 1.183 21.6066 1.87801 22.7475 2.79483C23.8885 3.7018 24.8261 4.81578 25.5603 6.1368C26.3044 7.44795 26.7905 8.94642 27.0187 10.6322Z" fill="black" fill-opacity="0.2"/>
<path d="M37.5767 31.1572C36.1281 31.1572 34.8234 30.9009 33.6626 30.3882C32.5117 29.8658 31.5989 29.0968 30.9243 28.0814C30.2595 27.066 29.9272 25.814 29.9272 24.3254C29.9272 23.0438 30.1653 21.984 30.6415 21.1461C31.1178 20.3081 31.7676 19.6378 32.5911 19.135C33.4146 18.6322 34.3422 18.2527 35.3741 17.9963C36.4158 17.7302 37.4923 17.5379 38.6035 17.4196C39.9429 17.2816 41.0293 17.1584 41.8627 17.0499C42.6961 16.9316 43.3014 16.7542 43.6784 16.5176C44.0653 16.2711 44.2588 15.8916 44.2588 15.379V15.2902C44.2588 14.1763 43.9264 13.3136 43.2617 12.7024C42.5969 12.0912 41.6395 11.7856 40.3894 11.7856C39.0698 11.7856 38.0231 12.0715 37.2492 12.6433C36.4853 13.2151 35.9694 13.8904 35.7015 14.6692L30.6713 13.9594C31.0681 12.5792 31.723 11.4258 32.6357 10.4991C33.5485 9.56256 34.6647 8.86262 35.9842 8.39928C37.3038 7.92608 38.7623 7.68948 40.3596 7.68948C41.4609 7.68948 42.5572 7.81764 43.6486 8.07396C44.74 8.33027 45.7371 8.75418 46.6399 9.34568C47.5428 9.92732 48.2671 10.7209 48.8128 11.7265C49.3684 12.732 49.6462 13.9889 49.6462 15.4973V30.6988H44.4671V27.5786H44.2886C43.9611 28.2096 43.4998 28.8011 42.9045 29.3531C42.3191 29.8953 41.58 30.334 40.687 30.6692C39.804 30.9945 38.7672 31.1572 37.5767 31.1572ZM38.9756 27.2237C40.057 27.2237 40.9946 27.0118 41.7883 26.5879C42.5821 26.1541 43.1922 25.5823 43.6188 24.8725C44.0554 24.1627 44.2737 23.3888 44.2737 22.5509V19.8744C44.105 20.0124 43.8173 20.1405 43.4105 20.2588C43.0136 20.3771 42.5672 20.4806 42.0711 20.5694C41.575 20.6581 41.0839 20.737 40.5978 20.806C40.1116 20.875 39.6899 20.9341 39.3328 20.9834C38.5291 21.0919 37.8098 21.2693 37.1748 21.5158C36.5399 21.7622 36.0388 22.1073 35.6717 22.5509C35.3046 22.9846 35.1211 23.5466 35.1211 24.2367C35.1211 25.2225 35.4832 25.9668 36.2075 26.4696C36.9318 26.9723 37.8545 27.2237 38.9756 27.2237Z" fill="url(#paint1_linear_92_5060)"/>
<path d="M37.5767 31.1572C36.1281 31.1572 34.8234 30.9009 33.6626 30.3882C32.5117 29.8658 31.5989 29.0968 30.9243 28.0814C30.2595 27.066 29.9272 25.814 29.9272 24.3254C29.9272 23.0438 30.1653 21.984 30.6415 21.1461C31.1178 20.3081 31.7676 19.6378 32.5911 19.135C33.4146 18.6322 34.3422 18.2527 35.3741 17.9963C36.4158 17.7302 37.4923 17.5379 38.6035 17.4196C39.9429 17.2816 41.0293 17.1584 41.8627 17.0499C42.6961 16.9316 43.3014 16.7542 43.6784 16.5176C44.0653 16.2711 44.2588 15.8916 44.2588 15.379V15.2902C44.2588 14.1763 43.9264 13.3136 43.2617 12.7024C42.5969 12.0912 41.6395 11.7856 40.3894 11.7856C39.0698 11.7856 38.0231 12.0715 37.2492 12.6433C36.4853 13.2151 35.9694 13.8904 35.7015 14.6692L30.6713 13.9594C31.0681 12.5792 31.723 11.4258 32.6357 10.4991C33.5485 9.56256 34.6647 8.86262 35.9842 8.39928C37.3038 7.92608 38.7623 7.68948 40.3596 7.68948C41.4609 7.68948 42.5572 7.81764 43.6486 8.07396C44.74 8.33027 45.7371 8.75418 46.6399 9.34568C47.5428 9.92732 48.2671 10.7209 48.8128 11.7265C49.3684 12.732 49.6462 13.9889 49.6462 15.4973V30.6988H44.4671V27.5786H44.2886C43.9611 28.2096 43.4998 28.8011 42.9045 29.3531C42.3191 29.8953 41.58 30.334 40.687 30.6692C39.804 30.9945 38.7672 31.1572 37.5767 31.1572ZM38.9756 27.2237C40.057 27.2237 40.9946 27.0118 41.7883 26.5879C42.5821 26.1541 43.1922 25.5823 43.6188 24.8725C44.0554 24.1627 44.2737 23.3888 44.2737 22.5509V19.8744C44.105 20.0124 43.8173 20.1405 43.4105 20.2588C43.0136 20.3771 42.5672 20.4806 42.0711 20.5694C41.575 20.6581 41.0839 20.737 40.5978 20.806C40.1116 20.875 39.6899 20.9341 39.3328 20.9834C38.5291 21.0919 37.8098 21.2693 37.1748 21.5158C36.5399 21.7622 36.0388 22.1073 35.6717 22.5509C35.3046 22.9846 35.1211 23.5466 35.1211 24.2367C35.1211 25.2225 35.4832 25.9668 36.2075 26.4696C36.9318 26.9723 37.8545 27.2237 38.9756 27.2237Z" fill="black" fill-opacity="0.2"/>
<path d="M72.2922 13.9889L67.3811 14.5213C67.2421 14.0284 66.9991 13.565 66.6518 13.1313C66.3145 12.6975 65.8581 12.3475 65.2827 12.0814C64.7072 11.8152 64.0028 11.6821 63.1694 11.6821C62.0482 11.6821 61.1057 11.9236 60.3417 12.4067C59.5877 12.8897 59.2157 13.5157 59.2256 14.2847C59.2157 14.9452 59.4587 15.4825 59.9548 15.8965C60.4608 16.3106 61.2942 16.6507 62.455 16.9169L66.3542 17.745C68.5171 18.2083 70.1243 18.9427 71.176 19.9483C72.2376 20.9538 72.7734 22.2699 72.7833 23.8965C72.7734 25.326 72.3517 26.5879 71.5183 27.6821C70.6948 28.7665 69.5489 29.6144 68.0805 30.2256C66.6121 30.8368 64.9255 31.1424 63.0205 31.1424C60.2227 31.1424 57.9705 30.5608 56.264 29.3975C54.5575 28.2243 53.5405 26.5928 53.2131 24.5028L58.4666 24.0001C58.7047 25.0253 59.2107 25.7992 59.9846 26.3217C60.7584 26.8442 61.7655 27.1054 63.0057 27.1054C64.2855 27.1054 65.3124 26.8442 66.0863 26.3217C66.8701 25.7992 67.262 25.1535 67.262 24.3845C67.262 23.7339 67.009 23.1966 66.503 22.7727C66.0069 22.3488 65.233 22.0235 64.1814 21.7967L60.2822 20.9834C58.0896 20.5299 56.4674 19.7659 55.4157 18.6914C54.364 17.6069 53.8432 16.2366 53.8531 14.5804C53.8432 13.1806 54.2251 11.968 54.999 10.9427C55.7828 9.9076 56.8692 9.10908 58.2582 8.54715C59.6572 7.97537 61.2694 7.68948 63.095 7.68948C65.7738 7.68948 67.8821 8.25634 69.4199 9.39004C70.9677 10.5237 71.9251 12.0567 72.2922 13.9889Z" fill="url(#paint2_linear_92_5060)"/>
<path d="M72.2922 13.9889L67.3811 14.5213C67.2421 14.0284 66.9991 13.565 66.6518 13.1313C66.3145 12.6975 65.8581 12.3475 65.2827 12.0814C64.7072 11.8152 64.0028 11.6821 63.1694 11.6821C62.0482 11.6821 61.1057 11.9236 60.3417 12.4067C59.5877 12.8897 59.2157 13.5157 59.2256 14.2847C59.2157 14.9452 59.4587 15.4825 59.9548 15.8965C60.4608 16.3106 61.2942 16.6507 62.455 16.9169L66.3542 17.745C68.5171 18.2083 70.1243 18.9427 71.176 19.9483C72.2376 20.9538 72.7734 22.2699 72.7833 23.8965C72.7734 25.326 72.3517 26.5879 71.5183 27.6821C70.6948 28.7665 69.5489 29.6144 68.0805 30.2256C66.6121 30.8368 64.9255 31.1424 63.0205 31.1424C60.2227 31.1424 57.9705 30.5608 56.264 29.3975C54.5575 28.2243 53.5405 26.5928 53.2131 24.5028L58.4666 24.0001C58.7047 25.0253 59.2107 25.7992 59.9846 26.3217C60.7584 26.8442 61.7655 27.1054 63.0057 27.1054C64.2855 27.1054 65.3124 26.8442 66.0863 26.3217C66.8701 25.7992 67.262 25.1535 67.262 24.3845C67.262 23.7339 67.009 23.1966 66.503 22.7727C66.0069 22.3488 65.233 22.0235 64.1814 21.7967L60.2822 20.9834C58.0896 20.5299 56.4674 19.7659 55.4157 18.6914C54.364 17.6069 53.8432 16.2366 53.8531 14.5804C53.8432 13.1806 54.2251 11.968 54.999 10.9427C55.7828 9.9076 56.8692 9.10908 58.2582 8.54715C59.6572 7.97537 61.2694 7.68948 63.095 7.68948C65.7738 7.68948 67.8821 8.25634 69.4199 9.39004C70.9677 10.5237 71.9251 12.0567 72.2922 13.9889Z" fill="black" fill-opacity="0.2"/>
<path d="M86.3586 31.1424C84.0767 31.1424 82.1172 30.6446 80.4801 29.6489C78.853 28.6532 77.5979 27.2779 76.7149 25.5232C75.8418 23.7585 75.4053 21.7277 75.4053 19.4307C75.4053 17.1239 75.8517 15.0881 76.7447 13.3235C77.6376 11.549 78.8976 10.1688 80.5248 9.18301C82.1618 8.18733 84.0965 7.68948 86.3288 7.68948C88.1842 7.68948 89.8262 8.02959 91.2549 8.70982C92.6935 9.38018 93.8394 10.3315 94.6927 11.5638C95.5459 12.7862 96.0321 14.2157 96.1511 15.8522H91.0019C90.7935 14.7579 90.2974 13.846 89.5136 13.1165C88.7398 12.3771 87.703 12.0074 86.4033 12.0074C85.302 12.0074 84.3346 12.3032 83.5012 12.8947C82.6678 13.4763 82.0179 14.3143 81.5516 15.4085C81.0952 16.5028 80.8671 17.814 80.8671 19.342C80.8671 20.8898 81.0952 22.2206 81.5516 23.3346C82.008 24.4387 82.648 25.2915 83.4714 25.8928C84.3048 26.4843 85.2821 26.7801 86.4033 26.7801C87.197 26.7801 87.9064 26.6322 88.5314 26.3365C89.1664 26.0309 89.6972 25.5922 90.1238 25.0204C90.5504 24.4486 90.8431 23.7536 91.0019 22.9354H96.1511C96.0221 24.5423 95.5459 25.9668 94.7224 27.2089C93.8989 28.4412 92.7778 29.4073 91.359 30.1073C89.9403 30.7974 88.2734 31.1424 86.3586 31.1424Z" fill="url(#paint3_linear_92_5060)"/>
<path d="M86.3586 31.1424C84.0767 31.1424 82.1172 30.6446 80.4801 29.6489C78.853 28.6532 77.5979 27.2779 76.7149 25.5232C75.8418 23.7585 75.4053 21.7277 75.4053 19.4307C75.4053 17.1239 75.8517 15.0881 76.7447 13.3235C77.6376 11.549 78.8976 10.1688 80.5248 9.18301C82.1618 8.18733 84.0965 7.68948 86.3288 7.68948C88.1842 7.68948 89.8262 8.02959 91.2549 8.70982C92.6935 9.38018 93.8394 10.3315 94.6927 11.5638C95.5459 12.7862 96.0321 14.2157 96.1511 15.8522H91.0019C90.7935 14.7579 90.2974 13.846 89.5136 13.1165C88.7398 12.3771 87.703 12.0074 86.4033 12.0074C85.302 12.0074 84.3346 12.3032 83.5012 12.8947C82.6678 13.4763 82.0179 14.3143 81.5516 15.4085C81.0952 16.5028 80.8671 17.814 80.8671 19.342C80.8671 20.8898 81.0952 22.2206 81.5516 23.3346C82.008 24.4387 82.648 25.2915 83.4714 25.8928C84.3048 26.4843 85.2821 26.7801 86.4033 26.7801C87.197 26.7801 87.9064 26.6322 88.5314 26.3365C89.1664 26.0309 89.6972 25.5922 90.1238 25.0204C90.5504 24.4486 90.8431 23.7536 91.0019 22.9354H96.1511C96.0221 24.5423 95.5459 25.9668 94.7224 27.2089C93.8989 28.4412 92.7778 29.4073 91.359 30.1073C89.9403 30.7974 88.2734 31.1424 86.3586 31.1424Z" fill="black" fill-opacity="0.2"/>
<path d="M106.315 31.1572C104.866 31.1572 103.561 30.9009 102.401 30.3882C101.25 29.8658 100.337 29.0968 99.6623 28.0814C98.9976 27.066 98.6652 25.814 98.6652 24.3254C98.6652 23.0438 98.9033 21.984 99.3795 21.1461C99.8558 20.3081 100.506 19.6378 101.329 19.135C102.153 18.6322 103.08 18.2527 104.112 17.9963C105.154 17.7302 106.23 17.5379 107.342 17.4196C108.681 17.2816 109.767 17.1584 110.601 17.0499C111.434 16.9316 112.039 16.7542 112.416 16.5176C112.803 16.2711 112.997 15.8916 112.997 15.379V15.2902C112.997 14.1763 112.664 13.3136 112 12.7024C111.335 12.0912 110.378 11.7856 109.127 11.7856C107.808 11.7856 106.761 12.0715 105.987 12.6433C105.223 13.2151 104.707 13.8904 104.439 14.6692L99.4093 13.9594C99.8062 12.5792 100.461 11.4258 101.374 10.4991C102.287 9.56256 103.403 8.86262 104.722 8.39928C106.042 7.92608 107.5 7.68948 109.098 7.68948C110.199 7.68948 111.295 7.81764 112.387 8.07396C113.478 8.33027 114.475 8.75418 115.378 9.34568C116.281 9.92732 117.005 10.7209 117.551 11.7265C118.106 12.732 118.384 13.9889 118.384 15.4973V30.6988H113.205V27.5786H113.027C112.699 28.2096 112.238 28.8011 111.643 29.3531C111.057 29.8953 110.318 30.334 109.425 30.6692C108.542 30.9945 107.505 31.1572 106.315 31.1572ZM107.714 27.2237C108.795 27.2237 109.733 27.0118 110.526 26.5879C111.32 26.1541 111.93 25.5823 112.357 24.8725C112.793 24.1627 113.012 23.3888 113.012 22.5509V19.8744C112.843 20.0124 112.555 20.1405 112.149 20.2588C111.752 20.3771 111.305 20.4806 110.809 20.5694C110.313 20.6581 109.822 20.737 109.336 20.806C108.85 20.875 108.428 20.9341 108.071 20.9834C107.267 21.0919 106.548 21.2693 105.913 21.5158C105.278 21.7622 104.777 22.1073 104.41 22.5509C104.043 22.9846 103.859 23.5466 103.859 24.2367C103.859 25.2225 104.221 25.9668 104.946 26.4696C105.67 26.9723 106.592 27.2237 107.714 27.2237Z" fill="url(#paint4_linear_92_5060)"/>
<path d="M106.315 31.1572C104.866 31.1572 103.561 30.9009 102.401 30.3882C101.25 29.8658 100.337 29.0968 99.6623 28.0814C98.9976 27.066 98.6652 25.814 98.6652 24.3254C98.6652 23.0438 98.9033 21.984 99.3795 21.1461C99.8558 20.3081 100.506 19.6378 101.329 19.135C102.153 18.6322 103.08 18.2527 104.112 17.9963C105.154 17.7302 106.23 17.5379 107.342 17.4196C108.681 17.2816 109.767 17.1584 110.601 17.0499C111.434 16.9316 112.039 16.7542 112.416 16.5176C112.803 16.2711 112.997 15.8916 112.997 15.379V15.2902C112.997 14.1763 112.664 13.3136 112 12.7024C111.335 12.0912 110.378 11.7856 109.127 11.7856C107.808 11.7856 106.761 12.0715 105.987 12.6433C105.223 13.2151 104.707 13.8904 104.439 14.6692L99.4093 13.9594C99.8062 12.5792 100.461 11.4258 101.374 10.4991C102.287 9.56256 103.403 8.86262 104.722 8.39928C106.042 7.92608 107.5 7.68948 109.098 7.68948C110.199 7.68948 111.295 7.81764 112.387 8.07396C113.478 8.33027 114.475 8.75418 115.378 9.34568C116.281 9.92732 117.005 10.7209 117.551 11.7265C118.106 12.732 118.384 13.9889 118.384 15.4973V30.6988H113.205V27.5786H113.027C112.699 28.2096 112.238 28.8011 111.643 29.3531C111.057 29.8953 110.318 30.334 109.425 30.6692C108.542 30.9945 107.505 31.1572 106.315 31.1572ZM107.714 27.2237C108.795 27.2237 109.733 27.0118 110.526 26.5879C111.32 26.1541 111.93 25.5823 112.357 24.8725C112.793 24.1627 113.012 23.3888 113.012 22.5509V19.8744C112.843 20.0124 112.555 20.1405 112.149 20.2588C111.752 20.3771 111.305 20.4806 110.809 20.5694C110.313 20.6581 109.822 20.737 109.336 20.806C108.85 20.875 108.428 20.9341 108.071 20.9834C107.267 21.0919 106.548 21.2693 105.913 21.5158C105.278 21.7622 104.777 22.1073 104.41 22.5509C104.043 22.9846 103.859 23.5466 103.859 24.2367C103.859 25.2225 104.221 25.9668 104.946 26.4696C105.67 26.9723 106.592 27.2237 107.714 27.2237Z" fill="black" fill-opacity="0.2"/>
<path d="M122.963 30.6988V7.98523H128.187V11.7708H128.425C128.842 10.4597 129.556 9.44919 130.568 8.73939C131.59 8.01974 132.756 7.65991 134.065 7.65991C134.363 7.65991 134.695 7.67469 135.062 7.70427C135.439 7.72399 135.752 7.75849 136 7.80778V12.732C135.772 12.6531 135.41 12.5841 134.914 12.525C134.427 12.456 133.956 12.4215 133.5 12.4215C132.518 12.4215 131.635 12.6334 130.851 13.0573C130.077 13.4714 129.467 14.0481 129.02 14.7875C128.574 15.5268 128.351 16.3796 128.351 17.3457V30.6988H122.963Z" fill="url(#paint5_linear_92_5060)"/>
<path d="M122.963 30.6988V7.98523H128.187V11.7708H128.425C128.842 10.4597 129.556 9.44919 130.568 8.73939C131.59 8.01974 132.756 7.65991 134.065 7.65991C134.363 7.65991 134.695 7.67469 135.062 7.70427C135.439 7.72399 135.752 7.75849 136 7.80778V12.732C135.772 12.6531 135.41 12.5841 134.914 12.525C134.427 12.456 133.956 12.4215 133.5 12.4215C132.518 12.4215 131.635 12.6334 130.851 13.0573C130.077 13.4714 129.467 14.0481 129.02 14.7875C128.574 15.5268 128.351 16.3796 128.351 17.3457V30.6988H122.963Z" fill="black" fill-opacity="0.2"/>
<path d="M0 56.9427V39.9075H5.79292C7.1379 39.9075 8.23733 40.1488 9.0912 40.6312C9.95065 41.1081 10.5869 41.7541 10.9998 42.5693C11.4128 43.3844 11.6193 44.2939 11.6193 45.2976C11.6193 46.3013 11.4128 47.2135 10.9998 48.0342C10.5924 48.8549 9.96181 49.5092 9.10794 49.9972C8.25407 50.4796 7.16022 50.7209 5.8264 50.7209H1.67425V48.8909H5.75943C6.68027 48.8909 7.41973 48.7329 7.97782 48.4168C8.5359 48.1007 8.94051 47.6737 9.19165 47.1358C9.44837 46.5924 9.57673 45.9796 9.57673 45.2976C9.57673 44.6155 9.44837 44.0055 9.19165 43.4676C8.94051 42.9297 8.53311 42.5083 7.96945 42.2033C7.40578 41.8928 6.65795 41.7375 5.72595 41.7375H2.07607V56.9427H0Z" fill="black"/>
<path d="M18.4796 57.2421C17.6648 57.2421 16.9253 57.0896 16.2612 56.7846C15.5971 56.4741 15.0697 56.0277 14.679 55.4455C14.2884 54.8577 14.093 54.1479 14.093 53.3161C14.093 52.5841 14.2381 51.9907 14.5283 51.536C14.8185 51.0758 15.2064 50.7153 15.6919 50.4547C16.1775 50.1941 16.7132 50 17.2992 49.8724C17.8908 49.7393 18.4852 49.634 19.0823 49.5564C19.8636 49.4565 20.497 49.3817 20.9826 49.3318C21.4737 49.2763 21.8309 49.1848 22.0541 49.0573C22.2829 48.9297 22.3973 48.7079 22.3973 48.3918V48.3253C22.3973 47.5046 22.1713 46.8669 21.7193 46.4122C21.2728 45.9575 20.5947 45.7301 19.685 45.7301C18.7419 45.7301 18.0024 45.9353 17.4667 46.3456C16.9309 46.756 16.5542 47.1941 16.3365 47.6599L14.4614 46.9944C14.7962 46.2181 15.2427 45.6136 15.8008 45.1811C16.3644 44.743 16.9783 44.438 17.6424 44.2661C18.3121 44.0887 18.9707 44 19.6181 44C20.031 44 20.5054 44.0499 21.0412 44.1497C21.5825 44.2439 22.1043 44.4408 22.6066 44.7403C23.1145 45.0397 23.5358 45.4916 23.8707 46.0961C24.2055 46.7005 24.3729 47.5101 24.3729 48.5249V56.9427H22.3973V55.2126H22.2969C22.1629 55.4898 21.9397 55.7865 21.6272 56.1026C21.3146 56.4187 20.8989 56.6876 20.3799 56.9094C19.8608 57.1312 19.2274 57.2421 18.4796 57.2421ZM18.7809 55.4787C19.5623 55.4787 20.2208 55.3262 20.7566 55.0212C21.2979 54.7163 21.7053 54.3225 21.9788 53.8401C22.2578 53.3577 22.3973 52.8503 22.3973 52.3179V50.5212C22.3136 50.621 22.1294 50.7125 21.8448 50.7957C21.5658 50.8734 21.2421 50.9427 20.8738 51.0037C20.511 51.0591 20.1566 51.109 19.8106 51.1534C19.4702 51.1922 19.1939 51.2255 18.9819 51.2532C18.4684 51.3198 17.9885 51.4279 17.542 51.5776C17.1011 51.7218 16.7439 51.9408 16.4705 52.2347C16.2026 52.5231 16.0686 52.9168 16.0686 53.4159C16.0686 54.098 16.3226 54.6137 16.8304 54.963C17.3439 55.3068 17.994 55.4787 18.7809 55.4787Z" fill="black"/>
<path d="M27.9789 56.9427V44.1663H29.8875V46.0961H30.0215C30.2559 45.4639 30.68 44.951 31.2939 44.5573C31.9078 44.1635 32.5998 43.9667 33.37 43.9667C33.5151 43.9667 33.6964 43.9695 33.9141 43.975C34.1317 43.9806 34.2964 43.9889 34.408 44V45.9963C34.341 45.9796 34.1876 45.9547 33.9476 45.9214C33.7132 45.8826 33.4648 45.8632 33.2025 45.8632C32.5775 45.8632 32.0194 45.9935 31.5283 46.2541C31.0428 46.5092 30.6577 46.8641 30.3731 47.3188C30.094 47.768 29.9545 48.2809 29.9545 48.8576V56.9427H27.9789Z" fill="black"/>
<path d="M38.5915 52.2846L38.5581 49.8558H38.9599L44.5854 44.1663H47.0298L41.036 50.1885H40.8685L38.5915 52.2846ZM36.7499 56.9427V39.9075H38.7255V56.9427H36.7499ZM44.9202 56.9427L39.8975 50.6211L41.3038 49.2569L47.4316 56.9427H44.9202Z" fill="black"/>
<path d="M49.5726 56.9427V44.1663H51.5482V56.9427H49.5726ZM50.5771 42.0369C50.192 42.0369 49.86 41.9066 49.5809 41.646C49.3075 41.3854 49.1707 41.0721 49.1707 40.7061C49.1707 40.3401 49.3075 40.0268 49.5809 39.7661C49.86 39.5055 50.192 39.3752 50.5771 39.3752C50.9622 39.3752 51.2915 39.5055 51.5649 39.7661C51.844 40.0268 51.9835 40.3401 51.9835 40.7061C51.9835 41.0721 51.844 41.3854 51.5649 41.646C51.2915 41.9066 50.9622 42.0369 50.5771 42.0369Z" fill="black"/>
<path d="M57.1423 49.2569V56.9427H55.1667V44.1663H57.0753V46.1626H57.2427C57.5441 45.5138 58.0017 44.9926 58.6156 44.5989C59.2295 44.1996 60.022 44 60.9931 44C61.8637 44 62.6255 44.1774 63.2784 44.5323C63.9314 44.8817 64.4392 45.414 64.802 46.1294C65.1647 46.8392 65.3461 47.7375 65.3461 48.8244V56.9427H63.3705V48.9575C63.3705 47.9538 63.1082 47.1719 62.5836 46.6118C62.059 46.0462 61.3391 45.7634 60.4238 45.7634C59.7932 45.7634 59.2295 45.8992 58.7328 46.1709C58.2417 46.4427 57.8538 46.8392 57.5692 47.3604C57.2846 47.8817 57.1423 48.5138 57.1423 49.2569Z" fill="black"/>
<path d="M74.1464 62C73.1921 62 72.3717 61.878 71.6853 61.634C70.9988 61.3956 70.4268 61.0795 69.9691 60.6858C69.5171 60.2976 69.1571 59.8817 68.8893 59.4381L70.4631 58.3401C70.6416 58.573 70.8677 58.8392 71.1411 59.1386C71.4146 59.4436 71.7885 59.707 72.2629 59.9288C72.7428 60.1562 73.3707 60.2699 74.1464 60.2699C75.1845 60.2699 76.0411 60.0203 76.7164 59.5213C77.3917 59.0222 77.7293 58.2403 77.7293 57.1756V54.5804H77.5619C77.4168 54.8133 77.2103 55.1017 76.9424 55.4455C76.6801 55.7837 76.3006 56.0859 75.8039 56.3521C75.3128 56.6127 74.6487 56.7431 73.8116 56.7431C72.7735 56.7431 71.8415 56.4991 71.0156 56.0111C70.1952 55.5231 69.545 54.8133 69.0651 53.8817C68.5907 52.9501 68.3535 51.8188 68.3535 50.488C68.3535 49.1793 68.5851 48.0397 69.0483 47.0693C69.5115 46.0933 70.1561 45.3392 70.9821 44.8068C71.808 44.2689 72.7624 44 73.845 44C74.6822 44 75.3463 44.1386 75.8374 44.4159C76.3341 44.6876 76.7136 44.9981 76.9759 45.3475C77.2438 45.6913 77.4503 45.9741 77.5954 46.1959H77.7963V44.1663H79.7049V57.3087C79.7049 58.4067 79.4538 59.2994 78.9515 59.9871C78.4548 60.6802 77.7851 61.1876 76.9424 61.5092C76.1053 61.8364 75.1733 62 74.1464 62ZM74.0794 54.9797C74.8719 54.9797 75.5416 54.7994 76.0885 54.439C76.6355 54.0785 77.0512 53.5601 77.3359 52.8835C77.6205 52.207 77.7628 51.3974 77.7628 50.4547C77.7628 49.5342 77.6233 48.7218 77.3442 48.0175C77.0652 47.3133 76.6522 46.7615 76.1053 46.3623C75.5584 45.963 74.8831 45.7634 74.0794 45.7634C73.2423 45.7634 72.5447 45.9741 71.9866 46.3955C71.4341 46.817 71.0184 47.3826 70.7393 48.0924C70.4659 48.8022 70.3291 49.5896 70.3291 50.4547C70.3291 51.3419 70.4686 52.1266 70.7477 52.8087C71.0323 53.4852 71.4509 54.0175 72.0034 54.4057C72.5614 54.7883 73.2535 54.9797 74.0794 54.9797Z" fill="black"/>
<path d="M90.2193 39.9075H92.6972L98.5236 54.048H98.7245L104.551 39.9075H107.029V56.9427H105.087V44H104.919L99.5616 56.9427H97.6864L92.3288 44H92.1614V56.9427H90.2193V39.9075Z" fill="black"/>
<path d="M114.707 57.2421C113.893 57.2421 113.153 57.0896 112.489 56.7846C111.825 56.4741 111.297 56.0277 110.907 55.4455C110.516 54.8577 110.321 54.1479 110.321 53.3161C110.321 52.5841 110.466 51.9907 110.756 51.536C111.046 51.0758 111.434 50.7153 111.92 50.4547C112.405 50.1941 112.941 50 113.527 49.8724C114.119 49.7393 114.713 49.634 115.31 49.5564C116.091 49.4565 116.725 49.3817 117.21 49.3318C117.701 49.2763 118.059 49.1848 118.282 49.0573C118.511 48.9297 118.625 48.7079 118.625 48.3918V48.3253C118.625 47.5046 118.399 46.8669 117.947 46.4122C117.501 45.9575 116.822 45.7301 115.913 45.7301C114.97 45.7301 114.23 45.9353 113.694 46.3456C113.159 46.756 112.782 47.1941 112.564 47.6599L110.689 46.9944C111.024 46.2181 111.47 45.6136 112.029 45.1811C112.592 44.743 113.206 44.438 113.87 44.2661C114.54 44.0887 115.198 44 115.846 44C116.259 44 116.733 44.0499 117.269 44.1497C117.81 44.2439 118.332 44.4408 118.834 44.7403C119.342 45.0397 119.764 45.4916 120.098 46.0961C120.433 46.7005 120.601 47.5101 120.601 48.5249V56.9427H118.625V55.2126H118.525C118.391 55.4898 118.167 55.7865 117.855 56.1026C117.542 56.4187 117.127 56.6876 116.608 56.9094C116.089 57.1312 115.455 57.2421 114.707 57.2421ZM115.009 55.4787C115.79 55.4787 116.449 55.3262 116.984 55.0212C117.526 54.7163 117.933 54.3225 118.206 53.8401C118.486 53.3577 118.625 52.8503 118.625 52.3179V50.5212C118.541 50.621 118.357 50.7125 118.073 50.7957C117.794 50.8734 117.47 50.9427 117.101 51.0037C116.739 51.0591 116.384 51.109 116.038 51.1534C115.698 51.1922 115.422 51.2255 115.21 51.2532C114.696 51.3198 114.216 51.4279 113.77 51.5776C113.329 51.7218 112.972 51.9408 112.698 52.2347C112.43 52.5231 112.296 52.9168 112.296 53.4159C112.296 54.098 112.55 54.6137 113.058 54.963C113.572 55.3068 114.222 55.4787 115.009 55.4787Z" fill="black"/>
<path d="M124.207 61.7338V44.1663H126.115V46.1959H126.35C126.495 45.9741 126.696 45.6913 126.952 45.3475C127.215 44.9981 127.589 44.6876 128.074 44.4159C128.565 44.1386 129.229 44 130.066 44C131.149 44 132.104 44.2689 132.929 44.8068C133.755 45.3447 134.4 46.1072 134.863 47.0942C135.326 48.0813 135.558 49.2458 135.558 50.5878C135.558 51.9408 135.326 53.1137 134.863 54.1063C134.4 55.0933 133.758 55.8586 132.938 56.402C132.117 56.9399 131.171 57.2089 130.1 57.2089C129.274 57.2089 128.613 57.073 128.116 56.8013C127.619 56.524 127.237 56.2107 126.969 55.8614C126.701 55.5065 126.495 55.2126 126.35 54.9797H126.182V61.7338H124.207ZM126.149 50.5545C126.149 51.5194 126.291 52.3706 126.576 53.1081C126.86 53.8401 127.276 54.414 127.823 54.8299C128.37 55.2403 129.04 55.4455 129.832 55.4455C130.658 55.4455 131.347 55.2292 131.9 54.7967C132.458 54.3586 132.876 53.7708 133.155 53.0333C133.44 52.2902 133.582 51.4639 133.582 50.5545C133.582 49.6562 133.443 48.8465 133.164 48.1257C132.89 47.3992 132.475 46.8253 131.917 46.4039C131.364 45.9769 130.669 45.7634 129.832 45.7634C129.028 45.7634 128.353 45.9658 127.806 46.3706C127.259 46.7698 126.846 47.3299 126.567 48.0508C126.288 48.7661 126.149 49.6007 126.149 50.5545Z" fill="black"/>
</g>
<defs>
<linearGradient id="paint0_linear_92_5060" x1="-9.98857e-07" y1="30.0606" x2="136" y2="30.0606" gradientUnits="userSpaceOnUse">
<stop stop-color="#1D91DE"/>
<stop offset="1" stop-color="#1D47A9"/>
</linearGradient>
<linearGradient id="paint1_linear_92_5060" x1="-9.98857e-07" y1="30.0606" x2="136" y2="30.0606" gradientUnits="userSpaceOnUse">
<stop stop-color="#1D91DE"/>
<stop offset="1" stop-color="#1D47A9"/>
</linearGradient>
<linearGradient id="paint2_linear_92_5060" x1="-9.98857e-07" y1="30.0606" x2="136" y2="30.0606" gradientUnits="userSpaceOnUse">
<stop stop-color="#1D91DE"/>
<stop offset="1" stop-color="#1D47A9"/>
</linearGradient>
<linearGradient id="paint3_linear_92_5060" x1="-9.98857e-07" y1="30.0606" x2="136" y2="30.0606" gradientUnits="userSpaceOnUse">
<stop stop-color="#1D91DE"/>
<stop offset="1" stop-color="#1D47A9"/>
</linearGradient>
<linearGradient id="paint4_linear_92_5060" x1="-9.98857e-07" y1="30.0606" x2="136" y2="30.0606" gradientUnits="userSpaceOnUse">
<stop stop-color="#1D91DE"/>
<stop offset="1" stop-color="#1D47A9"/>
</linearGradient>
<linearGradient id="paint5_linear_92_5060" x1="-9.98857e-07" y1="30.0606" x2="136" y2="30.0606" gradientUnits="userSpaceOnUse">
<stop stop-color="#1D91DE"/>
<stop offset="1" stop-color="#1D47A9"/>
</linearGradient>
</defs>
</svg>
