<svg width="22" height="23" viewBox="0 0 22 23" fill="none" xmlns="http://www.w3.org/2000/svg">
<path fill-rule="evenodd" clip-rule="evenodd" d="M21.583 3.1785C21.7151 3.04657 21.8199 2.8899 21.8914 2.71746C21.963 2.54501 21.9999 2.36016 22 2.17346C22.0001 1.98676 21.9635 1.80186 21.8921 1.62933C21.8208 1.45679 21.7161 1.3 21.5842 1.1679C21.4523 1.0358 21.2956 0.930983 21.1232 0.85943C20.9507 0.787876 20.7659 0.750989 20.5792 0.750874C20.3925 0.750759 20.2076 0.787419 20.035 0.858761C19.8625 0.930102 19.7057 1.03473 19.5736 1.16666L10.9998 9.74045L2.4285 1.16666C2.16172 0.899879 1.79988 0.75 1.42258 0.75C1.04529 0.75 0.683451 0.899879 0.416665 1.16666C0.149879 1.43345 2.81105e-09 1.79529 0 2.17258C-2.81105e-09 2.54988 0.149879 2.91172 0.416665 3.1785L8.99045 11.7498L0.416665 20.3211C0.284566 20.4532 0.179779 20.6101 0.108288 20.7827C0.036796 20.9552 0 21.1402 0 21.3271C0 21.5139 0.036796 21.6989 0.108288 21.8715C0.179779 22.044 0.284566 22.2009 0.416665 22.333C0.683451 22.5998 1.04529 22.7496 1.42258 22.7496C1.6094 22.7496 1.79439 22.7128 1.96698 22.6413C2.13958 22.5699 2.2964 22.4651 2.4285 22.333L10.9998 13.7592L19.5736 22.333C19.8404 22.5994 20.2021 22.749 20.5792 22.7488C20.9562 22.7485 21.3178 22.5985 21.5842 22.3317C21.8507 22.0649 22.0002 21.7032 22 21.3262C21.9998 20.9491 21.8498 20.5876 21.583 20.3211L13.0092 11.7498L21.583 3.1785Z" fill="#4E445C"/>
</svg>
