<svg width="23" height="21" viewBox="0 0 23 21" fill="none" xmlns="http://www.w3.org/2000/svg">fill=
<path d="M12.6349 0.857698L22.1766 17.959C22.3221 18.2198 22.3987 18.5156 22.3987 18.8167C22.3987 19.1178 22.3221 19.4136 22.1766 19.6744C22.0311 19.9352 21.8219 20.1517 21.5699 20.3023C21.3179 20.4529 21.032 20.5321 20.741 20.5321H1.65765C1.36667 20.5321 1.08082 20.4529 0.82882 20.3023C0.576824 20.1517 0.367567 19.9352 0.222078 19.6744C0.0765903 19.4136 -1.84805e-06 19.1178 0 18.8167C1.84812e-06 18.5156 0.0765976 18.2198 0.222089 17.959L9.76378 0.857698C10.4014 -0.285899 11.9961 -0.285899 12.6349 0.857698ZM11.1993 14.4116C10.9062 14.4116 10.6252 14.5321 10.4179 14.7466C10.2106 14.961 10.0942 15.2519 10.0942 15.5552C10.0942 15.8585 10.2106 16.1494 10.4179 16.3638C10.6252 16.5783 10.9062 16.6988 11.1993 16.6988C11.4924 16.6988 11.7735 16.5783 11.9808 16.3638C12.188 16.1494 12.3045 15.8585 12.3045 15.5552C12.3045 15.2519 12.188 14.961 11.9808 14.7466C11.7735 14.5321 11.4924 14.4116 11.1993 14.4116ZM11.1993 6.40643C10.9287 6.40647 10.6674 6.5093 10.4651 6.69543C10.2629 6.88156 10.1336 7.13804 10.102 7.41623L10.0942 7.55003V12.1244C10.0945 12.4159 10.2024 12.6962 10.3957 12.9082C10.5891 13.1201 10.8534 13.2477 11.1346 13.2648C11.4158 13.2819 11.6927 13.1872 11.9087 13.0001C12.1247 12.813 12.2635 12.5477 12.2967 12.2582L12.3045 12.1244V7.55003C12.3045 7.24673 12.188 6.95585 11.9808 6.74138C11.7735 6.52692 11.4924 6.40643 11.1993 6.40643Z" fill="url(#paint0_linear_196_15909)"/>
<path d="M12.6349 0.857698L22.1766 17.959C22.3221 18.2198 22.3987 18.5156 22.3987 18.8167C22.3987 19.1178 22.3221 19.4136 22.1766 19.6744C22.0311 19.9352 21.8219 20.1517 21.5699 20.3023C21.3179 20.4529 21.032 20.5321 20.741 20.5321H1.65765C1.36667 20.5321 1.08082 20.4529 0.82882 20.3023C0.576824 20.1517 0.367567 19.9352 0.222078 19.6744C0.0765903 19.4136 -1.84805e-06 19.1178 0 18.8167C1.84812e-06 18.5156 0.0765976 18.2198 0.222089 17.959L9.76378 0.857698C10.4014 -0.285899 11.9961 -0.285899 12.6349 0.857698ZM11.1993 14.4116C10.9062 14.4116 10.6252 14.5321 10.4179 14.7466C10.2106 14.961 10.0942 15.2519 10.0942 15.5552C10.0942 15.8585 10.2106 16.1494 10.4179 16.3638C10.6252 16.5783 10.9062 16.6988 11.1993 16.6988C11.4924 16.6988 11.7735 16.5783 11.9808 16.3638C12.188 16.1494 12.3045 15.8585 12.3045 15.5552C12.3045 15.2519 12.188 14.961 11.9808 14.7466C11.7735 14.5321 11.4924 14.4116 11.1993 14.4116ZM11.1993 6.40643C10.9287 6.40647 10.6674 6.5093 10.4651 6.69543C10.2629 6.88156 10.1336 7.13804 10.102 7.41623L10.0942 7.55003V12.1244C10.0945 12.4159 10.2024 12.6962 10.3957 12.9082C10.5891 13.1201 10.8534 13.2477 11.1346 13.2648C11.4158 13.2819 11.6927 13.1872 11.9087 13.0001C12.1247 12.813 12.2635 12.5477 12.2967 12.2582L12.3045 12.1244V7.55003C12.3045 7.24673 12.188 6.95585 11.9808 6.74138C11.7735 6.52692 11.4924 6.40643 11.1993 6.40643Z" fill="black" fill-opacity="0.2"/>
<defs>
<linearGradient id="paint0_linear_196_15909" x1="-1.64508e-07" y1="9.95498" x2="22.3987" y2="9.95498" gradientUnits="userSpaceOnUse">
<stop stop-color="#1D91DE"/>
<stop offset="1" stop-color="#1D47A9"/>
</linearGradient>
</defs>
</svg>
