<svg width="1541" height="878" viewBox="0 0 1541 878" fill="none" xmlns="http://www.w3.org/2000/svg">
<path d="M87.1531 428.891C77.5858 424.289 69.3805 420.313 62.0741 416.731C61.511 416.452 60.8251 416.69 60.5544 417.243C60.3149 417.735 60.4549 418.309 60.8617 418.634C60.9243 418.684 60.9952 418.723 61.0661 418.763C68.383 422.353 76.5883 426.328 86.166 430.939C86.7292 431.218 87.4046 430.972 87.6837 430.408C87.9627 429.845 87.7162 429.17 87.1531 428.891Z" fill="#4E445C" fill-opacity="0.12"/>
<path d="M138.566 430.422C161.402 386.462 152.121 378.978 119.345 361.951C54.389 328.218 49.5514 331.428 31.2033 366.755C23.0352 382.496 19.6601 390.378 21.2834 395.469C21.8349 397.174 22.8866 398.51 24.3991 399.719C26.2662 401.21 28.8254 402.52 31.9875 404.124L32.2398 404.257C32.7947 404.547 33.4826 404.327 33.7617 403.764C34.0512 403.209 33.8214 402.513 33.2686 402.242L33.0163 402.109C27.6266 399.358 24.3832 397.706 23.439 394.782C22.0685 390.508 25.6498 382.347 33.2015 367.805C50.8998 333.719 54.9663 331.089 118.278 363.97C148.209 379.51 159.404 385.327 136.53 429.377C135.499 431.373 134.597 433.165 133.781 434.785C127.76 446.791 127.271 447.767 116.388 442.866C115.808 442.607 115.143 442.862 114.893 443.432C114.635 444.011 114.9 444.685 115.459 444.926C128.324 450.727 129.761 447.859 135.813 435.793C136.639 434.181 137.533 432.4 138.566 430.422Z" fill="#4E445C" fill-opacity="0.12"/>
<path d="M149.818 397.56C140.084 395.713 128.669 391.412 115.902 384.783C109.267 381.344 102.626 377.337 96.1991 373.467C89.7119 369.565 83.01 365.526 76.252 362.007C63.1324 355.198 51.956 351.583 41.0878 350.641C40.4643 350.588 39.9078 351.049 39.854 351.672C39.8125 352.066 39.9858 352.427 40.2779 352.66C40.4448 352.794 40.6638 352.883 40.8848 352.906C51.4549 353.815 62.3664 357.355 75.2044 364.024C81.8998 367.493 88.5726 371.526 95.0284 375.402C101.476 379.289 108.157 383.311 114.852 386.781C127.811 393.512 139.432 397.875 149.39 399.765C150.012 399.885 150.593 399.478 150.714 398.857C150.838 398.273 150.429 397.673 149.818 397.56Z" fill="#4E445C" fill-opacity="0.12"/>
<path d="M63.7803 386.854C65.7914 381.728 67.8691 376.432 70.2847 371.441C70.4159 371.17 70.4366 370.845 70.328 370.553C70.2193 370.261 70.0044 370.038 69.7229 369.899C65.3742 367.962 60.9962 365.848 56.7684 363.803C55.0706 362.977 53.3645 362.16 51.6584 361.344C51.3872 361.213 51.0724 361.2 50.7889 361.299C50.497 361.407 50.274 361.622 50.1428 361.893C47.465 367.769 44.7075 372.931 41.7667 378.408C40.9877 379.854 40.2109 381.318 39.4111 382.832C39.2612 383.106 39.2322 383.441 39.3408 383.733C39.4202 383.933 39.5349 384.111 39.7018 384.244C39.7853 384.311 39.8666 384.359 39.9563 384.396C43.3706 385.876 46.7807 387.49 50.0804 389.05C53.2403 390.549 56.519 392.092 59.8457 393.554C60.1252 393.675 60.4484 393.677 60.7298 393.56C61.0112 393.443 61.2425 393.217 61.3528 392.93C62.1836 390.927 62.983 388.9 63.7803 386.854ZM51.0591 387.012C48.1099 385.613 45.0605 384.168 41.9841 382.82C42.5798 381.69 43.1775 380.578 43.7586 379.487C46.5328 374.304 49.1487 369.405 51.7058 363.894C53.0615 364.55 54.4068 365.198 55.7626 365.854C59.6692 367.745 63.6863 369.69 67.718 371.509C65.4752 376.263 63.5308 381.22 61.6446 386.019C60.9951 387.688 60.3352 389.348 59.6669 391.019C56.7573 389.719 53.8686 388.351 51.0591 387.012Z" fill="#4E445C" fill-opacity="0.12"/>
<path d="M96.0632 402.512C98.0742 397.386 100.16 392.08 102.584 387.079C102.715 386.807 102.736 386.482 102.627 386.19C102.519 385.898 102.304 385.675 102.022 385.536C97.6528 383.583 93.2644 381.461 89.0074 379.41C87.3201 378.591 85.6431 377.781 83.9474 376.973C83.6763 376.842 83.3614 376.83 83.0779 376.928C82.7861 377.036 82.5631 377.251 82.4319 377.522C79.754 383.398 76.9882 388.571 74.0661 394.046C73.2872 395.491 72.5104 396.956 71.7189 398.459C71.569 398.733 71.54 399.068 71.6486 399.36C71.728 399.56 71.8428 399.738 72.0097 399.871C72.0931 399.938 72.1744 399.985 72.2641 400.023C75.6888 401.512 79.099 403.126 82.3986 404.685C85.5585 406.185 88.8185 407.73 92.1431 409.173C92.4225 409.293 92.7457 409.295 93.0272 409.178C93.3086 409.061 93.5399 408.836 93.6502 408.548C94.4664 406.586 95.2554 404.55 96.0632 402.512ZM83.3607 402.668C80.4011 401.261 77.3621 399.824 74.2753 398.468C74.871 397.338 75.4604 396.236 76.0498 395.135C78.8239 389.952 81.4482 385.042 83.997 379.542C85.3318 380.181 86.6667 380.821 88.0037 381.479C91.9207 383.378 95.9671 385.329 100.009 387.157C97.7664 391.911 95.8136 396.879 93.9296 401.696C93.28 403.365 92.6284 405.015 91.958 406.666C89.0568 405.357 86.1681 403.989 83.3607 402.668Z" fill="#4E445C" fill-opacity="0.12"/>
<path d="M128.216 417.368C130.227 412.241 132.313 406.935 134.729 401.944C134.86 401.673 134.881 401.348 134.772 401.056C134.663 400.764 134.448 400.541 134.167 400.401C129.797 398.448 125.409 396.326 121.152 394.275C119.465 393.457 117.788 392.647 116.092 391.839C115.821 391.707 115.506 391.695 115.222 391.793C114.931 391.902 114.708 392.117 114.576 392.388C111.899 398.263 109.133 403.436 106.211 408.911C105.432 410.357 104.655 411.821 103.863 413.325C103.714 413.598 103.685 413.934 103.793 414.226C103.873 414.426 103.987 414.603 104.154 414.736C104.238 414.803 104.319 414.851 104.409 414.889C107.833 416.377 111.243 417.991 114.543 419.551C117.703 421.05 120.963 422.595 124.288 424.038C124.567 424.159 124.89 424.161 125.172 424.044C125.453 423.927 125.684 423.702 125.795 423.414C126.619 421.441 127.427 419.403 128.216 417.368ZM115.524 417.532C112.564 416.124 109.525 414.687 106.439 413.332C107.034 412.201 107.624 411.1 108.213 409.999C110.987 404.815 113.611 399.905 116.16 394.405C117.495 395.045 118.84 395.692 120.167 396.342C124.084 398.241 128.13 400.193 132.172 402.021C129.93 406.774 127.977 411.742 126.101 416.55C125.452 418.218 124.792 419.878 124.132 421.538C121.22 420.22 118.331 418.852 115.524 417.532Z" fill="#4E445C" fill-opacity="0.12"/>
<path d="M112.83 423.343C111.965 422.651 111.022 422.034 109.994 421.503C98.2443 415.397 89.6324 421.726 85.5046 429.673C81.6122 437.176 83.321 445.667 89.7776 450.826C90.9459 451.76 92.2725 452.58 93.6992 453.276C103.517 457.993 112.626 452.795 116.566 445.211C120.646 437.346 119.11 428.36 112.83 423.343ZM94.6863 451.228C93.4014 450.611 92.2375 449.886 91.2049 449.061C85.6244 444.603 84.1457 437.235 87.5321 430.729C92.2222 421.693 100.234 419.003 108.956 423.528C109.853 423.989 110.673 424.524 111.424 425.124C116.848 429.458 118.131 437.285 114.559 444.172C111.125 450.759 103.198 455.311 94.6863 451.228Z" fill="#4E445C" fill-opacity="0.12"/>
<path d="M109.139 427.708C108.586 427.266 107.971 426.86 107.316 426.524C103.918 424.767 100.094 424.719 96.8337 426.404C93.6987 428.017 91.5466 430.946 91.0878 434.237C90.5501 438.097 92.0642 441.87 95.1413 444.328C97.6759 446.354 100.862 447.157 103.85 446.519C106.114 446.038 109.316 444.511 111.678 439.973C113.931 435.655 112.904 430.716 109.139 427.708ZM103.375 444.311C101.047 444.809 98.5524 444.166 96.5497 442.566C94.1089 440.615 92.8998 437.616 93.3379 434.565C93.6929 432.046 95.4345 429.695 97.8775 428.434C100.483 427.098 103.546 427.136 106.279 428.55C106.802 428.814 107.294 429.139 107.732 429.489C110.632 431.806 111.408 435.605 109.673 438.952C108.113 441.91 105.946 443.767 103.375 444.311Z" fill="#4E445C" fill-opacity="0.12"/>
<path d="M57.9749 398.332C57.1092 397.64 56.1663 397.024 55.1381 396.493C43.3888 390.386 34.777 396.716 30.6492 404.663C26.7567 412.165 28.476 420.665 34.9222 425.816C36.0904 426.749 37.417 427.57 38.8437 428.265C48.6613 432.982 57.7701 427.784 61.7104 420.2C65.7903 412.335 64.2543 403.349 57.9749 398.332ZM39.8308 426.217C38.546 425.601 37.382 424.876 36.3494 424.051C30.7689 419.592 29.3006 412.232 32.6766 405.718C37.3667 396.683 45.3782 393.992 54.1009 398.518C54.9978 398.978 55.8176 399.513 56.5686 400.114C61.9926 404.447 63.2756 412.274 59.7039 419.161C56.2613 425.759 48.3427 430.301 39.8308 426.217Z" fill="#4E445C" fill-opacity="0.12"/>
<path d="M54.2872 402.715C53.7344 402.274 53.1191 401.868 52.4641 401.532C49.0664 399.774 45.2422 399.727 41.9821 401.412C38.8471 403.025 36.695 405.954 36.2362 409.245C35.6986 413.105 37.2126 416.878 40.2897 419.336C42.8243 421.361 46.0005 422.156 48.9985 421.527C51.2626 421.046 54.4644 419.519 56.8261 414.981C59.0691 410.655 58.0527 405.724 54.2872 402.715ZM48.5322 419.308C46.2034 419.806 43.7092 419.163 41.7065 417.563C39.2657 415.613 38.0565 412.613 38.4946 409.562C38.8496 407.043 40.5913 404.692 43.0343 403.431C45.6398 402.095 48.7029 402.133 51.4353 403.547C51.9588 403.812 52.4511 404.137 52.8892 404.487C55.789 406.803 56.5649 410.602 54.8301 413.95C53.2701 416.907 51.0923 418.756 48.5322 419.308Z" fill="#4E445C" fill-opacity="0.12"/>
<path d="M148.925 422.995C146.942 421.821 140.831 423.586 138.783 425.231C138.295 425.627 138.212 426.33 138.6 426.828C138.997 427.316 139.699 427.399 140.198 427.01C141.907 425.642 145.951 424.772 147.388 424.877C146.375 428.648 141.171 436.658 139.708 437.676C138.579 435.731 137.298 435.238 136.057 434.759C135.78 434.657 135.5 434.536 135.21 434.407C134.641 434.158 133.966 434.404 133.716 434.973C133.503 435.453 133.641 436.008 134.038 436.324C134.111 436.383 134.192 436.431 134.282 436.468C134.611 436.612 134.93 436.747 135.247 436.864C136.349 437.282 137.074 437.571 137.826 438.941C138.277 439.745 139.034 440.145 139.882 440.003C143.537 439.386 149.463 426.279 149.736 424.719C149.867 424.021 149.555 423.362 148.925 422.995Z" fill="#4E445C" fill-opacity="0.12"/>
<path d="M25.2504 379.96C23.7305 380.215 22.3274 380.495 21.3975 380.675C21.5845 379.628 22.3794 377.051 25.4597 371.121C25.6867 370.687 25.897 370.274 26.0824 369.892C26.5572 368.956 27.1382 367.779 27.3717 367.658C27.5323 367.735 28.1498 368.246 29.3214 371.25C29.5491 371.842 30.2081 372.129 30.7897 371.893C31.3818 371.666 31.6691 371.006 31.4331 370.425C30.3137 367.548 29.4371 366.164 28.4193 365.641C27.6934 365.266 27.093 365.334 26.7177 365.461C25.5628 365.837 24.9359 367.113 24.0592 368.874C23.8738 369.256 23.6802 369.648 23.4282 370.113C22.9742 370.981 21.5996 373.642 20.519 376.214C19.1532 379.463 18.5083 381.853 19.7391 382.836C19.8225 382.903 19.9247 382.968 20.0353 383.022C20.2772 383.147 20.5379 383.184 20.8069 383.126C20.8256 383.123 23.0689 382.626 25.6438 382.205C26.2588 382.098 26.6776 381.51 26.5708 380.895C26.4537 380.272 25.8654 379.853 25.2504 379.96Z" fill="#4E445C" fill-opacity="0.12"/>
<path d="M316.811 161.232C307.432 166.205 299.364 170.454 292.147 174.213C291.589 174.5 291.374 175.194 291.658 175.74C291.912 176.224 292.457 176.452 292.96 176.317C293.037 176.296 293.111 176.263 293.185 176.229C300.415 172.467 308.482 168.218 317.875 163.241C318.434 162.953 318.636 162.263 318.348 161.705C318.06 161.146 317.37 160.944 316.811 161.232Z" fill="#4E445C" fill-opacity="0.12"/>
<path d="M348.534 120.747C326.683 76.2886 315.153 79.3228 282.005 95.6137C216.321 127.907 216.037 133.705 233.598 169.43C241.428 185.342 245.773 192.734 250.834 194.446C252.534 195.014 254.234 194.959 256.104 194.458C258.412 193.84 260.985 192.556 264.151 190.961L264.408 190.837C264.97 190.562 265.202 189.878 264.914 189.319C264.639 188.757 263.942 188.529 263.396 188.814L263.139 188.938C257.727 191.646 254.474 193.277 251.559 192.303C247.305 190.872 242.858 183.148 235.629 168.443C218.681 133.978 218.975 129.144 282.998 97.6697C313.262 82.7876 324.584 77.2242 346.485 121.766C347.481 123.78 348.389 125.568 349.209 127.187C355.305 139.154 355.801 140.127 345.399 145.983C344.848 146.297 344.658 146.983 344.969 147.522C345.282 148.074 345.982 148.26 346.508 147.953C358.808 141.035 357.351 138.178 351.226 126.149C350.418 124.527 349.514 122.751 348.534 120.747Z" fill="#4E445C" fill-opacity="0.12"/>
<path d="M328.75 92.1974C321.489 98.9393 311.257 105.579 298.347 111.927C291.644 115.23 284.478 118.2 277.551 121.079C270.562 123.988 263.335 126.989 256.493 130.343C243.231 136.868 233.692 143.723 226.488 151.915C226.075 152.385 226.116 153.106 226.586 153.52C226.879 153.787 227.272 153.861 227.633 153.764C227.839 153.709 228.041 153.586 228.191 153.421C235.191 145.45 244.513 138.764 257.496 132.383C264.261 129.05 271.465 126.069 278.415 123.17C285.368 120.284 292.569 117.29 299.334 113.957C312.439 107.515 322.844 100.746 330.271 93.8494C330.736 93.4206 330.753 92.711 330.325 92.2454C329.928 91.7986 329.203 91.772 328.75 92.1974Z" fill="#4E445C" fill-opacity="0.12"/>
<path d="M269.104 155.12C266.169 150.46 263.137 145.647 260.551 140.742C260.411 140.475 260.161 140.266 259.862 140.18C259.563 140.095 259.256 140.135 258.976 140.279C254.838 142.632 250.54 144.904 246.386 147.095C244.713 147.971 243.044 148.861 241.375 149.75C241.109 149.891 240.912 150.137 240.823 150.424C240.737 150.723 240.778 151.03 240.918 151.297C244.061 156.937 246.582 162.219 249.248 167.835C249.95 169.32 250.668 170.814 251.413 172.356C251.544 172.638 251.797 172.861 252.096 172.946C252.305 173.001 252.515 173.014 252.722 172.959C252.825 172.931 252.912 172.894 252.995 172.844C256.212 170.973 259.534 169.184 262.746 167.453C265.828 165.798 269.015 164.073 272.164 162.262C272.427 162.108 272.621 161.849 272.693 161.553C272.766 161.257 272.722 160.937 272.556 160.678C271.436 158.821 270.278 156.975 269.104 155.12ZM261.686 165.456C258.81 167.001 255.838 168.599 252.929 170.277C252.372 169.127 251.832 167.986 251.298 166.871C248.77 161.564 246.376 156.552 243.456 151.225C244.789 150.522 246.108 149.823 247.44 149.121C251.279 147.097 255.228 145.016 259.084 142.849C261.581 147.474 264.42 151.98 267.165 156.344C268.123 157.857 269.068 159.373 270.017 160.902C267.245 162.474 264.431 163.988 261.686 165.456Z" fill="#4E445C" fill-opacity="0.12"/>
<path d="M300.858 138.415C297.923 133.756 294.888 128.93 292.299 124.012C292.158 123.745 291.909 123.536 291.609 123.45C291.31 123.364 291.003 123.405 290.723 123.549C286.559 125.909 282.248 128.184 278.072 130.395C276.412 131.268 274.766 132.137 273.109 133.024C272.843 133.164 272.646 133.41 272.557 133.697C272.472 133.996 272.512 134.303 272.653 134.57C275.795 140.21 278.32 145.505 280.995 151.105C281.697 152.589 282.415 154.083 283.157 155.612C283.288 155.895 283.541 156.118 283.84 156.203C284.048 156.258 284.259 156.271 284.465 156.215C284.569 156.188 284.655 156.151 284.739 156.101C287.969 154.226 291.29 152.438 294.503 150.706C297.584 149.051 300.762 147.343 303.895 145.522C304.158 145.368 304.352 145.109 304.424 144.813C304.497 144.517 304.453 144.197 304.287 143.938C303.19 142.117 302.019 140.274 300.858 138.415ZM293.45 148.735C290.561 150.283 287.602 151.878 284.68 153.559C284.123 152.409 283.586 151.282 283.049 150.154C280.521 144.846 278.124 139.821 275.207 134.507C276.513 133.812 277.82 133.116 279.143 132.43C282.995 130.402 286.966 128.302 290.835 126.132C293.332 130.756 296.174 135.275 298.935 139.649C299.894 141.162 300.835 142.665 301.768 144.184C298.993 145.743 296.178 147.258 293.45 148.735Z" fill="#4E445C" fill-opacity="0.12"/>
<path d="M331.886 121.338C328.951 116.678 325.916 111.852 323.33 106.947C323.19 106.68 322.94 106.471 322.64 106.385C322.341 106.299 322.034 106.34 321.755 106.484C317.591 108.844 313.279 111.119 309.103 113.33C307.444 114.203 305.797 115.073 304.141 115.959C303.874 116.099 303.678 116.345 303.588 116.632C303.503 116.931 303.544 117.238 303.684 117.505C306.826 123.145 309.351 128.44 312.026 134.04C312.728 135.524 313.446 137.018 314.188 138.547C314.319 138.83 314.572 139.053 314.871 139.138C315.08 139.193 315.29 139.206 315.497 139.15C315.6 139.123 315.687 139.086 315.77 139.036C319 137.161 322.322 135.373 325.534 133.641C328.616 131.986 331.793 130.278 334.927 128.457C335.19 128.303 335.383 128.044 335.456 127.748C335.528 127.452 335.484 127.133 335.318 126.873C334.218 125.039 333.057 123.18 331.886 121.338ZM324.491 131.654C321.602 133.202 318.643 134.797 315.721 136.478C315.164 135.328 314.626 134.2 314.089 133.073C311.561 127.765 309.164 122.74 306.248 117.426C307.554 116.73 308.873 116.031 310.183 115.349C314.036 113.321 318.006 111.22 321.876 109.05C324.373 113.675 327.215 118.194 329.973 122.555C330.931 124.068 331.876 125.584 332.821 127.1C330.033 128.662 327.219 130.177 324.491 131.654Z" fill="#4E445C" fill-opacity="0.12"/>
<path d="M327.571 137.27C326.5 137.557 325.445 137.95 324.407 138.463C312.522 144.301 312.511 154.989 316.461 163.026C320.194 170.609 328.044 174.27 336.027 172.131C337.471 171.744 338.919 171.162 340.325 170.426C349.945 165.319 351.163 154.902 347.393 147.232C343.48 139.282 335.334 135.19 327.571 137.27ZM339.261 168.417C338.003 169.085 336.729 169.593 335.452 169.935C328.553 171.783 321.744 168.604 318.514 162.019C314.021 152.884 316.606 144.838 325.423 140.499C326.325 140.05 327.242 139.708 328.171 139.459C334.877 137.662 341.94 141.271 345.367 148.231C348.633 154.903 347.597 163.985 339.261 168.417Z" fill="#4E445C" fill-opacity="0.12"/>
<path d="M328.899 142.831C328.215 143.014 327.523 143.268 326.865 143.597C323.434 145.29 321.128 148.341 320.551 151.965C319.991 155.446 321.073 158.916 323.45 161.237C326.239 163.959 330.175 164.977 333.979 163.958C337.113 163.118 339.649 161.029 340.908 158.245C341.863 156.137 342.533 152.654 340.28 148.061C338.14 143.686 333.554 141.583 328.899 142.831ZM338.849 157.318C337.868 159.488 335.871 161.115 333.395 161.779C330.378 162.587 327.245 161.782 325.049 159.62C323.231 157.84 322.371 155.043 322.805 152.328C323.274 149.438 325.121 146.994 327.88 145.633C328.404 145.368 328.957 145.165 329.499 145.02C333.084 144.059 336.603 145.687 338.269 149.069C339.726 152.079 339.935 154.926 338.849 157.318Z" fill="#4E445C" fill-opacity="0.12"/>
<path d="M274.903 166.601C273.832 166.887 272.777 167.281 271.739 167.794C259.854 173.632 259.843 184.32 263.793 192.356C267.526 199.94 275.389 203.597 283.359 201.461C284.803 201.074 286.251 200.493 287.657 199.757C297.277 194.65 298.495 184.233 294.725 176.563C290.812 168.613 282.666 164.52 274.903 166.601ZM286.593 197.747C285.335 198.416 284.061 198.923 282.784 199.266C275.885 201.114 269.088 197.932 265.846 191.35C261.353 182.215 263.938 174.169 272.755 169.83C273.657 169.381 274.574 169.038 275.503 168.79C282.209 166.993 289.272 170.601 292.699 177.562C295.969 184.246 294.929 193.316 286.593 197.747Z" fill="#4E445C" fill-opacity="0.12"/>
<path d="M276.242 172.171C275.559 172.354 274.867 172.609 274.209 172.937C270.778 174.63 268.472 177.681 267.895 181.305C267.335 184.786 268.417 188.256 270.794 190.577C273.583 193.299 277.519 194.318 281.323 193.298C284.457 192.459 286.98 190.373 288.252 187.586C289.207 185.477 289.877 181.994 287.624 177.401C285.471 173.029 280.898 170.923 276.242 172.171ZM286.189 186.645C285.208 188.816 283.212 190.443 280.736 191.106C277.718 191.915 274.586 191.109 272.389 188.947C270.571 187.167 269.711 184.371 270.145 181.656C270.615 178.766 272.462 176.322 275.221 174.96C275.744 174.696 276.298 174.492 276.839 174.347C280.425 173.386 283.943 175.014 285.61 178.397C287.066 181.407 287.263 184.257 286.189 186.645Z" fill="#4E445C" fill-opacity="0.12"/>
<path d="M348.701 108C346.579 108.9 344.376 114.867 344.485 117.492C344.515 118.12 345.032 118.603 345.663 118.586C346.291 118.556 346.774 118.04 346.757 117.408C346.669 115.221 348.367 111.448 349.304 110.354C351.739 113.406 355.102 122.346 355.054 124.128C352.819 123.884 351.662 124.622 350.541 125.338C350.294 125.5 350.031 125.654 349.755 125.811C349.216 126.121 349.014 126.811 349.324 127.35C349.585 127.805 350.113 128.023 350.603 127.892C350.693 127.868 350.78 127.831 350.863 127.781C351.175 127.6 351.473 127.424 351.755 127.238C352.745 126.599 353.408 126.186 354.956 126.394C355.872 126.508 356.643 126.135 357.031 125.368C358.702 122.059 351.664 109.514 350.569 108.37C350.085 107.85 349.37 107.71 348.701 108Z" fill="#4E445C" fill-opacity="0.12"/>
<path d="M240.701 182.054C240.005 183.429 239.398 184.725 238.992 185.581C238.26 184.809 236.656 182.64 233.708 176.643C233.493 176.203 233.286 175.789 233.088 175.413C232.616 174.476 232.013 173.31 232.054 173.05C232.212 172.967 232.989 172.772 236.102 173.611C236.714 173.778 237.336 173.418 237.491 172.81C237.659 172.198 237.299 171.576 236.691 171.421C233.71 170.616 232.076 170.501 231.052 171.011C230.319 171.373 230.017 171.896 229.897 172.274C229.515 173.427 230.171 174.688 231.068 176.438C231.266 176.814 231.467 177.202 231.692 177.681C232.121 178.561 233.449 181.247 234.878 183.642C236.685 186.669 238.226 188.605 239.748 188.198C239.851 188.17 239.964 188.126 240.073 188.069C240.317 187.948 240.502 187.761 240.614 187.509C240.624 187.493 241.554 185.392 242.742 183.069C243.021 182.511 242.795 181.824 242.237 181.546C241.666 181.27 240.98 181.496 240.701 182.054Z" fill="#4E445C" fill-opacity="0.12"/>
<path d="M539.022 393.138C529.643 398.111 521.575 402.36 514.358 406.118C513.8 406.406 513.585 407.1 513.869 407.645C514.123 408.13 514.668 408.357 515.171 408.223C515.248 408.202 515.322 408.168 515.396 408.135C522.626 404.373 530.693 400.124 540.086 395.147C540.645 394.859 540.847 394.169 540.559 393.61C540.271 393.052 539.581 392.85 539.022 393.138Z" fill="#4E445C" fill-opacity="0.12"/>
<path d="M570.745 352.652C548.894 308.194 537.364 311.229 504.216 327.519C438.532 359.812 438.248 365.611 455.809 401.335C463.639 417.248 467.983 424.64 473.045 426.352C474.745 426.919 476.445 426.865 478.315 426.364C480.623 425.745 483.195 424.462 486.362 422.867L486.619 422.743C487.181 422.468 487.412 421.784 487.125 421.225C486.85 420.663 486.153 420.435 485.607 420.719L485.35 420.843C479.938 423.551 476.685 425.183 473.77 424.209C469.516 422.778 465.069 415.054 457.84 400.349C440.892 365.884 441.186 361.05 505.209 329.575C535.473 314.693 546.795 309.13 568.696 353.671C569.692 355.685 570.6 357.474 571.42 359.092C577.516 371.06 578.012 372.033 567.61 377.889C567.059 378.202 566.869 378.889 567.18 379.428C567.493 379.98 568.193 380.165 568.719 379.859C581.019 372.941 579.562 370.083 573.437 358.055C572.629 356.433 571.725 354.657 570.745 352.652Z" fill="#4E445C" fill-opacity="0.12"/>
<path d="M550.961 324.103C543.7 330.845 533.467 337.485 520.558 343.833C513.855 347.135 506.689 350.106 499.762 352.985C492.773 355.894 485.546 358.895 478.704 362.249C465.442 368.774 455.903 375.629 448.699 383.821C448.286 384.291 448.327 385.012 448.797 385.425C449.09 385.692 449.483 385.767 449.844 385.67C450.05 385.615 450.252 385.492 450.402 385.327C457.402 377.356 466.724 370.67 479.707 364.288C486.472 360.955 493.676 357.974 500.626 355.076C507.579 352.19 514.78 349.196 521.545 345.863C534.65 339.421 545.055 332.652 552.482 325.755C552.947 325.326 552.964 324.617 552.536 324.151C552.139 323.704 551.414 323.678 550.961 324.103Z" fill="#4E445C" fill-opacity="0.12"/>
<path d="M491.315 387.026C488.38 382.366 485.348 377.553 482.762 372.648C482.622 372.381 482.372 372.172 482.073 372.086C481.773 372 481.466 372.041 481.187 372.185C477.049 374.538 472.751 376.809 468.597 379C466.924 379.877 465.255 380.767 463.586 381.656C463.319 381.797 463.123 382.043 463.034 382.329C462.948 382.629 462.989 382.936 463.129 383.202C466.272 388.843 468.793 394.125 471.459 399.741C472.161 401.225 472.879 402.719 473.624 404.261C473.755 404.544 474.008 404.767 474.307 404.852C474.515 404.907 474.726 404.92 474.933 404.864C475.036 404.837 475.123 404.8 475.206 404.75C478.423 402.879 481.745 401.09 484.957 399.359C488.039 397.704 491.226 395.979 494.375 394.167C494.638 394.014 494.832 393.755 494.904 393.459C494.977 393.163 494.933 392.843 494.767 392.583C493.647 390.727 492.489 388.881 491.315 387.026ZM483.897 397.362C481.021 398.907 478.049 400.505 475.14 402.183C474.583 401.033 474.043 399.892 473.509 398.777C470.981 393.469 468.587 388.457 465.667 383.13C466.999 382.428 468.319 381.729 469.651 381.026C473.49 379.002 477.439 376.922 481.295 374.755C483.792 379.38 486.631 383.885 489.376 388.25C490.334 389.763 491.279 391.279 492.228 392.808C489.456 394.38 486.641 395.894 483.897 397.362Z" fill="#4E445C" fill-opacity="0.12"/>
<path d="M523.069 370.321C520.134 365.662 517.099 360.835 514.51 355.917C514.369 355.651 514.12 355.441 513.82 355.356C513.521 355.27 513.214 355.311 512.934 355.455C508.77 357.815 504.459 360.089 500.283 362.3C498.623 363.173 496.977 364.043 495.32 364.929C495.054 365.07 494.857 365.316 494.768 365.603C494.682 365.902 494.723 366.209 494.864 366.475C498.006 372.116 500.531 377.411 503.206 383.011C503.908 384.495 504.626 385.989 505.368 387.518C505.499 387.801 505.752 388.023 506.051 388.109C506.259 388.164 506.47 388.176 506.676 388.121C506.78 388.093 506.866 388.056 506.95 388.006C510.18 386.132 513.501 384.343 516.714 382.612C519.795 380.957 522.973 379.248 526.106 377.427C526.369 377.274 526.563 377.015 526.635 376.719C526.708 376.423 526.664 376.103 526.497 375.844C525.401 374.023 524.23 372.18 523.069 370.321ZM515.661 380.641C512.772 382.189 509.813 383.784 506.891 385.465C506.334 384.315 505.797 383.187 505.26 382.06C502.732 376.752 500.335 371.727 497.418 366.413C498.724 365.717 500.031 365.022 501.354 364.336C505.206 362.308 509.177 360.208 513.046 358.037C515.543 362.662 518.385 367.181 521.146 371.555C522.105 373.068 523.046 374.571 523.979 376.09C521.204 377.649 518.389 379.164 515.661 380.641Z" fill="#4E445C" fill-opacity="0.12"/>
<path d="M554.097 353.243C551.162 348.584 548.127 343.757 545.541 338.852C545.4 338.586 545.151 338.376 544.851 338.291C544.552 338.205 544.245 338.246 543.966 338.39C539.802 340.75 535.49 343.024 531.314 345.235C529.654 346.109 528.008 346.978 526.352 347.864C526.085 348.005 525.888 348.251 525.799 348.538C525.714 348.837 525.754 349.144 525.895 349.41C529.037 355.051 531.562 360.346 534.237 365.946C534.939 367.43 535.657 368.924 536.399 370.453C536.53 370.736 536.783 370.958 537.082 371.044C537.291 371.099 537.501 371.111 537.708 371.056C537.811 371.029 537.898 370.991 537.981 370.941C541.211 369.067 544.533 367.279 547.745 365.547C550.827 363.892 554.004 362.184 557.138 360.363C557.401 360.209 557.594 359.95 557.667 359.654C557.739 359.358 557.695 359.038 557.529 358.779C556.429 356.945 555.268 355.086 554.097 353.243ZM546.701 363.56C543.813 365.108 540.854 366.702 537.931 368.384C537.375 367.234 536.837 366.106 536.3 364.978C533.772 359.671 531.375 354.646 528.459 349.332C529.765 348.636 531.084 347.937 532.394 347.254C536.246 345.227 540.217 343.126 544.087 340.956C546.584 345.581 549.425 350.1 552.184 354.461C553.142 355.973 554.087 357.489 555.032 359.005C552.244 360.568 549.429 362.082 546.701 363.56Z" fill="#4E445C" fill-opacity="0.12"/>
<path d="M549.782 369.176C548.711 369.462 547.655 369.856 546.618 370.369C534.733 376.207 534.722 386.895 538.672 394.931C542.405 402.515 550.255 406.175 558.238 404.036C559.682 403.649 561.13 403.068 562.536 402.332C572.156 397.225 573.374 386.808 569.604 379.138C565.691 371.188 557.545 367.095 549.782 369.176ZM561.472 400.322C560.214 400.991 558.94 401.498 557.663 401.84C550.764 403.689 543.954 400.51 540.725 393.925C536.232 384.79 538.817 376.744 547.634 372.405C548.536 371.956 549.453 371.613 550.382 371.364C557.088 369.568 564.151 373.176 567.578 380.137C570.844 386.809 569.808 395.891 561.472 400.322Z" fill="#4E445C" fill-opacity="0.12"/>
<path d="M551.11 374.736C550.426 374.92 549.734 375.174 549.076 375.503C545.645 377.196 543.339 380.246 542.762 383.87C542.202 387.352 543.284 390.821 545.661 393.142C548.45 395.865 552.386 396.883 556.19 395.864C559.324 395.024 561.86 392.935 563.119 390.151C564.074 388.043 564.744 384.56 562.491 379.966C560.351 375.591 555.765 373.489 551.11 374.736ZM561.06 389.224C560.079 391.394 558.082 393.021 555.606 393.684C552.589 394.493 549.456 393.687 547.26 391.525C545.442 389.746 544.582 386.949 545.016 384.234C545.485 381.344 547.332 378.9 550.091 377.539C550.615 377.274 551.168 377.07 551.71 376.925C555.295 375.965 558.814 377.593 560.48 380.975C561.937 383.985 562.146 386.832 561.06 389.224Z" fill="#4E445C" fill-opacity="0.12"/>
<path d="M497.114 398.506C496.043 398.793 494.988 399.187 493.95 399.7C482.065 405.538 482.054 416.226 486.004 424.262C489.737 431.846 497.6 435.503 505.57 433.367C507.014 432.98 508.462 432.399 509.868 431.663C519.488 426.555 520.706 416.139 516.936 408.468C513.023 400.519 504.877 396.426 497.114 398.506ZM508.804 429.653C507.546 430.322 506.272 430.829 504.995 431.171C498.096 433.02 491.299 429.837 488.057 423.256C483.564 414.121 486.149 406.075 494.966 401.736C495.868 401.287 496.785 400.944 497.714 400.695C504.42 398.898 511.483 402.507 514.91 409.468C518.18 416.152 517.14 425.222 508.804 429.653Z" fill="#4E445C" fill-opacity="0.12"/>
<path d="M498.453 404.077C497.77 404.26 497.078 404.514 496.42 404.843C492.989 406.536 490.683 409.587 490.106 413.211C489.546 416.692 490.627 420.162 493.005 422.483C495.794 425.205 499.73 426.224 503.534 425.204C506.668 424.365 509.191 422.278 510.462 419.491C511.418 417.383 512.088 413.9 509.834 409.307C507.682 404.935 503.109 402.829 498.453 404.077ZM508.4 418.551C507.419 420.721 505.423 422.348 502.947 423.012C499.929 423.82 496.796 423.015 494.6 420.853C492.782 419.073 491.922 416.276 492.356 413.562C492.826 410.671 494.673 408.227 497.432 406.866C497.955 406.602 498.509 406.398 499.05 406.253C502.636 405.292 506.154 406.92 507.821 410.302C509.277 413.313 509.474 416.162 508.4 418.551Z" fill="#4E445C" fill-opacity="0.12"/>
<path d="M570.912 339.906C568.79 340.806 566.587 346.773 566.696 349.398C566.726 350.025 567.243 350.509 567.874 350.492C568.502 350.462 568.985 349.945 568.968 349.314C568.88 347.126 570.578 343.354 571.515 342.26C573.95 345.312 577.313 354.252 577.265 356.034C575.03 355.79 573.873 356.528 572.752 357.243C572.505 357.406 572.242 357.56 571.966 357.716C571.427 358.027 571.225 358.717 571.535 359.256C571.796 359.711 572.324 359.929 572.814 359.798C572.904 359.773 572.991 359.736 573.074 359.686C573.386 359.506 573.684 359.33 573.966 359.143C574.956 358.505 575.619 358.092 577.167 358.299C578.083 358.413 578.854 358.041 579.242 357.273C580.913 353.965 573.875 341.42 572.78 340.276C572.295 339.756 571.581 339.616 570.912 339.906Z" fill="#4E445C" fill-opacity="0.12"/>
<path d="M462.912 413.96C462.216 415.335 461.609 416.631 461.203 417.486C460.471 416.715 458.867 414.546 455.919 408.549C455.704 408.109 455.497 407.695 455.299 407.319C454.827 406.381 454.224 405.216 454.265 404.956C454.423 404.873 455.2 404.678 458.313 405.516C458.925 405.684 459.547 405.324 459.702 404.716C459.87 404.104 459.51 403.482 458.901 403.327C455.921 402.522 454.287 402.407 453.263 402.916C452.53 403.279 452.228 403.802 452.108 404.18C451.726 405.332 452.382 406.594 453.279 408.344C453.477 408.72 453.678 409.108 453.903 409.587C454.332 410.467 455.66 413.152 457.089 415.548C458.896 418.574 460.437 420.511 461.959 420.103C462.062 420.076 462.175 420.032 462.284 419.975C462.528 419.854 462.713 419.666 462.825 419.415C462.835 419.399 463.764 417.297 464.953 414.975C465.232 414.416 465.006 413.73 464.448 413.451C463.876 413.176 463.19 413.401 462.912 413.96Z" fill="#4E445C" fill-opacity="0.12"/>
<path d="M1475.02 735.138C1465.64 740.111 1457.58 744.36 1450.36 748.118C1449.8 748.406 1449.58 749.1 1449.87 749.645C1450.12 750.13 1450.67 750.357 1451.17 750.223C1451.25 750.202 1451.32 750.168 1451.4 750.135C1458.63 746.373 1466.69 742.124 1476.09 737.147C1476.64 736.859 1476.85 736.169 1476.56 735.61C1476.27 735.052 1475.58 734.85 1475.02 735.138Z" fill="#4E445C" fill-opacity="0.12"/>
<path d="M1506.75 694.652C1484.89 650.194 1473.36 653.229 1440.22 669.519C1374.53 701.812 1374.25 707.611 1391.81 743.335C1399.64 759.248 1403.98 766.64 1409.05 768.352C1410.75 768.919 1412.44 768.865 1414.31 768.364C1416.62 767.745 1419.2 766.462 1422.36 764.867L1422.62 764.743C1423.18 764.468 1423.41 763.784 1423.12 763.225C1422.85 762.663 1422.15 762.435 1421.61 762.719L1421.35 762.843C1415.94 765.551 1412.69 767.183 1409.77 766.209C1405.52 764.778 1401.07 757.054 1393.84 742.349C1376.89 707.884 1377.19 703.05 1441.21 671.575C1471.47 656.693 1482.8 651.13 1504.7 695.671C1505.69 697.685 1506.6 699.474 1507.42 701.092C1513.52 713.06 1514.01 714.033 1503.61 719.889C1503.06 720.202 1502.87 720.889 1503.18 721.428C1503.49 721.98 1504.19 722.165 1504.72 721.859C1517.02 714.941 1515.56 712.083 1509.44 700.055C1508.63 698.433 1507.72 696.657 1506.75 694.652Z" fill="#4E445C" fill-opacity="0.12"/>
<path d="M1486.96 666.103C1479.7 672.845 1469.47 679.485 1456.56 685.833C1449.85 689.135 1442.69 692.106 1435.76 694.985C1428.77 697.894 1421.55 700.895 1414.7 704.249C1401.44 710.774 1391.9 717.629 1384.7 725.821C1384.29 726.291 1384.33 727.012 1384.8 727.425C1385.09 727.692 1385.48 727.767 1385.84 727.67C1386.05 727.615 1386.25 727.492 1386.4 727.327C1393.4 719.356 1402.72 712.67 1415.71 706.288C1422.47 702.955 1429.68 699.974 1436.63 697.076C1443.58 694.19 1450.78 691.196 1457.54 687.863C1470.65 681.421 1481.05 674.652 1488.48 667.755C1488.95 667.326 1488.96 666.617 1488.54 666.151C1488.14 665.704 1487.41 665.678 1486.96 666.103Z" fill="#4E445C" fill-opacity="0.12"/>
<path d="M1427.31 729.026C1424.38 724.366 1421.35 719.553 1418.76 714.648C1418.62 714.381 1418.37 714.172 1418.07 714.086C1417.77 714 1417.47 714.041 1417.19 714.185C1413.05 716.538 1408.75 718.809 1404.6 721C1402.92 721.877 1401.26 722.767 1399.59 723.656C1399.32 723.797 1399.12 724.043 1399.03 724.329C1398.95 724.629 1398.99 724.936 1399.13 725.202C1402.27 730.843 1404.79 736.125 1407.46 741.741C1408.16 743.225 1408.88 744.719 1409.62 746.261C1409.75 746.544 1410.01 746.767 1410.31 746.852C1410.52 746.907 1410.73 746.92 1410.93 746.864C1411.04 746.837 1411.12 746.8 1411.21 746.75C1414.42 744.879 1417.74 743.09 1420.96 741.359C1424.04 739.704 1427.23 737.979 1430.38 736.167C1430.64 736.014 1430.83 735.755 1430.9 735.459C1430.98 735.163 1430.93 734.843 1430.77 734.583C1429.65 732.727 1428.49 730.881 1427.31 729.026ZM1419.9 739.362C1417.02 740.907 1414.05 742.505 1411.14 744.183C1410.58 743.033 1410.04 741.892 1409.51 740.777C1406.98 735.469 1404.59 730.457 1401.67 725.13C1403 724.428 1404.32 723.729 1405.65 723.026C1409.49 721.002 1413.44 718.922 1417.3 716.755C1419.79 721.38 1422.63 725.885 1425.38 730.25C1426.33 731.763 1427.28 733.279 1428.23 734.808C1425.46 736.38 1422.64 737.894 1419.9 739.362Z" fill="#4E445C" fill-opacity="0.12"/>
<path d="M1459.07 712.321C1456.13 707.662 1453.1 702.835 1450.51 697.917C1450.37 697.651 1450.12 697.441 1449.82 697.356C1449.52 697.27 1449.21 697.311 1448.93 697.455C1444.77 699.815 1440.46 702.089 1436.28 704.3C1434.62 705.173 1432.98 706.043 1431.32 706.929C1431.05 707.07 1430.86 707.316 1430.77 707.603C1430.68 707.902 1430.72 708.209 1430.86 708.475C1434.01 714.116 1436.53 719.411 1439.21 725.011C1439.91 726.495 1440.63 727.989 1441.37 729.518C1441.5 729.801 1441.75 730.023 1442.05 730.109C1442.26 730.164 1442.47 730.176 1442.68 730.121C1442.78 730.093 1442.87 730.056 1442.95 730.006C1446.18 728.132 1449.5 726.343 1452.71 724.612C1455.8 722.957 1458.97 721.248 1462.11 719.427C1462.37 719.274 1462.56 719.015 1462.64 718.719C1462.71 718.423 1462.66 718.103 1462.5 717.844C1461.4 716.023 1460.23 714.18 1459.07 712.321ZM1451.66 722.641C1448.77 724.189 1445.81 725.784 1442.89 727.465C1442.33 726.315 1441.8 725.187 1441.26 724.06C1438.73 718.752 1436.33 713.727 1433.42 708.413C1434.72 707.717 1436.03 707.022 1437.35 706.336C1441.21 704.308 1445.18 702.208 1449.05 700.037C1451.54 704.662 1454.38 709.181 1457.15 713.555C1458.1 715.068 1459.05 716.571 1459.98 718.09C1457.2 719.649 1454.39 721.164 1451.66 722.641Z" fill="#4E445C" fill-opacity="0.12"/>
<path d="M1490.1 695.243C1487.16 690.584 1484.13 685.757 1481.54 680.852C1481.4 680.586 1481.15 680.376 1480.85 680.291C1480.55 680.205 1480.25 680.246 1479.97 680.39C1475.8 682.75 1471.49 685.024 1467.31 687.235C1465.65 688.109 1464.01 688.978 1462.35 689.864C1462.09 690.005 1461.89 690.251 1461.8 690.538C1461.71 690.837 1461.75 691.144 1461.89 691.41C1465.04 697.051 1467.56 702.346 1470.24 707.946C1470.94 709.43 1471.66 710.924 1472.4 712.453C1472.53 712.736 1472.78 712.958 1473.08 713.044C1473.29 713.099 1473.5 713.111 1473.71 713.056C1473.81 713.029 1473.9 712.991 1473.98 712.941C1477.21 711.067 1480.53 709.279 1483.75 707.547C1486.83 705.892 1490 704.184 1493.14 702.363C1493.4 702.209 1493.59 701.95 1493.67 701.654C1493.74 701.358 1493.7 701.038 1493.53 700.779C1492.43 698.945 1491.27 697.086 1490.1 695.243ZM1482.7 705.56C1479.81 707.108 1476.85 708.702 1473.93 710.384C1473.37 709.234 1472.84 708.106 1472.3 706.978C1469.77 701.671 1467.38 696.646 1464.46 691.332C1465.77 690.636 1467.08 689.937 1468.39 689.254C1472.25 687.227 1476.22 685.126 1480.09 682.956C1482.58 687.581 1485.43 692.1 1488.18 696.461C1489.14 697.973 1490.09 699.489 1491.03 701.005C1488.24 702.568 1485.43 704.082 1482.7 705.56Z" fill="#4E445C" fill-opacity="0.12"/>
<path d="M1485.78 711.176C1484.71 711.462 1483.66 711.856 1482.62 712.369C1470.73 718.207 1470.72 728.895 1474.67 736.931C1478.4 744.515 1486.25 748.175 1494.24 746.036C1495.68 745.649 1497.13 745.068 1498.54 744.332C1508.16 739.225 1509.37 728.808 1505.6 721.138C1501.69 713.188 1493.55 709.095 1485.78 711.176ZM1497.47 742.322C1496.21 742.991 1494.94 743.498 1493.66 743.84C1486.76 745.689 1479.95 742.51 1476.72 735.925C1472.23 726.79 1474.82 718.744 1483.63 714.405C1484.54 713.956 1485.45 713.613 1486.38 713.364C1493.09 711.568 1500.15 715.176 1503.58 722.137C1506.84 728.809 1505.81 737.891 1497.47 742.322Z" fill="#4E445C" fill-opacity="0.12"/>
<path d="M1487.11 716.736C1486.43 716.92 1485.73 717.174 1485.08 717.503C1481.65 719.196 1479.34 722.246 1478.76 725.87C1478.2 729.352 1479.28 732.821 1481.66 735.142C1484.45 737.865 1488.39 738.883 1492.19 737.864C1495.32 737.024 1497.86 734.935 1499.12 732.151C1500.07 730.043 1500.74 726.56 1498.49 721.966C1496.35 717.591 1491.77 715.489 1487.11 716.736ZM1497.06 731.224C1496.08 733.394 1494.08 735.021 1491.61 735.684C1488.59 736.493 1485.46 735.687 1483.26 733.525C1481.44 731.746 1480.58 728.949 1481.02 726.234C1481.49 723.344 1483.33 720.9 1486.09 719.539C1486.61 719.274 1487.17 719.07 1487.71 718.925C1491.3 717.965 1494.81 719.593 1496.48 722.975C1497.94 725.985 1498.15 728.832 1497.06 731.224Z" fill="#4E445C" fill-opacity="0.12"/>
<path d="M1433.11 740.506C1432.04 740.793 1430.99 741.187 1429.95 741.7C1418.07 747.538 1418.05 758.226 1422 766.262C1425.74 773.846 1433.6 777.503 1441.57 775.367C1443.01 774.98 1444.46 774.399 1445.87 773.663C1455.49 768.555 1456.71 758.139 1452.94 750.468C1449.02 742.519 1440.88 738.426 1433.11 740.506ZM1444.8 771.653C1443.55 772.322 1442.27 772.829 1441 773.171C1434.1 775.02 1427.3 771.837 1424.06 765.256C1419.56 756.121 1422.15 748.075 1430.97 743.736C1431.87 743.287 1432.79 742.944 1433.71 742.695C1440.42 740.898 1447.48 744.507 1450.91 751.468C1454.18 758.152 1453.14 767.222 1444.8 771.653Z" fill="#4E445C" fill-opacity="0.12"/>
<path d="M1434.45 746.077C1433.77 746.26 1433.08 746.514 1432.42 746.843C1428.99 748.536 1426.68 751.587 1426.11 755.211C1425.55 758.692 1426.63 762.162 1429 764.483C1431.79 767.205 1435.73 768.224 1439.53 767.204C1442.67 766.365 1445.19 764.278 1446.46 761.491C1447.42 759.383 1448.09 755.9 1445.83 751.307C1443.68 746.935 1439.11 744.829 1434.45 746.077ZM1444.4 760.551C1443.42 762.721 1441.42 764.348 1438.95 765.012C1435.93 765.82 1432.8 765.015 1430.6 762.853C1428.78 761.073 1427.92 758.276 1428.36 755.562C1428.83 752.671 1430.67 750.227 1433.43 748.866C1433.96 748.602 1434.51 748.398 1435.05 748.253C1438.64 747.292 1442.15 748.92 1443.82 752.302C1445.28 755.313 1445.47 758.162 1444.4 760.551Z" fill="#4E445C" fill-opacity="0.12"/>
<path d="M1506.91 681.906C1504.79 682.806 1502.59 688.773 1502.7 691.398C1502.73 692.025 1503.24 692.509 1503.87 692.492C1504.5 692.462 1504.99 691.945 1504.97 691.314C1504.88 689.126 1506.58 685.354 1507.51 684.26C1509.95 687.312 1513.31 696.252 1513.27 698.034C1511.03 697.79 1509.87 698.528 1508.75 699.243C1508.5 699.406 1508.24 699.56 1507.97 699.716C1507.43 700.027 1507.23 700.717 1507.54 701.256C1507.8 701.711 1508.32 701.929 1508.81 701.798C1508.9 701.773 1508.99 701.736 1509.07 701.686C1509.39 701.506 1509.68 701.33 1509.97 701.143C1510.96 700.505 1511.62 700.092 1513.17 700.299C1514.08 700.413 1514.85 700.041 1515.24 699.273C1516.91 695.965 1509.87 683.42 1508.78 682.276C1508.3 681.756 1507.58 681.616 1506.91 681.906Z" fill="#4E445C" fill-opacity="0.12"/>
<path d="M1398.91 755.96C1398.22 757.335 1397.61 758.631 1397.2 759.486C1396.47 758.715 1394.87 756.546 1391.92 750.549C1391.7 750.109 1391.5 749.695 1391.3 749.319C1390.83 748.381 1390.22 747.216 1390.27 746.956C1390.42 746.873 1391.2 746.678 1394.31 747.516C1394.92 747.684 1395.55 747.324 1395.7 746.716C1395.87 746.104 1395.51 745.482 1394.9 745.327C1391.92 744.522 1390.29 744.407 1389.26 744.916C1388.53 745.279 1388.23 745.802 1388.11 746.18C1387.73 747.332 1388.38 748.594 1389.28 750.344C1389.48 750.72 1389.68 751.108 1389.9 751.587C1390.33 752.467 1391.66 755.152 1393.09 757.548C1394.9 760.574 1396.44 762.511 1397.96 762.103C1398.06 762.076 1398.17 762.032 1398.28 761.975C1398.53 761.854 1398.71 761.666 1398.83 761.415C1398.83 761.399 1399.76 759.297 1400.95 756.975C1401.23 756.416 1401.01 755.73 1400.45 755.451C1399.88 755.176 1399.19 755.401 1398.91 755.96Z" fill="#4E445C" fill-opacity="0.12"/>
<path d="M1145.19 115.499C1136.19 109.863 1128.48 105.001 1121.62 100.63C1121.09 100.29 1120.38 100.45 1120.05 100.97C1119.76 101.432 1119.83 102.017 1120.2 102.386C1120.26 102.442 1120.32 102.489 1120.39 102.537C1127.26 106.917 1134.98 111.779 1143.98 117.425C1144.51 117.765 1145.21 117.595 1145.55 117.066C1145.89 116.537 1145.72 115.839 1145.19 115.499Z" fill="#4E445C" fill-opacity="0.12"/>
<path d="M1196.11 122.73C1223.69 81.5775 1215.3 73.1091 1184.61 52.5471C1123.81 11.8101 1118.64 14.463 1096.48 47.534C1086.62 62.2711 1082.39 69.7293 1083.44 74.9689C1083.8 76.7249 1084.69 78.1693 1086.06 79.5383C1087.75 81.2282 1090.15 82.8142 1093.11 84.759L1093.35 84.9195C1093.87 85.2688 1094.58 85.1272 1094.92 84.5985C1095.27 84.0793 1095.12 83.3618 1094.6 83.0314L1094.36 82.8709C1089.31 79.5383 1086.27 77.5368 1085.66 74.5252C1084.77 70.1258 1089.23 62.4127 1098.35 48.7991C1119.73 16.8893 1124.06 14.7273 1183.33 54.4352C1211.35 73.2035 1221.83 80.2274 1194.21 121.465C1192.96 123.334 1191.86 125.015 1190.87 126.534C1183.56 137.797 1182.96 138.713 1172.69 132.633C1172.14 132.312 1171.45 132.492 1171.14 133.03C1170.82 133.577 1171.01 134.276 1171.54 134.578C1183.68 141.772 1185.43 139.081 1192.78 127.762C1193.78 126.251 1194.87 124.58 1196.11 122.73Z" fill="#4E445C" fill-opacity="0.12"/>
<path d="M1210.94 91.3206C1201.47 88.4034 1190.61 82.8616 1178.66 74.8559C1172.44 70.7019 1166.29 65.9815 1160.33 61.4216C1154.32 56.824 1148.11 52.0658 1141.78 47.8174C1129.5 39.5945 1118.79 34.7609 1108.1 32.6178C1107.48 32.4951 1106.88 32.8916 1106.76 33.5052C1106.67 33.8923 1106.8 34.2699 1107.07 34.5343C1107.22 34.6853 1107.43 34.7986 1107.64 34.8458C1118.05 36.9228 1128.5 41.6526 1140.52 49.7056C1146.78 53.8973 1152.97 58.646 1158.95 63.2154C1164.93 67.7941 1171.12 72.5334 1177.39 76.7251C1189.52 84.8537 1200.59 90.4804 1210.27 93.4636C1210.88 93.6525 1211.5 93.3126 1211.69 92.7084C1211.88 92.1419 1211.54 91.5 1210.94 91.3206Z" fill="#4E445C" fill-opacity="0.12"/>
<path d="M1126.63 71.1267C1129.2 66.2553 1131.85 61.2233 1134.8 56.5313C1134.96 56.2764 1135.02 55.9554 1134.95 55.6533C1134.87 55.3512 1134.68 55.1057 1134.42 54.9358C1130.31 52.5284 1126.19 49.9416 1122.22 47.4398C1120.62 46.4296 1119.02 45.4289 1117.41 44.4282C1117.16 44.2677 1116.85 44.2205 1116.55 44.2866C1116.25 44.3621 1116.01 44.5509 1115.85 44.8058C1112.53 50.3476 1109.22 55.1718 1105.69 60.2887C1104.75 61.6387 1103.82 63.0076 1102.86 64.4238C1102.68 64.6787 1102.61 65.0091 1102.69 65.3112C1102.74 65.5189 1102.84 65.7077 1102.99 65.8588C1103.06 65.9343 1103.14 65.9909 1103.22 66.0381C1106.45 67.8885 1109.66 69.8711 1112.77 71.7876C1115.74 73.6285 1118.83 75.5261 1121.97 77.3482C1122.24 77.4993 1122.56 77.537 1122.85 77.452C1123.14 77.3671 1123.4 77.1688 1123.54 76.895C1124.59 74.9974 1125.61 73.0715 1126.63 71.1267ZM1113.97 69.8711C1111.19 68.1529 1108.32 66.378 1105.41 64.6976C1106.13 63.6402 1106.85 62.6017 1107.55 61.5821C1110.88 56.739 1114.02 52.1602 1117.18 46.9678C1118.45 47.7702 1119.72 48.5633 1120.99 49.3657C1124.66 51.6787 1128.44 54.0578 1132.25 56.3142C1129.49 60.7891 1127.01 65.5 1124.6 70.0599C1123.77 71.646 1122.93 73.2226 1122.08 74.8086C1119.33 73.1943 1116.61 71.5138 1113.97 69.8711Z" fill="#4E445C" fill-opacity="0.12"/>
<path d="M1156.97 90.2729C1159.54 85.4014 1162.2 80.36 1165.17 75.6585C1165.33 75.4036 1165.39 75.0826 1165.31 74.7805C1165.23 74.4784 1165.05 74.233 1164.78 74.063C1160.66 71.6367 1156.53 69.0405 1152.53 66.5293C1150.94 65.5286 1149.36 64.5373 1147.77 63.546C1147.51 63.3855 1147.2 63.3383 1146.91 63.4044C1146.61 63.4799 1146.36 63.6687 1146.2 63.9236C1142.89 69.4654 1139.56 74.2991 1136.05 79.416C1135.12 80.766 1134.18 82.1349 1133.23 83.5416C1133.05 83.7965 1132.98 84.1269 1133.06 84.429C1133.12 84.6367 1133.21 84.8255 1133.36 84.9766C1133.44 85.0521 1133.51 85.1088 1133.6 85.156C1136.84 87.0158 1140.05 88.9983 1143.15 90.9148C1146.13 92.7558 1149.19 94.6534 1152.34 96.4566C1152.6 96.6076 1152.92 96.6454 1153.22 96.5604C1153.51 96.4755 1153.76 96.2772 1153.91 96.0034C1154.93 94.1436 1155.94 92.2082 1156.97 90.2729ZM1144.33 89.0172C1141.55 87.2896 1138.69 85.5242 1135.77 83.8343C1136.49 82.7769 1137.2 81.7478 1137.9 80.7188C1141.24 75.8757 1144.39 71.2875 1147.53 66.1045C1148.79 66.8881 1150.04 67.6716 1151.3 68.4741C1154.98 70.7965 1158.79 73.185 1162.6 75.4508C1159.84 79.9258 1157.35 84.6461 1154.94 89.2249C1154.11 90.811 1153.28 92.3782 1152.43 93.9453C1149.69 92.3215 1146.98 90.6411 1144.33 89.0172Z" fill="#4E445C" fill-opacity="0.12"/>
<path d="M1187.28 108.607C1189.84 103.735 1192.51 98.6937 1195.46 94.0017C1195.62 93.7468 1195.68 93.4258 1195.6 93.1237C1195.53 92.8216 1195.34 92.5761 1195.07 92.4062C1190.95 89.9799 1186.82 87.3837 1182.82 84.8724C1181.23 83.8717 1179.66 82.8804 1178.06 81.8891C1177.81 81.7287 1177.5 81.6815 1177.2 81.7475C1176.9 81.8231 1176.66 82.0119 1176.49 82.2668C1173.18 87.8085 1169.86 92.6422 1166.35 97.7591C1165.41 99.1091 1164.48 100.478 1163.52 101.885C1163.34 102.14 1163.28 102.47 1163.35 102.772C1163.41 102.98 1163.5 103.169 1163.66 103.32C1163.73 103.395 1163.81 103.452 1163.89 103.499C1167.13 105.359 1170.34 107.342 1173.45 109.258C1176.42 111.099 1179.49 112.996 1182.63 114.8C1182.9 114.951 1183.22 114.989 1183.51 114.904C1183.8 114.819 1184.06 114.62 1184.2 114.347C1185.24 112.477 1186.27 110.542 1187.28 108.607ZM1174.64 107.36C1171.86 105.633 1169 103.867 1166.08 102.177C1166.8 101.12 1167.51 100.091 1168.22 99.0619C1171.55 94.2188 1174.7 89.6306 1177.84 84.4476C1179.1 85.2312 1180.37 86.0242 1181.61 86.8172C1185.29 89.1397 1189.1 91.5282 1192.91 93.794C1190.16 98.2689 1187.66 102.989 1185.27 107.559C1184.43 109.145 1183.59 110.721 1182.75 112.298C1180.01 110.665 1177.29 108.984 1174.64 107.36Z" fill="#4E445C" fill-opacity="0.12"/>
<path d="M1171.32 112.836C1170.54 112.052 1169.67 111.335 1168.71 110.693C1157.71 103.32 1148.45 108.654 1143.46 116.093C1138.76 123.117 1139.52 131.746 1145.36 137.59C1146.42 138.647 1147.64 139.61 1148.99 140.46C1158.22 146.237 1167.85 142.084 1172.61 134.984C1177.53 127.62 1177.01 118.519 1171.32 112.836ZM1150.19 138.534C1148.99 137.779 1147.91 136.929 1146.97 135.994C1141.92 130.943 1141.27 123.457 1145.36 117.368C1151.02 108.909 1159.29 107.124 1167.45 112.591C1168.29 113.148 1169.05 113.771 1169.73 114.45C1174.64 119.36 1175.04 127.28 1170.73 133.728C1166.58 139.893 1158.2 143.537 1150.19 138.534Z" fill="#4E445C" fill-opacity="0.12"/>
<path d="M1167.17 116.764C1166.67 116.264 1166.1 115.792 1165.49 115.386C1162.31 113.261 1158.51 112.789 1155.08 114.102C1151.79 115.357 1149.32 118.029 1148.5 121.248C1147.54 125.025 1148.63 128.943 1151.41 131.728C1153.71 134.022 1156.78 135.174 1159.82 134.871C1162.13 134.645 1165.48 133.484 1168.33 129.235C1171.05 125.195 1170.58 120.172 1167.17 116.764ZM1159.6 132.625C1157.23 132.861 1154.82 131.945 1153.01 130.132C1150.8 127.923 1149.93 124.808 1150.7 121.824C1151.34 119.36 1153.33 117.217 1155.9 116.235C1158.63 115.197 1161.67 115.574 1164.23 117.283C1164.72 117.604 1165.18 117.982 1165.57 118.378C1168.2 121.003 1168.55 124.864 1166.45 127.999C1164.57 130.765 1162.21 132.37 1159.6 132.625Z" fill="#4E445C" fill-opacity="0.12"/>
<path d="M1119.59 81.8889C1118.8 81.1053 1117.94 80.3878 1116.97 79.7458C1105.97 72.3726 1096.71 77.7066 1091.73 85.1459C1087.03 92.1699 1087.79 100.808 1093.63 106.643C1094.68 107.7 1095.91 108.663 1097.25 109.513C1106.48 115.29 1116.11 111.136 1120.87 104.037C1125.8 96.6731 1125.27 87.5722 1119.59 81.8889ZM1098.46 107.587C1097.25 106.831 1096.17 105.982 1095.24 105.047C1090.19 99.9963 1089.55 92.5192 1093.63 86.4204C1099.29 77.9615 1107.55 76.1772 1115.72 81.6434C1116.56 82.2004 1117.31 82.8235 1117.99 83.5032C1122.9 88.4124 1123.31 96.3332 1118.99 102.781C1114.84 108.956 1106.47 112.59 1098.46 107.587Z" fill="#4E445C" fill-opacity="0.12"/>
<path d="M1115.43 85.8356C1114.93 85.3352 1114.37 84.8632 1113.75 84.4572C1110.57 82.333 1106.78 81.861 1103.35 83.1733C1100.05 84.4289 1097.59 87.1006 1096.77 90.3199C1095.81 94.0963 1096.89 98.0142 1099.68 100.799C1101.97 103.093 1105.04 104.236 1108.09 103.943C1110.39 103.716 1113.74 102.555 1116.59 98.3069C1119.3 94.2568 1118.84 89.2437 1115.43 85.8356ZM1107.87 101.687C1105.5 101.923 1103.09 101.007 1101.28 99.1943C1099.07 96.9851 1098.2 93.8697 1098.98 90.8864C1099.61 88.4224 1101.6 86.2793 1104.17 85.2975C1106.91 84.259 1109.95 84.6366 1112.51 86.3454C1113 86.6664 1113.45 87.044 1113.85 87.4405C1116.47 90.065 1116.82 93.9263 1114.73 97.0607C1112.85 99.8268 1110.48 101.422 1107.87 101.687Z" fill="#4E445C" fill-opacity="0.12"/>
<path d="M1207.23 116.499C1205.39 115.112 1199.12 116.188 1196.91 117.594C1196.38 117.934 1196.22 118.624 1196.55 119.162C1196.89 119.69 1197.58 119.851 1198.11 119.52C1199.97 118.35 1204.08 117.934 1205.5 118.199C1204.07 121.833 1198.01 129.216 1196.44 130.066C1195.54 128.008 1194.32 127.375 1193.14 126.761C1192.88 126.629 1192.61 126.478 1192.34 126.318C1191.8 126.006 1191.1 126.176 1190.79 126.714C1190.52 127.167 1190.6 127.734 1190.96 128.093C1191.02 128.159 1191.1 128.215 1191.19 128.263C1191.5 128.442 1191.8 128.612 1192.1 128.763C1193.15 129.301 1193.84 129.669 1194.43 131.114C1194.79 131.963 1195.5 132.445 1196.36 132.398C1200.06 132.19 1207.4 119.822 1207.85 118.303C1208.06 117.623 1207.82 116.934 1207.23 116.499Z" fill="#4E445C" fill-opacity="0.12"/>
<path d="M1089.1 59.9961C1087.56 60.0811 1086.14 60.2038 1085.19 60.2794C1085.5 59.2598 1086.57 56.7863 1090.29 51.2351C1090.57 50.8291 1090.82 50.4421 1091.05 50.0833C1091.62 49.2053 1092.33 48.1007 1092.58 48.0063C1092.73 48.1007 1093.28 48.6766 1094.12 51.7921C1094.28 52.4057 1094.9 52.7645 1095.5 52.5946C1096.12 52.4341 1096.48 51.811 1096.31 51.2068C1095.51 48.2235 1094.8 46.7507 1093.84 46.1182C1093.16 45.665 1092.56 45.665 1092.17 45.75C1090.98 45.9954 1090.22 47.1944 1089.15 48.8466C1088.92 49.2053 1088.69 49.5735 1088.39 50.0078C1087.84 50.8197 1086.18 53.312 1084.82 55.7478C1083.1 58.8255 1082.19 61.129 1083.31 62.243C1083.38 62.3186 1083.48 62.3941 1083.58 62.4602C1083.81 62.6112 1084.06 62.6773 1084.33 62.649C1084.35 62.649 1086.64 62.4035 1089.24 62.2714C1089.87 62.2336 1090.35 61.6955 1090.31 61.0724C1090.26 60.4398 1089.73 59.9584 1089.1 59.9961Z" fill="#4E445C" fill-opacity="0.12"/>
<path d="M1399.36 357.836C1388.75 357.453 1379.64 357.099 1371.51 356.745C1370.88 356.715 1370.35 357.208 1370.32 357.823C1370.3 358.37 1370.65 358.839 1371.16 358.974C1371.23 358.995 1371.32 359.003 1371.4 359.011C1379.54 359.368 1388.65 359.722 1399.27 360.108C1399.9 360.138 1400.42 359.641 1400.45 359.014C1400.48 358.386 1399.98 357.866 1399.36 357.836Z" fill="#4E445C" fill-opacity="0.12"/>
<path d="M1447.07 338.636C1450.38 289.209 1438.87 286.072 1402.02 283.606C1328.99 278.731 1325.85 283.61 1323.19 323.329C1322.02 341.025 1322.08 349.598 1325.61 353.612C1326.8 354.953 1328.3 355.756 1330.17 356.257C1332.48 356.876 1335.35 357.05 1338.89 357.252L1339.17 357.273C1339.8 357.316 1340.34 356.839 1340.37 356.212C1340.41 355.587 1339.92 355.041 1339.31 355.015L1339.02 354.994C1332.98 354.633 1329.35 354.42 1327.31 352.119C1324.34 348.752 1324.35 339.84 1325.44 323.49C1328 285.169 1330.67 281.13 1401.85 285.883C1435.5 288.127 1448.09 288.97 1444.79 338.494C1444.64 340.736 1444.53 342.739 1444.44 344.551C1443.73 357.963 1443.67 359.054 1431.74 358.924C1431.1 358.92 1430.6 359.42 1430.6 360.042C1430.59 360.677 1431.1 361.187 1431.71 361.184C1445.82 361.344 1445.99 358.141 1446.7 344.661C1446.81 342.852 1446.92 340.862 1447.07 338.636Z" fill="#4E445C" fill-opacity="0.12"/>
<path d="M1444.21 304.019C1434.55 306.228 1422.37 306.862 1408.02 305.904C1400.56 305.413 1392.87 304.403 1385.43 303.432C1377.92 302.457 1370.17 301.443 1362.56 300.926C1347.82 299.946 1336.13 301.113 1325.79 304.605C1325.2 304.806 1324.87 305.451 1325.08 306.044C1325.19 306.422 1325.5 306.683 1325.86 306.78C1326.07 306.835 1326.3 306.829 1326.51 306.761C1336.56 303.358 1347.98 302.229 1362.41 303.194C1369.94 303.69 1377.67 304.71 1385.13 305.675C1392.6 306.652 1400.33 307.66 1407.86 308.156C1422.43 309.13 1434.82 308.47 1444.7 306.211C1445.32 306.072 1445.69 305.466 1445.55 304.848C1445.43 304.263 1444.82 303.877 1444.21 304.019Z" fill="#4E445C" fill-opacity="0.12"/>
<path d="M1361.1 328.689C1360.88 323.186 1360.67 317.502 1360.88 311.961C1360.89 311.66 1360.78 311.354 1360.56 311.13C1360.35 310.906 1360.06 310.788 1359.75 310.773C1354.99 310.741 1350.13 310.559 1345.43 310.38C1343.55 310.303 1341.66 310.238 1339.77 310.174C1339.47 310.163 1339.17 310.278 1338.95 310.481C1338.73 310.698 1338.61 310.984 1338.6 311.285C1338.5 317.741 1338.04 323.576 1337.54 329.773C1337.41 331.409 1337.28 333.062 1337.16 334.77C1337.13 335.08 1337.24 335.399 1337.45 335.623C1337.61 335.775 1337.78 335.891 1337.99 335.946C1338.09 335.974 1338.19 335.985 1338.28 335.984C1342 335.972 1345.78 336.084 1349.42 336.191C1352.92 336.298 1356.54 336.398 1360.18 336.404C1360.48 336.403 1360.78 336.275 1360.99 336.055C1361.2 335.835 1361.32 335.536 1361.31 335.228C1361.27 333.061 1361.19 330.883 1361.1 328.689ZM1349.5 333.931C1346.24 333.831 1342.87 333.729 1339.51 333.728C1339.6 332.453 1339.7 331.195 1339.8 329.963C1340.26 324.102 1340.7 318.565 1340.83 312.492C1342.34 312.549 1343.83 312.604 1345.33 312.661C1349.67 312.828 1354.13 313 1358.55 313.052C1358.4 318.306 1358.61 323.627 1358.8 328.78C1358.88 330.569 1358.94 332.354 1359 334.153C1355.81 334.128 1352.61 334.032 1349.5 333.931Z" fill="#4E445C" fill-opacity="0.12"/>
<path d="M1396.95 330.098C1396.73 324.596 1396.52 318.899 1396.74 313.345C1396.75 313.044 1396.64 312.737 1396.42 312.514C1396.2 312.29 1395.92 312.172 1395.6 312.157C1390.82 312.118 1385.95 311.933 1381.22 311.759C1379.35 311.686 1377.49 311.615 1375.61 311.555C1375.31 311.543 1375.02 311.658 1374.8 311.862C1374.57 312.078 1374.45 312.364 1374.44 312.665C1374.34 319.121 1373.88 324.969 1373.4 331.156C1373.26 332.793 1373.14 334.446 1373.02 336.141C1372.99 336.451 1373.1 336.77 1373.31 336.994C1373.47 337.146 1373.64 337.262 1373.85 337.317C1373.95 337.345 1374.05 337.356 1374.14 337.355C1377.88 337.346 1381.65 337.458 1385.3 337.565C1388.79 337.672 1392.4 337.782 1396.02 337.771C1396.33 337.77 1396.62 337.642 1396.84 337.422C1397.05 337.202 1397.17 336.903 1397.15 336.595C1397.11 334.47 1397.02 332.289 1396.95 330.098ZM1385.37 335.332C1382.09 335.228 1378.73 335.129 1375.36 335.124C1375.46 333.85 1375.55 332.605 1375.65 331.36C1376.12 325.499 1376.55 319.949 1376.69 313.888C1378.16 313.939 1379.64 313.99 1381.13 314.057C1385.48 314.227 1389.97 314.394 1394.41 314.449C1394.26 319.703 1394.46 325.037 1394.66 330.206C1394.74 331.995 1394.8 333.767 1394.85 335.549C1391.67 335.512 1388.47 335.416 1385.37 335.332Z" fill="#4E445C" fill-opacity="0.12"/>
<path d="M1432.36 330.824C1432.15 325.321 1431.93 319.624 1432.15 314.083C1432.16 313.782 1432.05 313.475 1431.83 313.252C1431.61 313.028 1431.33 312.91 1431.01 312.895C1426.23 312.856 1421.36 312.671 1416.63 312.497C1414.76 312.424 1412.9 312.353 1411.02 312.293C1410.72 312.281 1410.43 312.396 1410.21 312.6C1409.98 312.816 1409.86 313.102 1409.85 313.403C1409.75 319.859 1409.29 325.707 1408.81 331.895C1408.67 333.531 1408.55 335.184 1408.43 336.879C1408.4 337.189 1408.51 337.508 1408.72 337.732C1408.88 337.884 1409.05 338 1409.26 338.055C1409.36 338.083 1409.46 338.094 1409.55 338.093C1413.29 338.084 1417.06 338.196 1420.71 338.303C1424.2 338.41 1427.81 338.52 1431.43 338.509C1431.74 338.508 1432.03 338.38 1432.25 338.16C1432.46 337.94 1432.58 337.641 1432.56 337.333C1432.53 335.195 1432.45 333.005 1432.36 330.824ZM1420.8 336.06C1417.52 335.957 1414.16 335.858 1410.79 335.853C1410.88 334.579 1410.98 333.333 1411.08 332.088C1411.54 326.228 1411.98 320.677 1412.11 314.617C1413.59 314.668 1415.08 314.722 1416.56 314.786C1420.91 314.956 1425.4 315.122 1429.83 315.177C1429.68 320.431 1429.89 325.765 1430.09 330.922C1430.17 332.71 1430.23 334.496 1430.29 336.281C1427.09 336.241 1423.9 336.145 1420.8 336.06Z" fill="#4E445C" fill-opacity="0.12"/>
<path d="M1420.66 342.464C1419.59 342.177 1418.48 341.99 1417.32 341.915C1404.11 341.029 1398.76 350.279 1398.16 359.214C1397.6 367.648 1402.57 374.743 1410.55 376.882C1411.99 377.269 1413.54 377.49 1415.12 377.555C1426.01 377.942 1432.27 369.53 1432.84 361.003C1433.43 352.161 1428.42 344.544 1420.66 342.464ZM1415.21 375.283C1413.78 375.233 1412.43 375.035 1411.15 374.693C1404.25 372.845 1399.94 366.687 1400.44 359.369C1401.11 349.211 1407.38 343.536 1417.18 344.187C1418.19 344.249 1419.15 344.411 1420.08 344.66C1426.79 346.457 1431.1 353.113 1430.59 360.855C1430.08 368.266 1424.64 375.613 1415.21 375.283Z" fill="#4E445C" fill-opacity="0.12"/>
<path d="M1419.02 347.942C1418.34 347.759 1417.61 347.634 1416.88 347.589C1413.06 347.34 1409.54 348.829 1407.23 351.679C1405 354.414 1404.2 357.959 1405.1 361.158C1406.16 364.91 1409.06 367.76 1412.86 368.78C1415.99 369.619 1419.23 369.078 1421.72 367.296C1423.6 365.948 1425.92 363.267 1426.27 358.162C1426.6 353.303 1423.68 349.19 1419.02 347.942ZM1420.4 365.464C1418.46 366.853 1415.92 367.264 1413.44 366.6C1410.43 365.791 1408.12 363.528 1407.3 360.557C1406.61 358.107 1407.26 355.255 1409 353.121C1410.85 350.852 1413.67 349.659 1416.74 349.86C1417.33 349.893 1417.91 349.993 1418.45 350.138C1422.03 351.099 1424.27 354.268 1424.02 358.03C1423.78 361.365 1422.53 363.935 1420.4 365.464Z" fill="#4E445C" fill-opacity="0.12"/>
<path d="M1360.38 341.531C1359.31 341.244 1358.2 341.057 1357.04 340.982C1343.83 340.096 1338.48 349.346 1337.88 358.281C1337.32 366.715 1342.3 373.814 1350.27 375.949C1351.72 376.336 1353.26 376.556 1354.85 376.622C1365.73 377.009 1371.99 368.597 1372.57 360.07C1373.15 351.228 1368.14 343.611 1360.38 341.531ZM1354.93 374.35C1353.51 374.3 1352.15 374.102 1350.87 373.76C1343.97 371.911 1339.68 365.757 1340.16 358.436C1340.84 348.278 1347.1 342.603 1356.9 343.253C1357.91 343.316 1358.88 343.478 1359.8 343.727C1366.51 345.523 1370.82 352.18 1370.31 359.921C1369.8 367.346 1364.37 374.68 1354.93 374.35Z" fill="#4E445C" fill-opacity="0.12"/>
<path d="M1358.75 347.025C1358.07 346.842 1357.34 346.717 1356.61 346.672C1352.79 346.423 1349.27 347.912 1346.96 350.762C1344.73 353.497 1343.93 357.043 1344.83 360.241C1345.89 363.993 1348.79 366.843 1352.59 367.863C1355.72 368.702 1358.95 368.158 1361.45 366.379C1363.33 365.031 1365.65 362.35 1366 357.245C1366.32 352.383 1363.41 348.273 1358.75 347.025ZM1360.13 364.534C1358.2 365.923 1355.65 366.334 1353.18 365.67C1350.16 364.862 1347.85 362.598 1347.03 359.627C1346.34 357.177 1347 354.325 1348.73 352.191C1350.58 349.923 1353.4 348.73 1356.47 348.93C1357.06 348.963 1357.64 349.063 1358.18 349.208C1361.77 350.169 1364 353.338 1363.75 357.101C1363.51 360.436 1362.26 363.002 1360.13 364.534Z" fill="#4E445C" fill-opacity="0.12"/>
<path d="M1453.59 327.68C1451.3 327.398 1446.41 331.465 1445.19 333.792C1444.9 334.351 1445.11 335.028 1445.66 335.329C1446.22 335.617 1446.9 335.411 1447.2 334.856C1448.22 332.917 1451.58 330.499 1452.93 330.02C1453.52 333.881 1451.96 343.305 1451.03 344.824C1449.21 343.495 1447.84 343.556 1446.51 343.615C1446.22 343.632 1445.91 343.634 1445.6 343.632C1444.97 343.631 1444.45 344.127 1444.45 344.749C1444.45 345.274 1444.8 345.727 1445.29 345.858C1445.38 345.882 1445.47 345.893 1445.57 345.892C1445.93 345.891 1446.28 345.887 1446.61 345.867C1447.79 345.809 1448.57 345.784 1449.81 346.737C1450.54 347.294 1451.4 347.356 1452.12 346.886C1455.22 344.856 1455.4 330.473 1455.02 328.935C1454.86 328.242 1454.31 327.763 1453.59 327.68Z" fill="#4E445C" fill-opacity="0.12"/>
<path d="M1323.03 337.813C1321.74 338.656 1320.57 339.475 1319.79 340.012C1319.54 338.978 1319.24 336.298 1319.68 329.631C1319.72 329.142 1319.74 328.68 1319.76 328.256C1319.82 327.208 1319.88 325.897 1320.05 325.692C1320.22 325.699 1320.99 325.919 1323.27 328.202C1323.72 328.653 1324.44 328.652 1324.87 328.203C1325.33 327.757 1325.33 327.038 1324.88 326.599C1322.7 324.412 1321.34 323.496 1320.2 323.425C1319.38 323.372 1318.86 323.674 1318.57 323.941C1317.66 324.749 1317.6 326.169 1317.5 328.134C1317.48 328.558 1317.46 328.994 1317.42 329.522C1317.35 330.498 1317.16 333.488 1317.2 336.277C1317.25 339.801 1317.61 342.249 1319.14 342.657C1319.24 342.685 1319.36 342.703 1319.48 342.708C1319.75 342.726 1320.01 342.656 1320.23 342.494C1320.25 342.485 1322.1 341.13 1324.29 339.713C1324.81 339.368 1324.96 338.662 1324.62 338.141C1324.26 337.617 1323.55 337.469 1323.03 337.813Z" fill="#4E445C" fill-opacity="0.12"/>
<path d="M1118.22 626.026C1107.61 625.644 1098.5 625.29 1090.37 624.936C1089.74 624.906 1089.21 625.399 1089.18 626.014C1089.16 626.561 1089.52 627.03 1090.02 627.165C1090.1 627.186 1090.18 627.193 1090.26 627.201C1098.4 627.558 1107.51 627.913 1118.14 628.299C1118.76 628.329 1119.28 627.832 1119.31 627.204C1119.34 626.576 1118.85 626.056 1118.22 626.026Z" fill="#4E445C" fill-opacity="0.12"/>
<path d="M1165.93 606.827C1169.24 557.4 1157.74 554.262 1120.88 551.796C1047.85 546.921 1044.71 551.801 1042.06 591.52C1040.88 609.215 1040.95 617.789 1044.47 621.803C1045.66 623.144 1047.16 623.947 1049.03 624.448C1051.34 625.066 1054.21 625.241 1057.75 625.443L1058.03 625.464C1058.66 625.507 1059.2 625.03 1059.23 624.402C1059.27 623.778 1058.78 623.232 1058.17 623.206L1057.88 623.185C1051.84 622.824 1048.21 622.611 1046.17 620.309C1043.21 616.943 1043.22 608.03 1044.31 591.681C1046.86 553.359 1049.53 549.32 1120.72 554.074C1154.37 556.317 1166.95 557.161 1163.65 606.685C1163.51 608.927 1163.4 610.93 1163.3 612.742C1162.59 626.154 1162.54 627.245 1150.6 627.115C1149.97 627.111 1149.46 627.611 1149.46 628.233C1149.45 628.867 1149.97 629.378 1150.58 629.375C1164.69 629.535 1164.85 626.331 1165.56 612.851C1165.68 611.043 1165.78 609.053 1165.93 606.827Z" fill="#4E445C" fill-opacity="0.12"/>
<path d="M1163.08 572.21C1153.42 574.418 1141.24 575.052 1126.88 574.095C1119.42 573.604 1111.73 572.593 1104.3 571.623C1096.79 570.648 1089.03 569.633 1081.43 569.117C1066.68 568.137 1054.99 569.304 1044.66 572.796C1044.06 572.997 1043.74 573.642 1043.94 574.235C1044.06 574.613 1044.36 574.873 1044.72 574.97C1044.93 575.026 1045.17 575.02 1045.38 574.952C1055.43 571.549 1066.84 570.42 1081.28 571.385C1088.8 571.88 1096.53 572.901 1104 573.866C1111.46 574.843 1119.2 575.851 1126.72 576.346C1141.29 577.32 1153.69 576.661 1163.57 574.401C1164.18 574.263 1164.55 573.657 1164.42 573.039C1164.3 572.454 1163.68 572.068 1163.08 572.21Z" fill="#4E445C" fill-opacity="0.12"/>
<path d="M1079.96 596.879C1079.75 591.377 1079.53 585.693 1079.74 580.152C1079.75 579.851 1079.64 579.544 1079.43 579.32C1079.21 579.097 1078.92 578.978 1078.61 578.963C1073.85 578.932 1068.99 578.75 1064.3 578.57C1062.41 578.493 1060.52 578.429 1058.63 578.365C1058.33 578.353 1058.04 578.468 1057.82 578.672C1057.59 578.888 1057.47 579.175 1057.46 579.476C1057.36 585.932 1056.91 591.767 1056.41 597.963C1056.27 599.6 1056.15 601.253 1056.02 602.96C1055.99 603.271 1056.1 603.59 1056.32 603.814C1056.47 603.966 1056.65 604.082 1056.85 604.137C1056.96 604.165 1057.05 604.176 1057.15 604.174C1060.87 604.163 1064.64 604.275 1068.29 604.381C1071.78 604.489 1075.41 604.589 1079.04 604.595C1079.34 604.593 1079.64 604.465 1079.85 604.246C1080.06 604.026 1080.18 603.726 1080.17 603.419C1080.13 601.251 1080.05 599.074 1079.96 596.879ZM1068.37 602.122C1065.1 602.022 1061.73 601.92 1058.37 601.918C1058.47 600.644 1058.57 599.386 1058.66 598.154C1059.13 592.293 1059.56 586.756 1059.7 580.682C1061.2 580.74 1062.69 580.794 1064.2 580.852C1068.53 581.019 1072.99 581.191 1077.42 581.243C1077.27 586.497 1077.47 591.818 1077.67 596.97C1077.74 598.759 1077.8 600.545 1077.86 602.343C1074.67 602.319 1071.48 602.223 1068.37 602.122Z" fill="#4E445C" fill-opacity="0.12"/>
<path d="M1115.81 598.289C1115.6 592.786 1115.38 587.089 1115.6 581.535C1115.61 581.234 1115.5 580.928 1115.28 580.704C1115.07 580.48 1114.78 580.362 1114.47 580.347C1109.68 580.309 1104.81 580.123 1100.09 579.95C1098.21 579.876 1096.35 579.806 1094.47 579.745C1094.17 579.734 1093.88 579.849 1093.66 580.052C1093.44 580.269 1093.32 580.555 1093.31 580.856C1093.21 587.312 1092.75 593.16 1092.26 599.347C1092.13 600.984 1092 602.636 1091.88 604.331C1091.85 604.642 1091.96 604.961 1092.18 605.185C1092.33 605.336 1092.51 605.453 1092.71 605.508C1092.82 605.536 1092.91 605.547 1093.01 605.545C1096.74 605.537 1100.51 605.649 1104.16 605.756C1107.66 605.863 1111.26 605.972 1114.89 605.962C1115.19 605.961 1115.49 605.833 1115.7 605.613C1115.91 605.393 1116.03 605.094 1116.02 604.786C1115.98 602.661 1115.89 600.48 1115.81 598.289ZM1104.23 603.522C1100.96 603.419 1097.6 603.32 1094.23 603.315C1094.32 602.041 1094.42 600.795 1094.52 599.55C1094.98 593.69 1095.42 588.14 1095.55 582.079C1097.03 582.13 1098.51 582.181 1100 582.248C1104.35 582.418 1108.83 582.584 1113.27 582.639C1113.12 587.893 1113.32 593.227 1113.53 598.396C1113.6 600.185 1113.66 601.958 1113.71 603.74C1110.53 603.703 1107.33 603.607 1104.23 603.522Z" fill="#4E445C" fill-opacity="0.12"/>
<path d="M1151.22 599.014C1151.01 593.512 1150.8 587.814 1151.01 582.273C1151.02 581.972 1150.91 581.666 1150.69 581.442C1150.48 581.218 1150.19 581.1 1149.88 581.085C1145.09 581.047 1140.22 580.861 1135.5 580.688C1133.62 580.614 1131.76 580.544 1129.88 580.483C1129.58 580.472 1129.29 580.587 1129.07 580.79C1128.85 581.007 1128.73 581.293 1128.72 581.594C1128.62 588.05 1128.16 593.898 1127.67 600.085C1127.54 601.722 1127.41 603.374 1127.29 605.069C1127.26 605.38 1127.37 605.699 1127.59 605.923C1127.74 606.075 1127.92 606.191 1128.12 606.246C1128.23 606.274 1128.32 606.285 1128.42 606.283C1132.15 606.275 1135.92 606.387 1139.57 606.494C1143.07 606.601 1146.67 606.71 1150.3 606.7C1150.6 606.699 1150.9 606.571 1151.11 606.351C1151.32 606.131 1151.44 605.832 1151.43 605.524C1151.39 603.386 1151.32 601.195 1151.22 599.014ZM1139.66 604.251C1136.38 604.147 1133.02 604.049 1129.65 604.044C1129.75 602.769 1129.84 601.524 1129.94 600.279C1130.41 594.418 1130.84 588.868 1130.98 582.808C1132.45 582.858 1133.95 582.913 1135.42 582.976C1139.77 583.147 1144.26 583.313 1148.7 583.368C1148.55 588.622 1148.75 593.956 1148.96 599.112C1149.03 600.901 1149.09 602.687 1149.15 604.472C1145.96 604.431 1142.76 604.335 1139.66 604.251Z" fill="#4E445C" fill-opacity="0.12"/>
<path d="M1139.52 610.654C1138.45 610.368 1137.34 610.181 1136.18 610.106C1122.97 609.22 1117.62 618.47 1117.02 627.405C1116.46 635.839 1121.43 642.934 1129.41 645.073C1130.86 645.46 1132.4 645.68 1133.99 645.746C1144.87 646.133 1151.13 637.721 1151.71 629.193C1152.29 620.352 1147.28 612.735 1139.52 610.654ZM1134.07 643.474C1132.65 643.424 1131.29 643.226 1130.01 642.884C1123.11 641.035 1118.81 634.877 1119.3 627.56C1119.98 617.402 1126.24 611.727 1136.04 612.377C1137.05 612.44 1138.02 612.602 1138.95 612.85C1145.65 614.647 1149.96 621.304 1149.45 629.045C1148.94 636.456 1143.51 643.804 1134.07 643.474Z" fill="#4E445C" fill-opacity="0.12"/>
<path d="M1137.89 616.133C1137.2 615.95 1136.48 615.824 1135.74 615.78C1131.93 615.531 1128.4 617.02 1126.09 619.869C1123.87 622.604 1123.07 626.15 1123.97 629.349C1125.02 633.101 1127.92 635.951 1131.72 636.97C1134.86 637.81 1138.1 637.269 1140.58 635.487C1142.46 634.139 1144.78 631.458 1145.13 626.353C1145.46 621.494 1142.54 617.38 1137.89 616.133ZM1139.26 633.654C1137.33 635.044 1134.78 635.454 1132.31 634.791C1129.29 633.982 1126.98 631.718 1126.16 628.748C1125.47 626.297 1126.13 623.446 1127.86 621.311C1129.71 619.043 1132.53 617.85 1135.6 618.051C1136.19 618.083 1136.77 618.184 1137.31 618.329C1140.9 619.289 1143.13 622.459 1142.88 626.221C1142.64 629.556 1141.4 632.126 1139.26 633.654Z" fill="#4E445C" fill-opacity="0.12"/>
<path d="M1079.24 609.721C1078.17 609.435 1077.06 609.247 1075.91 609.173C1062.69 608.287 1057.34 617.537 1056.74 626.472C1056.18 634.906 1061.17 642.004 1069.14 644.14C1070.58 644.527 1072.12 644.747 1073.71 644.813C1084.59 645.2 1090.86 636.788 1091.43 628.26C1092.01 619.419 1087.01 611.802 1079.24 609.721ZM1073.79 642.541C1072.37 642.491 1071.01 642.293 1069.74 641.951C1062.84 640.102 1058.54 633.948 1059.02 626.627C1059.7 616.469 1065.96 610.793 1075.77 611.444C1076.77 611.506 1077.74 611.668 1078.67 611.917C1085.37 613.714 1089.69 620.371 1089.17 628.112C1088.66 635.536 1083.23 642.871 1073.79 642.541Z" fill="#4E445C" fill-opacity="0.12"/>
<path d="M1077.62 615.216C1076.93 615.033 1076.21 614.907 1075.47 614.863C1071.66 614.614 1068.13 616.103 1065.82 618.953C1063.6 621.687 1062.8 625.233 1063.7 628.432C1064.75 632.184 1067.65 635.034 1071.45 636.053C1074.59 636.893 1077.82 636.348 1080.31 634.57C1082.19 633.222 1084.51 630.541 1084.86 625.436C1085.18 620.574 1082.27 616.464 1077.62 615.216ZM1078.99 632.725C1077.06 634.114 1074.52 634.524 1072.04 633.861C1069.02 633.052 1066.71 630.789 1065.89 627.818C1065.21 625.368 1065.86 622.516 1067.59 620.382C1069.45 618.113 1072.27 616.92 1075.34 617.121C1075.92 617.153 1076.5 617.254 1077.05 617.399C1080.63 618.36 1082.86 621.529 1082.62 625.291C1082.37 628.626 1081.12 631.193 1078.99 632.725Z" fill="#4E445C" fill-opacity="0.12"/>
<path d="M1172.45 595.871C1170.16 595.589 1165.27 599.656 1164.06 601.983C1163.77 602.542 1163.97 603.219 1164.53 603.52C1165.09 603.808 1165.76 603.602 1166.06 603.047C1167.08 601.108 1170.44 598.69 1171.8 598.211C1172.38 602.071 1170.82 611.495 1169.89 613.015C1168.08 611.686 1166.71 611.747 1165.38 611.805C1165.08 611.823 1164.78 611.824 1164.46 611.822C1163.84 611.822 1163.32 612.318 1163.32 612.94C1163.31 613.464 1163.66 613.917 1164.15 614.049C1164.24 614.073 1164.34 614.084 1164.43 614.082C1164.79 614.082 1165.14 614.078 1165.48 614.058C1166.65 614 1167.44 613.974 1168.67 614.928C1169.41 615.484 1170.26 615.547 1170.98 615.077C1174.08 613.046 1174.26 598.663 1173.89 597.125C1173.73 596.433 1173.18 595.954 1172.45 595.871Z" fill="#4E445C" fill-opacity="0.12"/>
<path d="M1041.9 606.004C1040.61 606.847 1039.43 607.666 1038.65 608.203C1038.4 607.169 1038.1 604.489 1038.55 597.822C1038.58 597.333 1038.61 596.87 1038.62 596.446C1038.68 595.398 1038.74 594.088 1038.91 593.883C1039.09 593.889 1039.86 594.11 1042.13 596.392C1042.58 596.843 1043.3 596.843 1043.74 596.393C1044.19 595.947 1044.19 595.228 1043.74 594.79C1041.56 592.603 1040.2 591.686 1039.06 591.615C1038.25 591.563 1037.72 591.865 1037.43 592.132C1036.52 592.939 1036.46 594.36 1036.36 596.324C1036.34 596.748 1036.32 597.185 1036.28 597.712C1036.21 598.689 1036.02 601.678 1036.06 604.467C1036.11 607.992 1036.48 610.44 1038 610.848C1038.1 610.875 1038.22 610.894 1038.34 610.899C1038.62 610.917 1038.87 610.846 1039.09 610.685C1039.11 610.675 1040.97 609.321 1043.16 607.903C1043.68 607.559 1043.82 606.852 1043.48 606.331C1043.12 605.807 1042.42 605.659 1041.9 606.004Z" fill="#4E445C" fill-opacity="0.12"/>
<path d="M136.219 768.026C125.609 767.644 116.499 767.29 108.369 766.936C107.741 766.906 107.208 767.399 107.182 768.014C107.16 768.561 107.518 769.03 108.021 769.165C108.098 769.186 108.179 769.193 108.26 769.201C116.402 769.558 125.513 769.913 136.136 770.299C136.763 770.329 137.283 769.832 137.313 769.204C137.343 768.576 136.847 768.056 136.219 768.026Z" fill="#4E445C" fill-opacity="0.12"/>
<path d="M183.934 748.827C187.24 699.4 175.738 696.262 138.885 693.796C65.8549 688.921 62.7091 693.801 60.0556 733.52C58.8803 751.215 58.9466 759.789 62.4739 763.803C63.6626 765.144 65.1615 765.947 67.0315 766.448C69.3399 767.066 72.2097 767.241 75.7493 767.443L76.034 767.464C76.6583 767.507 77.2007 767.03 77.2307 766.402C77.2736 765.778 76.784 765.232 76.1691 765.206L75.8845 765.185C69.844 764.824 66.2106 764.611 64.1734 762.309C61.2052 758.943 61.2158 750.03 62.307 733.681C64.8624 695.359 67.5343 691.32 138.717 696.074C172.367 698.317 184.955 699.161 181.65 748.685C181.506 750.927 181.398 752.93 181.299 754.742C180.594 768.154 180.537 769.245 168.602 769.115C167.967 769.111 167.46 769.611 167.459 770.233C167.455 770.867 167.968 771.378 168.576 771.375C182.688 771.535 182.855 768.331 183.564 754.851C183.676 753.043 183.78 751.053 183.934 748.827Z" fill="#4E445C" fill-opacity="0.12"/>
<path d="M181.076 714.21C171.417 716.418 159.235 717.052 144.882 716.095C137.425 715.604 129.734 714.593 122.295 713.623C114.788 712.648 107.029 711.633 99.4272 711.117C84.6788 710.137 72.9904 711.304 62.6556 714.796C62.0628 714.997 61.7377 715.642 61.9383 716.235C62.0582 716.613 62.3615 716.873 62.7226 716.97C62.929 717.026 63.1655 717.02 63.3771 716.952C73.4255 713.549 84.8412 712.42 99.2757 713.385C106.8 713.88 114.53 714.901 121.998 715.866C129.463 716.843 137.196 717.851 144.721 718.346C159.291 719.32 171.687 718.661 181.567 716.401C182.185 716.263 182.554 715.657 182.416 715.039C182.296 714.454 181.681 714.068 181.076 714.21Z" fill="#4E445C" fill-opacity="0.12"/>
<path d="M97.959 738.879C97.7471 733.377 97.5286 727.693 97.7416 722.152C97.7532 721.851 97.6417 721.544 97.4253 721.32C97.2088 721.097 96.9226 720.978 96.6087 720.963C91.8484 720.932 86.9903 720.75 82.2974 720.57C80.4105 720.493 78.5203 720.429 76.63 720.365C76.329 720.353 76.0356 720.468 75.8152 720.672C75.5913 720.888 75.4731 721.175 75.4616 721.476C75.3627 727.932 74.9051 733.767 74.4057 739.963C74.2713 741.6 74.1463 743.253 74.0204 744.96C73.9925 745.271 74.1005 745.59 74.317 745.814C74.4699 745.966 74.6461 746.082 74.8524 746.137C74.9556 746.165 75.0493 746.176 75.1465 746.174C78.8679 746.163 82.639 746.275 86.2871 746.381C89.783 746.489 93.4053 746.589 97.039 746.595C97.3434 746.593 97.6403 746.465 97.8513 746.246C98.0622 746.026 98.1839 745.726 98.1696 745.419C98.1283 743.251 98.0484 741.074 97.959 738.879ZM86.3672 744.122C83.1044 744.022 79.7314 743.92 76.373 743.918C76.4657 742.644 76.5678 741.386 76.6631 740.154C77.1276 734.293 77.5608 728.756 77.6954 722.682C79.2004 722.74 80.6924 722.794 82.1974 722.852C86.5344 723.019 90.9943 723.191 95.4174 723.243C95.2675 728.497 95.4727 733.818 95.6677 738.97C95.7413 740.759 95.8019 742.545 95.8591 744.343C92.6727 744.319 89.4778 744.223 86.3672 744.122Z" fill="#4E445C" fill-opacity="0.12"/>
<path d="M133.809 740.289C133.597 734.786 133.382 729.089 133.598 723.535C133.61 723.234 133.498 722.928 133.282 722.704C133.065 722.48 132.779 722.362 132.465 722.347C127.679 722.309 122.808 722.123 118.086 721.95C116.212 721.876 114.351 721.806 112.474 721.745C112.173 721.734 111.879 721.849 111.659 722.052C111.435 722.269 111.317 722.555 111.305 722.856C111.206 729.312 110.745 735.16 110.262 741.347C110.128 742.984 110.003 744.636 109.881 746.331C109.853 746.642 109.961 746.961 110.177 747.185C110.33 747.336 110.506 747.453 110.713 747.508C110.816 747.536 110.909 747.547 111.007 747.545C114.741 747.537 118.512 747.649 122.16 747.756C125.656 747.863 129.262 747.972 132.886 747.962C133.191 747.961 133.487 747.833 133.698 747.613C133.909 747.393 134.031 747.094 134.017 746.786C133.978 744.661 133.885 742.48 133.809 740.289ZM122.233 745.522C118.958 745.419 115.598 745.32 112.226 745.315C112.319 744.041 112.418 742.795 112.516 741.55C112.981 735.69 113.417 730.14 113.549 724.079C115.028 724.13 116.507 724.181 117.996 724.248C122.345 724.418 126.835 724.584 131.271 724.639C131.121 729.893 131.322 735.227 131.527 740.396C131.6 742.185 131.665 743.958 131.712 745.74C128.529 745.703 125.334 745.607 122.233 745.522Z" fill="#4E445C" fill-opacity="0.12"/>
<path d="M169.222 741.014C169.01 735.512 168.795 729.814 169.008 724.273C169.02 723.972 168.909 723.666 168.692 723.442C168.476 723.218 168.189 723.1 167.875 723.085C163.089 723.047 158.218 722.861 153.496 722.688C151.622 722.614 149.761 722.544 147.884 722.483C147.583 722.472 147.289 722.587 147.069 722.79C146.845 723.007 146.727 723.293 146.715 723.594C146.617 730.05 146.155 735.898 145.672 742.085C145.538 743.722 145.413 745.374 145.291 747.069C145.263 747.38 145.371 747.699 145.587 747.923C145.74 748.075 145.916 748.191 146.123 748.246C146.226 748.274 146.32 748.285 146.417 748.283C150.151 748.275 153.922 748.387 157.57 748.494C161.066 748.601 164.672 748.71 168.296 748.7C168.601 748.699 168.898 748.571 169.109 748.351C169.32 748.131 169.441 747.832 169.427 747.524C169.392 745.386 169.315 743.195 169.222 741.014ZM157.66 746.251C154.384 746.147 151.024 746.049 147.653 746.044C147.745 744.769 147.844 743.524 147.943 742.279C148.407 736.418 148.844 730.868 148.975 724.808C150.454 724.858 151.946 724.913 153.422 724.976C157.772 725.147 162.261 725.313 166.697 725.368C166.547 730.622 166.749 735.956 166.957 741.112C167.03 742.901 167.091 744.687 167.152 746.472C163.956 746.431 160.761 746.335 157.66 746.251Z" fill="#4E445C" fill-opacity="0.12"/>
<path d="M157.52 752.654C156.449 752.368 155.338 752.181 154.184 752.106C140.972 751.22 135.618 760.47 135.021 769.405C134.461 777.839 139.43 784.934 147.413 787.073C148.857 787.46 150.402 787.68 151.987 787.746C162.872 788.133 169.135 779.721 169.706 771.193C170.292 762.352 165.283 754.735 157.52 752.654ZM152.071 785.474C150.647 785.424 149.29 785.226 148.013 784.884C141.114 783.035 136.806 776.877 137.302 769.56C137.978 759.402 144.24 753.727 154.045 754.377C155.051 754.44 156.017 754.602 156.945 754.85C163.651 756.647 167.963 763.304 167.451 771.045C166.944 778.456 161.506 785.804 152.071 785.474Z" fill="#4E445C" fill-opacity="0.12"/>
<path d="M155.887 758.133C155.203 757.95 154.477 757.824 153.743 757.78C149.925 757.531 146.402 759.02 144.091 761.869C141.865 764.604 141.067 768.15 141.965 771.349C143.02 775.101 145.919 777.951 149.723 778.97C152.857 779.81 156.098 779.269 158.58 777.487C160.461 776.139 162.783 773.458 163.128 768.353C163.463 763.494 160.543 759.38 155.887 758.133ZM157.26 775.654C155.326 777.044 152.783 777.454 150.307 776.791C147.289 775.982 144.98 773.718 144.158 770.748C143.474 768.297 144.128 765.446 145.861 763.311C147.712 761.043 150.534 759.85 153.604 760.051C154.19 760.083 154.771 760.184 155.312 760.329C158.898 761.289 161.131 764.459 160.883 768.221C160.639 771.556 159.397 774.126 157.26 775.654Z" fill="#4E445C" fill-opacity="0.12"/>
<path d="M97.2424 751.721C96.1721 751.435 95.0611 751.247 93.9062 751.173C80.6946 750.287 75.341 759.537 74.7437 768.472C74.1841 776.906 79.1655 784.004 87.1354 786.14C88.5798 786.527 90.1242 786.747 91.71 786.813C102.595 787.2 108.857 778.788 109.428 770.26C110.014 761.419 105.006 753.802 97.2424 751.721ZM91.7936 784.541C90.3694 784.491 89.0125 784.293 87.7358 783.951C80.8362 782.102 76.5417 775.948 77.0244 768.627C77.7005 758.469 83.9623 752.793 93.7676 753.444C94.7738 753.506 95.7394 753.668 96.6679 753.917C103.374 755.714 107.686 762.371 107.174 770.112C106.663 777.536 101.229 784.871 91.7936 784.541Z" fill="#4E445C" fill-opacity="0.12"/>
<path d="M95.6175 757.216C94.934 757.033 94.2074 756.907 93.473 756.863C89.6556 756.614 86.1328 758.103 83.8211 760.953C81.5955 763.687 80.7975 767.233 81.6958 770.432C82.75 774.184 85.6492 777.034 89.4536 778.053C92.5874 778.893 95.8158 778.348 98.3103 776.57C100.192 775.222 102.514 772.541 102.859 767.436C103.18 762.574 100.273 758.464 95.6175 757.216ZM96.9941 774.725C95.0599 776.114 92.5172 776.524 90.0411 775.861C87.0233 775.052 84.7134 772.789 83.8922 769.818C83.208 767.368 83.8616 764.516 85.5945 762.382C87.4463 760.113 90.2678 758.92 93.3378 759.121C93.9235 759.153 94.5048 759.254 95.0464 759.399C98.6316 760.36 100.865 763.529 100.617 767.291C100.373 770.626 99.1185 773.193 96.9941 774.725Z" fill="#4E445C" fill-opacity="0.12"/>
<path d="M190.452 737.871C188.164 737.589 183.273 741.656 182.055 743.983C181.767 744.542 181.973 745.219 182.528 745.52C183.087 745.808 183.764 745.602 184.065 745.047C185.082 743.108 188.439 740.69 189.797 740.211C190.38 744.071 188.823 753.495 187.89 755.015C186.076 753.686 184.705 753.747 183.377 753.805C183.082 753.823 182.777 753.824 182.46 753.822C181.838 753.822 181.318 754.318 181.317 754.94C181.315 755.464 181.663 755.917 182.153 756.049C182.244 756.073 182.337 756.084 182.435 756.082C182.794 756.082 183.141 756.078 183.478 756.058C184.654 756 185.435 755.974 186.673 756.928C187.408 757.484 188.262 757.547 188.983 757.077C192.084 755.046 192.261 740.663 191.885 739.125C191.725 738.433 191.176 737.954 190.452 737.871Z" fill="#4E445C" fill-opacity="0.12"/>
<path d="M59.8956 748.004C58.6054 748.847 57.4322 749.666 56.6523 750.203C56.4042 749.169 56.0995 746.489 56.5452 739.822C56.5793 739.333 56.6066 738.87 56.6234 738.446C56.6831 737.398 56.744 736.088 56.9094 735.883C57.0874 735.889 57.8578 736.11 60.135 738.392C60.5808 738.843 61.2998 738.843 61.7381 738.393C62.1893 737.947 62.1884 737.228 61.7392 736.79C59.5607 734.603 58.203 733.686 57.0609 733.615C56.2457 733.563 55.7224 733.865 55.4297 734.132C54.5223 734.939 54.4595 736.36 54.3617 738.324C54.3448 738.748 54.3245 739.185 54.28 739.712C54.2118 740.689 54.019 743.678 54.0595 746.467C54.1103 749.992 54.4772 752.44 55.999 752.848C56.1022 752.875 56.2217 752.894 56.3446 752.899C56.6164 752.917 56.8702 752.846 57.0931 752.685C57.1095 752.675 58.9653 751.321 61.1558 749.903C61.6766 749.559 61.8245 748.852 61.4802 748.331C61.1231 747.807 60.4163 747.659 59.8956 748.004Z" fill="#4E445C" fill-opacity="0.12"/>
<path d="M450.153 822.891C440.586 818.289 432.38 814.313 425.074 810.731C424.511 810.452 423.825 810.69 423.554 811.243C423.315 811.735 423.455 812.309 423.862 812.634C423.924 812.684 423.995 812.723 424.066 812.763C431.383 816.353 439.588 820.328 449.166 824.939C449.729 825.218 450.405 824.972 450.684 824.408C450.963 823.845 450.716 823.17 450.153 822.891Z" fill="#4E445C" fill-opacity="0.12"/>
<path d="M501.566 824.422C524.402 780.462 515.121 772.978 482.345 755.951C417.389 722.218 412.551 725.428 394.203 760.755C386.035 776.496 382.66 784.378 384.283 789.469C384.835 791.174 385.887 792.51 387.399 793.719C389.266 795.21 391.825 796.52 394.987 798.124L395.24 798.257C395.795 798.547 396.483 798.327 396.762 797.764C397.051 797.209 396.821 796.513 396.269 796.242L396.016 796.109C390.627 793.358 387.383 791.706 386.439 788.782C385.068 784.508 388.65 776.347 396.201 761.805C413.9 727.719 417.966 725.089 481.278 757.97C511.209 773.51 522.404 779.327 499.53 823.377C498.499 825.373 497.597 827.165 496.781 828.785C490.76 840.791 490.271 841.767 479.388 836.866C478.808 836.607 478.143 836.862 477.893 837.432C477.635 838.011 477.9 838.685 478.459 838.926C491.324 844.727 492.761 841.859 498.813 829.793C499.639 828.181 500.533 826.4 501.566 824.422Z" fill="#4E445C" fill-opacity="0.12"/>
<path d="M512.818 791.56C503.084 789.713 491.669 785.412 478.902 778.783C472.267 775.344 465.626 771.337 459.199 767.467C452.712 763.565 446.01 759.526 439.252 756.007C426.132 749.198 414.956 745.583 404.088 744.641C403.464 744.588 402.908 745.049 402.854 745.672C402.813 746.066 402.986 746.427 403.278 746.66C403.445 746.794 403.664 746.883 403.885 746.906C414.455 747.815 425.366 751.355 438.204 758.024C444.9 761.493 451.573 765.526 458.028 769.402C464.476 773.289 471.157 777.311 477.852 780.781C490.811 787.512 502.432 791.875 512.39 793.765C513.012 793.885 513.593 793.478 513.714 792.857C513.838 792.273 513.429 791.673 512.818 791.56Z" fill="#4E445C" fill-opacity="0.12"/>
<path d="M426.78 780.854C428.791 775.728 430.869 770.432 433.285 765.441C433.416 765.17 433.437 764.845 433.328 764.553C433.219 764.261 433.004 764.038 432.723 763.899C428.374 761.962 423.996 759.848 419.768 757.803C418.071 756.977 416.364 756.16 414.658 755.344C414.387 755.213 414.072 755.2 413.789 755.299C413.497 755.407 413.274 755.622 413.143 755.893C410.465 761.769 407.707 766.931 404.767 772.408C403.988 773.854 403.211 775.318 402.411 776.832C402.261 777.106 402.232 777.441 402.341 777.733C402.42 777.933 402.535 778.111 402.702 778.244C402.785 778.311 402.867 778.359 402.956 778.396C406.371 779.876 409.781 781.49 413.08 783.05C416.24 784.549 419.519 786.092 422.846 787.554C423.125 787.675 423.448 787.677 423.73 787.56C424.011 787.443 424.243 787.217 424.353 786.93C425.184 784.927 425.983 782.9 426.78 780.854ZM414.059 781.012C411.11 779.613 408.061 778.168 404.984 776.82C405.58 775.69 406.178 774.578 406.759 773.487C409.533 768.304 412.149 763.405 414.706 757.894C416.062 758.55 417.407 759.198 418.763 759.854C422.669 761.745 426.686 763.69 430.718 765.509C428.475 770.263 426.531 775.22 424.645 780.019C423.995 781.688 423.335 783.348 422.667 785.019C419.757 783.719 416.869 782.351 414.059 781.012Z" fill="#4E445C" fill-opacity="0.12"/>
<path d="M459.063 796.512C461.074 791.386 463.16 786.08 465.584 781.079C465.715 780.807 465.736 780.482 465.627 780.19C465.519 779.898 465.304 779.675 465.022 779.536C460.653 777.583 456.264 775.461 452.007 773.41C450.32 772.591 448.643 771.781 446.947 770.973C446.676 770.842 446.361 770.83 446.078 770.928C445.786 771.036 445.563 771.251 445.432 771.522C442.754 777.398 439.988 782.571 437.066 788.046C436.287 789.491 435.51 790.956 434.719 792.459C434.569 792.733 434.54 793.068 434.649 793.36C434.728 793.56 434.843 793.738 435.01 793.871C435.093 793.938 435.174 793.985 435.264 794.023C438.689 795.512 442.099 797.126 445.399 798.685C448.558 800.185 451.818 801.73 455.143 803.173C455.423 803.293 455.746 803.295 456.027 803.178C456.309 803.061 456.54 802.836 456.65 802.548C457.466 800.586 458.255 798.55 459.063 796.512ZM446.361 796.668C443.401 795.261 440.362 793.824 437.275 792.468C437.871 791.338 438.46 790.236 439.05 789.135C441.824 783.952 444.448 779.042 446.997 773.542C448.332 774.181 449.667 774.821 451.004 775.479C454.921 777.378 458.967 779.329 463.009 781.157C460.766 785.911 458.814 790.879 456.93 795.696C456.28 797.365 455.628 799.015 454.958 800.666C452.057 799.357 449.168 797.989 446.361 796.668Z" fill="#4E445C" fill-opacity="0.12"/>
<path d="M491.216 811.368C493.227 806.241 495.313 800.935 497.729 795.944C497.86 795.673 497.881 795.348 497.772 795.056C497.663 794.764 497.448 794.541 497.167 794.401C492.797 792.448 488.409 790.326 484.152 788.275C482.465 787.457 480.788 786.647 479.092 785.839C478.821 785.707 478.506 785.695 478.222 785.793C477.931 785.902 477.708 786.117 477.576 786.388C474.899 792.263 472.133 797.436 469.211 802.911C468.432 804.357 467.655 805.821 466.863 807.325C466.714 807.598 466.685 807.934 466.793 808.226C466.873 808.426 466.987 808.603 467.154 808.736C467.238 808.803 467.319 808.851 467.409 808.889C470.833 810.377 474.243 811.991 477.543 813.551C480.703 815.05 483.963 816.595 487.288 818.038C487.567 818.159 487.89 818.161 488.172 818.044C488.453 817.927 488.684 817.702 488.795 817.414C489.619 815.441 490.427 813.403 491.216 811.368ZM478.524 811.532C475.564 810.124 472.525 808.687 469.439 807.332C470.034 806.201 470.624 805.1 471.213 803.999C473.987 798.815 476.611 793.905 479.16 788.405C480.495 789.045 481.84 789.692 483.167 790.342C487.084 792.241 491.13 794.193 495.172 796.021C492.93 800.774 490.977 805.742 489.101 810.55C488.452 812.218 487.792 813.878 487.132 815.538C484.22 814.22 481.331 812.852 478.524 811.532Z" fill="#4E445C" fill-opacity="0.12"/>
<path d="M475.83 817.343C474.965 816.651 474.022 816.034 472.994 815.503C461.244 809.397 452.632 815.726 448.505 823.673C444.612 831.176 446.321 839.667 452.778 844.826C453.946 845.76 455.273 846.58 456.699 847.276C466.517 851.993 475.626 846.795 479.566 839.211C483.646 831.346 482.11 822.36 475.83 817.343ZM457.686 845.228C456.401 844.611 455.238 843.886 454.205 843.061C448.624 838.603 447.146 831.235 450.532 824.729C455.222 815.693 463.234 813.003 471.956 817.528C472.853 817.989 473.673 818.524 474.424 819.124C479.848 823.458 481.131 831.285 477.559 838.172C474.125 844.759 466.198 849.311 457.686 845.228Z" fill="#4E445C" fill-opacity="0.12"/>
<path d="M472.139 821.708C471.586 821.266 470.971 820.86 470.316 820.524C466.918 818.767 463.094 818.719 459.834 820.404C456.699 822.017 454.547 824.946 454.088 828.237C453.55 832.097 455.064 835.87 458.141 838.328C460.676 840.354 463.862 841.157 466.85 840.519C469.114 840.038 472.316 838.511 474.678 833.973C476.931 829.655 475.904 824.716 472.139 821.708ZM466.375 838.311C464.047 838.809 461.552 838.166 459.55 836.566C457.109 834.615 455.9 831.616 456.338 828.565C456.693 826.046 458.435 823.695 460.878 822.434C463.483 821.098 466.546 821.136 469.279 822.55C469.802 822.814 470.294 823.139 470.732 823.489C473.632 825.806 474.408 829.605 472.673 832.952C471.113 835.91 468.946 837.767 466.375 838.311Z" fill="#4E445C" fill-opacity="0.12"/>
<path d="M420.975 792.332C420.109 791.64 419.166 791.024 418.138 790.493C406.389 784.386 397.777 790.716 393.649 798.663C389.757 806.165 391.476 814.665 397.922 819.816C399.09 820.749 400.417 821.57 401.844 822.265C411.661 826.982 420.77 821.784 424.71 814.2C428.79 806.335 427.254 797.349 420.975 792.332ZM402.831 820.217C401.546 819.601 400.382 818.876 399.349 818.051C393.769 813.592 392.301 806.232 395.677 799.718C400.367 790.683 408.378 787.992 417.101 792.518C417.998 792.978 418.818 793.513 419.569 794.114C424.993 798.447 426.276 806.274 422.704 813.161C419.261 819.759 411.343 824.301 402.831 820.217Z" fill="#4E445C" fill-opacity="0.12"/>
<path d="M417.287 796.715C416.734 796.274 416.119 795.868 415.464 795.532C412.066 793.774 408.242 793.727 404.982 795.412C401.847 797.025 399.695 799.954 399.236 803.245C398.699 807.105 400.213 810.878 403.29 813.336C405.824 815.361 409 816.156 411.998 815.527C414.263 815.046 417.464 813.519 419.826 808.981C422.069 804.655 421.053 799.724 417.287 796.715ZM411.532 813.308C409.203 813.806 406.709 813.163 404.706 811.563C402.266 809.613 401.057 806.613 401.495 803.562C401.85 801.043 403.591 798.692 406.034 797.431C408.64 796.095 411.703 796.133 414.435 797.547C414.959 797.812 415.451 798.137 415.889 798.487C418.789 800.803 419.565 804.602 417.83 807.95C416.27 810.907 414.092 812.756 411.532 813.308Z" fill="#4E445C" fill-opacity="0.12"/>
<path d="M511.925 816.995C509.942 815.821 503.831 817.586 501.783 819.231C501.295 819.627 501.212 820.33 501.6 820.828C501.997 821.316 502.699 821.399 503.198 821.01C504.907 819.642 508.951 818.772 510.388 818.877C509.375 822.648 504.171 830.658 502.708 831.676C501.579 829.731 500.298 829.238 499.057 828.759C498.78 828.657 498.5 828.536 498.21 828.407C497.641 828.158 496.966 828.404 496.716 828.973C496.503 829.453 496.641 830.008 497.038 830.324C497.111 830.383 497.192 830.431 497.282 830.468C497.611 830.612 497.93 830.747 498.247 830.864C499.349 831.282 500.074 831.571 500.826 832.941C501.277 833.745 502.034 834.145 502.882 834.003C506.537 833.386 512.463 820.279 512.736 818.719C512.867 818.021 512.555 817.362 511.925 816.995Z" fill="#4E445C" fill-opacity="0.12"/>
<path d="M388.25 773.96C386.73 774.215 385.327 774.495 384.398 774.675C384.585 773.628 385.379 771.051 388.46 765.121C388.687 764.687 388.897 764.274 389.082 763.892C389.557 762.956 390.138 761.779 390.372 761.658C390.532 761.735 391.15 762.246 392.321 765.25C392.549 765.842 393.208 766.129 393.79 765.893C394.382 765.666 394.669 765.006 394.433 764.425C393.314 761.548 392.437 760.164 391.419 759.641C390.693 759.266 390.093 759.334 389.718 759.461C388.563 759.837 387.936 761.113 387.059 762.874C386.874 763.256 386.68 763.648 386.428 764.113C385.974 764.981 384.6 767.642 383.519 770.214C382.153 773.463 381.508 775.853 382.739 776.836C382.823 776.903 382.925 776.968 383.035 777.022C383.277 777.147 383.538 777.184 383.807 777.126C383.826 777.123 386.069 776.626 388.644 776.205C389.259 776.098 389.678 775.51 389.571 774.895C389.454 774.272 388.865 773.853 388.25 773.96Z" fill="#4E445C" fill-opacity="0.12"/>
</svg>
