<svg width="27" height="21" viewBox="0 0 27 21" fill="none" xmlns="http://www.w3.org/2000/svg">
<path d="M12.9811 0.00789753C9.91861 -0.0365221 5.66442 0.0284189 4.78855 2.35279L2.63661 7.34129C2.54116 7.23343 2.41599 7.15535 2.27637 7.1166L1.40997 6.87579C1.3147 6.84911 1.21503 6.84127 1.11669 6.85274C1.01835 6.8642 0.923263 6.89474 0.836898 6.9426C0.750534 6.99046 0.674588 7.0547 0.61342 7.13164C0.552251 7.20857 0.507066 7.29668 0.480456 7.39091L0.0284535 8.97651C0.00147948 9.07061 -0.00642204 9.16904 0.0052022 9.26616C0.0168264 9.36329 0.0477477 9.45719 0.096192 9.54248C0.144636 9.62777 0.20965 9.70277 0.287504 9.76318C0.365358 9.82359 0.45452 9.86822 0.549874 9.89451L1.41654 10.1356C1.44546 10.1434 1.47439 10.146 1.50331 10.1506C1.33766 10.5585 1.23458 11.0068 1.23458 11.2736V17.0715C1.23458 17.3687 1.3608 17.5064 1.56116 17.5708V19.1154C1.56085 19.2525 1.58796 19.3883 1.64093 19.515C1.6939 19.6418 1.77169 19.7569 1.86983 19.8539C1.96798 19.9508 2.08454 20.0277 2.21283 20.08C2.34112 20.1324 2.47861 20.1591 2.61741 20.1588H5.45117C5.58997 20.1591 5.72746 20.1324 5.85575 20.08C5.98404 20.0277 6.1006 19.9508 6.19875 19.8539C6.29689 19.7569 6.37468 19.6418 6.42765 19.515C6.48063 19.3883 6.50773 19.2525 6.50742 19.1154V17.6274H19.7869V19.1154C19.7867 19.2525 19.8139 19.3883 19.8669 19.515C19.9199 19.6417 19.9977 19.7569 20.0959 19.8538C20.194 19.9508 20.3106 20.0276 20.4389 20.08C20.5672 20.1323 20.7047 20.1591 20.8435 20.1588H23.6767C23.8155 20.1591 23.953 20.1324 24.0813 20.08C24.2097 20.0277 24.3263 19.9509 24.4244 19.8539C24.5226 19.757 24.6005 19.6418 24.6535 19.5151C24.7065 19.3883 24.7337 19.2525 24.7335 19.1154V17.5711C24.9341 17.5066 25.0595 17.369 25.0595 17.0718V11.2739C25.0595 11.0071 24.9562 10.5587 24.7908 10.1509C24.8197 10.1465 24.8486 10.1439 24.8776 10.1358L25.7445 9.89477C25.8398 9.86845 25.9289 9.8238 26.0068 9.76338C26.0846 9.70296 26.1496 9.62795 26.198 9.54267C26.2464 9.45738 26.2773 9.36349 26.2889 9.26638C26.3005 9.16927 26.2926 9.07085 26.2656 8.97677L25.8142 7.39117C25.7875 7.29693 25.7423 7.20881 25.6811 7.13188C25.6199 7.05494 25.544 6.9907 25.4576 6.94284C25.3712 6.89498 25.2761 6.86445 25.1777 6.85299C25.0794 6.84153 24.9797 6.84936 24.8844 6.87605L24.018 7.11686C23.8784 7.15577 23.7532 7.23382 23.6575 7.34155L21.5055 2.35305C20.5668 -0.00664883 16.0434 0.052577 12.9809 0.0081574L12.9811 0.00789753ZM21.7522 7.65639C21.8032 7.80601 21.6507 7.90576 21.4911 7.91485C21.4911 7.91485 20.9694 7.95849 20.25 8.0159C19.7025 6.75241 18.4304 5.86194 16.9566 5.86194C15.3392 5.86194 13.9661 6.93476 13.5257 8.39567C13.4037 8.39723 13.262 8.40243 13.1486 8.40243C10.3622 8.40243 4.80301 7.91485 4.80301 7.91485C4.64367 7.9055 4.49089 7.80575 4.54191 7.65639C6.68281 1.20879 6.7467 1.69351 13.0287 1.7613C19.3105 1.82884 19.347 1.36828 21.7522 7.65639ZM16.9566 7.08049C17.3444 7.07916 17.7265 7.17324 18.0684 7.35423C18.4102 7.53521 18.7011 7.79742 18.9147 8.11721C17.6566 8.20942 16.2085 8.30372 14.8591 8.35853C15.0533 7.97344 15.3526 7.64968 15.7232 7.42384C16.0939 7.19799 16.5211 7.07906 16.9566 7.08049ZM2.47332 9.17289C2.49225 9.20068 2.51066 9.22848 2.53169 9.25523H2.45018L2.47332 9.17289ZM3.86535 10.7923C4.41648 10.7834 7.37514 11.7671 7.37514 11.7671C7.74458 11.87 8.06984 12.5599 8.068 12.9392C8.06248 14.2165 4.72623 13.773 3.3718 13.7782C3.28079 13.7784 3.19063 13.7608 3.10651 13.7265C3.02239 13.6922 2.94595 13.6418 2.88158 13.5782C2.81721 13.5147 2.76618 13.4392 2.7314 13.3561C2.69663 13.273 2.6788 13.1839 2.67894 13.094V11.477C2.67894 11.0977 3.31422 10.8016 3.86535 10.7923ZM22.4287 10.7923C22.9799 10.8013 23.6152 11.0977 23.6152 11.477V13.094C23.6153 13.184 23.5975 13.273 23.5628 13.3562C23.528 13.4393 23.477 13.5148 23.4126 13.5784C23.3482 13.642 23.2718 13.6924 23.1876 13.7267C23.1035 13.7611 23.0133 13.7787 22.9223 13.7785C21.5681 13.7733 18.2316 14.2165 18.2261 12.9392C18.2243 12.5599 18.5495 11.87 18.919 11.7671C18.919 11.7671 21.8776 10.7834 22.4287 10.7923Z" fill="url(#paint0_linear_196_15901)"/>
<path d="M12.9811 0.00789753C9.91861 -0.0365221 5.66442 0.0284189 4.78855 2.35279L2.63661 7.34129C2.54116 7.23343 2.41599 7.15535 2.27637 7.1166L1.40997 6.87579C1.3147 6.84911 1.21503 6.84127 1.11669 6.85274C1.01835 6.8642 0.923263 6.89474 0.836898 6.9426C0.750534 6.99046 0.674588 7.0547 0.61342 7.13164C0.552251 7.20857 0.507066 7.29668 0.480456 7.39091L0.0284535 8.97651C0.00147948 9.07061 -0.00642204 9.16904 0.0052022 9.26616C0.0168264 9.36329 0.0477477 9.45719 0.096192 9.54248C0.144636 9.62777 0.20965 9.70277 0.287504 9.76318C0.365358 9.82359 0.45452 9.86822 0.549874 9.89451L1.41654 10.1356C1.44546 10.1434 1.47439 10.146 1.50331 10.1506C1.33766 10.5585 1.23458 11.0068 1.23458 11.2736V17.0715C1.23458 17.3687 1.3608 17.5064 1.56116 17.5708V19.1154C1.56085 19.2525 1.58796 19.3883 1.64093 19.515C1.6939 19.6418 1.77169 19.7569 1.86983 19.8539C1.96798 19.9508 2.08454 20.0277 2.21283 20.08C2.34112 20.1324 2.47861 20.1591 2.61741 20.1588H5.45117C5.58997 20.1591 5.72746 20.1324 5.85575 20.08C5.98404 20.0277 6.1006 19.9508 6.19875 19.8539C6.29689 19.7569 6.37468 19.6418 6.42765 19.515C6.48063 19.3883 6.50773 19.2525 6.50742 19.1154V17.6274H19.7869V19.1154C19.7867 19.2525 19.8139 19.3883 19.8669 19.515C19.9199 19.6417 19.9977 19.7569 20.0959 19.8538C20.194 19.9508 20.3106 20.0276 20.4389 20.08C20.5672 20.1323 20.7047 20.1591 20.8435 20.1588H23.6767C23.8155 20.1591 23.953 20.1324 24.0813 20.08C24.2097 20.0277 24.3263 19.9509 24.4244 19.8539C24.5226 19.757 24.6005 19.6418 24.6535 19.5151C24.7065 19.3883 24.7337 19.2525 24.7335 19.1154V17.5711C24.9341 17.5066 25.0595 17.369 25.0595 17.0718V11.2739C25.0595 11.0071 24.9562 10.5587 24.7908 10.1509C24.8197 10.1465 24.8486 10.1439 24.8776 10.1358L25.7445 9.89477C25.8398 9.86845 25.9289 9.8238 26.0068 9.76338C26.0846 9.70296 26.1496 9.62795 26.198 9.54267C26.2464 9.45738 26.2773 9.36349 26.2889 9.26638C26.3005 9.16927 26.2926 9.07085 26.2656 8.97677L25.8142 7.39117C25.7875 7.29693 25.7423 7.20881 25.6811 7.13188C25.6199 7.05494 25.544 6.9907 25.4576 6.94284C25.3712 6.89498 25.2761 6.86445 25.1777 6.85299C25.0794 6.84153 24.9797 6.84936 24.8844 6.87605L24.018 7.11686C23.8784 7.15577 23.7532 7.23382 23.6575 7.34155L21.5055 2.35305C20.5668 -0.00664883 16.0434 0.052577 12.9809 0.0081574L12.9811 0.00789753ZM21.7522 7.65639C21.8032 7.80601 21.6507 7.90576 21.4911 7.91485C21.4911 7.91485 20.9694 7.95849 20.25 8.0159C19.7025 6.75241 18.4304 5.86194 16.9566 5.86194C15.3392 5.86194 13.9661 6.93476 13.5257 8.39567C13.4037 8.39723 13.262 8.40243 13.1486 8.40243C10.3622 8.40243 4.80301 7.91485 4.80301 7.91485C4.64367 7.9055 4.49089 7.80575 4.54191 7.65639C6.68281 1.20879 6.7467 1.69351 13.0287 1.7613C19.3105 1.82884 19.347 1.36828 21.7522 7.65639ZM16.9566 7.08049C17.3444 7.07916 17.7265 7.17324 18.0684 7.35423C18.4102 7.53521 18.7011 7.79742 18.9147 8.11721C17.6566 8.20942 16.2085 8.30372 14.8591 8.35853C15.0533 7.97344 15.3526 7.64968 15.7232 7.42384C16.0939 7.19799 16.5211 7.07906 16.9566 7.08049ZM2.47332 9.17289C2.49225 9.20068 2.51066 9.22848 2.53169 9.25523H2.45018L2.47332 9.17289ZM3.86535 10.7923C4.41648 10.7834 7.37514 11.7671 7.37514 11.7671C7.74458 11.87 8.06984 12.5599 8.068 12.9392C8.06248 14.2165 4.72623 13.773 3.3718 13.7782C3.28079 13.7784 3.19063 13.7608 3.10651 13.7265C3.02239 13.6922 2.94595 13.6418 2.88158 13.5782C2.81721 13.5147 2.76618 13.4392 2.7314 13.3561C2.69663 13.273 2.6788 13.1839 2.67894 13.094V11.477C2.67894 11.0977 3.31422 10.8016 3.86535 10.7923ZM22.4287 10.7923C22.9799 10.8013 23.6152 11.0977 23.6152 11.477V13.094C23.6153 13.184 23.5975 13.273 23.5628 13.3562C23.528 13.4393 23.477 13.5148 23.4126 13.5784C23.3482 13.642 23.2718 13.6924 23.1876 13.7267C23.1035 13.7611 23.0133 13.7787 22.9223 13.7785C21.5681 13.7733 18.2316 14.2165 18.2261 12.9392C18.2243 12.5599 18.5495 11.87 18.919 11.7671C18.919 11.7671 21.8776 10.7834 22.4287 10.7923Z" fill="black" fill-opacity="0.2"/>
<defs>
<linearGradient id="paint0_linear_196_15901" x1="-1.93118e-07" y1="9.77398" x2="26.2941" y2="9.77398" gradientUnits="userSpaceOnUse">
<stop stop-color="#1D91DE"/>
<stop offset="1" stop-color="#1D47A9"/>
</linearGradient>
</defs>
</svg>
