<svg width="25" height="21" viewBox="0 0 25 21" fill="none" xmlns="http://www.w3.org/2000/svg">
<path d="M19.5457 0H12.6182L17.0263 5.16216L19.5457 0ZM4.85305 0L7.37251 5.16216L11.7805 0H4.85305ZM12.1994 1.96213L8.84848 5.88594H15.5503L12.1994 1.96213ZM20.9405 0.876454L18.4959 5.88594H24.3464L20.9405 0.876454ZM3.45824 0.876454L0 5.88594H5.90283L3.45824 0.876454ZM6.47562 7.35743H0.0523579L11.7177 20.6008H11.7454L6.47562 7.35743ZM17.9231 7.35743L12.6533 20.6008H12.6811L24.3464 7.35743H17.9231ZM16.0419 7.35743H8.35684L12.1994 16.9221L16.0419 7.35743Z" fill="url(#paint0_linear_196_15902)"/>
<path d="M19.5457 0H12.6182L17.0263 5.16216L19.5457 0ZM4.85305 0L7.37251 5.16216L11.7805 0H4.85305ZM12.1994 1.96213L8.84848 5.88594H15.5503L12.1994 1.96213ZM20.9405 0.876454L18.4959 5.88594H24.3464L20.9405 0.876454ZM3.45824 0.876454L0 5.88594H5.90283L3.45824 0.876454ZM6.47562 7.35743H0.0523579L11.7177 20.6008H11.7454L6.47562 7.35743ZM17.9231 7.35743L12.6533 20.6008H12.6811L24.3464 7.35743H17.9231ZM16.0419 7.35743H8.35684L12.1994 16.9221L16.0419 7.35743Z" fill="black" fill-opacity="0.2"/>
<defs>
<linearGradient id="paint0_linear_196_15902" x1="-1.78813e-07" y1="9.98827" x2="24.3464" y2="9.98827" gradientUnits="userSpaceOnUse">
<stop stop-color="#1D91DE"/>
<stop offset="1" stop-color="#1D47A9"/>
</linearGradient>
</defs>
</svg>
