<svg width="22" height="26" viewBox="0 0 22 26" fill="none" xmlns="http://www.w3.org/2000/svg">
<path d="M11.3891 5.06412C11.501 5.06412 11.6084 5.01966 11.6875 4.94052C11.7666 4.86137 11.8111 4.75403 11.8111 4.64211C11.8111 4.53018 11.7666 4.42284 11.6875 4.3437C11.6084 4.26455 11.501 4.22009 11.3891 4.22009C11.2772 4.22009 11.1698 4.26455 11.0907 4.3437C11.0115 4.42284 10.9671 4.53018 10.9671 4.64211C10.9671 4.75403 11.0115 4.86137 11.0907 4.94052C11.1698 5.01966 11.2772 5.06412 11.3891 5.06412ZM17.7193 6.75218C17.7193 6.97603 17.6304 7.19071 17.4721 7.349C17.3138 7.50729 17.0991 7.59621 16.8753 7.59621C16.6514 7.59621 16.4368 7.50729 16.2785 7.349C16.1202 7.19071 16.0313 6.97603 16.0313 6.75218C16.0313 6.52833 16.1202 6.31365 16.2785 6.15536C16.4368 5.99708 16.6514 5.90815 16.8753 5.90815C17.0991 5.90815 17.3138 5.99708 17.4721 6.15536C17.6304 6.31365 17.7193 6.52833 17.7193 6.75218ZM16.4533 10.9723C16.6195 10.9723 16.7842 10.9396 16.9378 10.876C17.0914 10.8123 17.2309 10.7191 17.3485 10.6015C17.4661 10.4839 17.5593 10.3444 17.6229 10.1908C17.6866 10.0372 17.7193 9.87254 17.7193 9.70628C17.7193 9.54002 17.6866 9.37539 17.6229 9.22179C17.5593 9.06819 17.4661 8.92862 17.3485 8.81106C17.2309 8.69349 17.0914 8.60024 16.9378 8.53661C16.7842 8.47299 16.6195 8.44024 16.4533 8.44024C16.1175 8.44024 15.7955 8.57363 15.558 8.81106C15.3206 9.04848 15.1872 9.37051 15.1872 9.70628C15.1872 10.0421 15.3206 10.3641 15.558 10.6015C15.7955 10.8389 16.1175 10.9723 16.4533 10.9723ZM10.5451 15.1925C10.8808 15.1925 11.2029 15.0591 11.4403 14.8217C11.6777 14.5842 11.8111 14.2622 11.8111 13.9264C11.8111 13.5907 11.6777 13.2686 11.4403 13.0312C11.2029 12.7938 10.8808 12.6604 10.5451 12.6604C10.2093 12.6604 9.88727 12.7938 9.64984 13.0312C9.41241 13.2686 9.27902 13.5907 9.27902 13.9264C9.27902 14.2622 9.41241 14.5842 9.64984 14.8217C9.88727 15.0591 10.2093 15.1925 10.5451 15.1925ZM6.74693 13.0824C6.74693 13.4182 6.61355 13.7402 6.37612 13.9776C6.13869 14.2151 5.81666 14.3484 5.48089 14.3484C5.14511 14.3484 4.82309 14.2151 4.58566 13.9776C4.34823 13.7402 4.21484 13.4182 4.21484 13.0824C4.21484 12.7466 4.34823 12.4246 4.58566 12.1872C4.82309 11.9497 5.14511 11.8164 5.48089 11.8164C5.81666 11.8164 6.13869 11.9497 6.37612 12.1872C6.61355 12.4246 6.74693 12.7466 6.74693 13.0824ZM14.3432 13.5044C14.567 13.5044 14.7817 13.4155 14.94 13.2572C15.0983 13.0989 15.1872 12.8842 15.1872 12.6604C15.1872 12.4365 15.0983 12.2219 14.94 12.0636C14.7817 11.9053 14.567 11.8164 14.3432 11.8164C14.1193 11.8164 13.9047 11.9053 13.7464 12.0636C13.5881 12.2219 13.4992 12.4365 13.4992 12.6604C13.4992 12.8842 13.5881 13.0989 13.7464 13.2572C13.9047 13.4155 14.1193 13.5044 14.3432 13.5044ZM10.9671 10.9723C11.1909 10.9723 11.4056 10.8834 11.5639 10.7251C11.7222 10.5668 11.8111 10.3521 11.8111 10.1283C11.8111 9.90445 11.7222 9.68977 11.5639 9.53148C11.4056 9.37319 11.1909 9.28427 10.9671 9.28427C10.7432 9.28427 10.5285 9.37319 10.3703 9.53148C10.212 9.68977 10.123 9.90445 10.123 10.1283C10.123 10.3521 10.212 10.5668 10.3703 10.7251C10.5285 10.8834 10.7432 10.9723 10.9671 10.9723ZM7.59096 10.1283C7.59096 10.3521 7.50204 10.5668 7.34375 10.7251C7.18546 10.8834 6.97078 10.9723 6.74693 10.9723C6.52308 10.9723 6.3084 10.8834 6.15011 10.7251C5.99183 10.5668 5.9029 10.3521 5.9029 10.1283C5.9029 9.90445 5.99183 9.68977 6.15011 9.53148C6.3084 9.37319 6.52308 9.28427 6.74693 9.28427C6.97078 9.28427 7.18546 9.37319 7.34375 9.53148C7.50204 9.68977 7.59096 9.90445 7.59096 10.1283ZM4.63686 16.8805C4.74878 16.8805 4.85613 16.8361 4.93527 16.7569C5.01441 16.6778 5.05887 16.5704 5.05887 16.4585C5.05887 16.3466 5.01441 16.2393 4.93527 16.1601C4.85613 16.081 4.74878 16.0365 4.63686 16.0365C4.52493 16.0365 4.41759 16.081 4.33845 16.1601C4.25931 16.2393 4.21484 16.3466 4.21484 16.4585C4.21484 16.5704 4.25931 16.6778 4.33845 16.7569C4.41759 16.8361 4.52493 16.8805 4.63686 16.8805ZM10.123 17.7246C10.123 17.9484 10.0341 18.1631 9.87584 18.3214C9.71755 18.4797 9.50287 18.5686 9.27902 18.5686C9.05517 18.5686 8.84049 18.4797 8.6822 18.3214C8.52392 18.1631 8.43499 17.9484 8.43499 17.7246C8.43499 17.5007 8.52392 17.286 8.6822 17.1277C8.84049 16.9695 9.05517 16.8805 9.27902 16.8805C9.50287 16.8805 9.71755 16.9695 9.87584 17.1277C10.0341 17.286 10.123 17.5007 10.123 17.7246ZM13.4992 7.1742C13.4992 7.28612 13.4547 7.39346 13.3756 7.47261C13.2964 7.55175 13.1891 7.59621 13.0772 7.59621C12.9652 7.59621 12.8579 7.55175 12.7787 7.47261C12.6996 7.39346 12.6551 7.28612 12.6551 7.1742C12.6551 7.06227 12.6996 6.95493 12.7787 6.87579C12.8579 6.79664 12.9652 6.75218 13.0772 6.75218C13.1891 6.75218 13.2964 6.79664 13.3756 6.87579C13.4547 6.95493 13.4992 7.06227 13.4992 7.1742Z" fill="url(#paint0_linear_196_15906)"/>
<path d="M11.3891 5.06412C11.501 5.06412 11.6084 5.01966 11.6875 4.94052C11.7666 4.86137 11.8111 4.75403 11.8111 4.64211C11.8111 4.53018 11.7666 4.42284 11.6875 4.3437C11.6084 4.26455 11.501 4.22009 11.3891 4.22009C11.2772 4.22009 11.1698 4.26455 11.0907 4.3437C11.0115 4.42284 10.9671 4.53018 10.9671 4.64211C10.9671 4.75403 11.0115 4.86137 11.0907 4.94052C11.1698 5.01966 11.2772 5.06412 11.3891 5.06412ZM17.7193 6.75218C17.7193 6.97603 17.6304 7.19071 17.4721 7.349C17.3138 7.50729 17.0991 7.59621 16.8753 7.59621C16.6514 7.59621 16.4368 7.50729 16.2785 7.349C16.1202 7.19071 16.0313 6.97603 16.0313 6.75218C16.0313 6.52833 16.1202 6.31365 16.2785 6.15536C16.4368 5.99708 16.6514 5.90815 16.8753 5.90815C17.0991 5.90815 17.3138 5.99708 17.4721 6.15536C17.6304 6.31365 17.7193 6.52833 17.7193 6.75218ZM16.4533 10.9723C16.6195 10.9723 16.7842 10.9396 16.9378 10.876C17.0914 10.8123 17.2309 10.7191 17.3485 10.6015C17.4661 10.4839 17.5593 10.3444 17.6229 10.1908C17.6866 10.0372 17.7193 9.87254 17.7193 9.70628C17.7193 9.54002 17.6866 9.37539 17.6229 9.22179C17.5593 9.06819 17.4661 8.92862 17.3485 8.81106C17.2309 8.69349 17.0914 8.60024 16.9378 8.53661C16.7842 8.47299 16.6195 8.44024 16.4533 8.44024C16.1175 8.44024 15.7955 8.57363 15.558 8.81106C15.3206 9.04848 15.1872 9.37051 15.1872 9.70628C15.1872 10.0421 15.3206 10.3641 15.558 10.6015C15.7955 10.8389 16.1175 10.9723 16.4533 10.9723ZM10.5451 15.1925C10.8808 15.1925 11.2029 15.0591 11.4403 14.8217C11.6777 14.5842 11.8111 14.2622 11.8111 13.9264C11.8111 13.5907 11.6777 13.2686 11.4403 13.0312C11.2029 12.7938 10.8808 12.6604 10.5451 12.6604C10.2093 12.6604 9.88727 12.7938 9.64984 13.0312C9.41241 13.2686 9.27902 13.5907 9.27902 13.9264C9.27902 14.2622 9.41241 14.5842 9.64984 14.8217C9.88727 15.0591 10.2093 15.1925 10.5451 15.1925ZM6.74693 13.0824C6.74693 13.4182 6.61355 13.7402 6.37612 13.9776C6.13869 14.2151 5.81666 14.3484 5.48089 14.3484C5.14511 14.3484 4.82309 14.2151 4.58566 13.9776C4.34823 13.7402 4.21484 13.4182 4.21484 13.0824C4.21484 12.7466 4.34823 12.4246 4.58566 12.1872C4.82309 11.9497 5.14511 11.8164 5.48089 11.8164C5.81666 11.8164 6.13869 11.9497 6.37612 12.1872C6.61355 12.4246 6.74693 12.7466 6.74693 13.0824ZM14.3432 13.5044C14.567 13.5044 14.7817 13.4155 14.94 13.2572C15.0983 13.0989 15.1872 12.8842 15.1872 12.6604C15.1872 12.4365 15.0983 12.2219 14.94 12.0636C14.7817 11.9053 14.567 11.8164 14.3432 11.8164C14.1193 11.8164 13.9047 11.9053 13.7464 12.0636C13.5881 12.2219 13.4992 12.4365 13.4992 12.6604C13.4992 12.8842 13.5881 13.0989 13.7464 13.2572C13.9047 13.4155 14.1193 13.5044 14.3432 13.5044ZM10.9671 10.9723C11.1909 10.9723 11.4056 10.8834 11.5639 10.7251C11.7222 10.5668 11.8111 10.3521 11.8111 10.1283C11.8111 9.90445 11.7222 9.68977 11.5639 9.53148C11.4056 9.37319 11.1909 9.28427 10.9671 9.28427C10.7432 9.28427 10.5285 9.37319 10.3703 9.53148C10.212 9.68977 10.123 9.90445 10.123 10.1283C10.123 10.3521 10.212 10.5668 10.3703 10.7251C10.5285 10.8834 10.7432 10.9723 10.9671 10.9723ZM7.59096 10.1283C7.59096 10.3521 7.50204 10.5668 7.34375 10.7251C7.18546 10.8834 6.97078 10.9723 6.74693 10.9723C6.52308 10.9723 6.3084 10.8834 6.15011 10.7251C5.99183 10.5668 5.9029 10.3521 5.9029 10.1283C5.9029 9.90445 5.99183 9.68977 6.15011 9.53148C6.3084 9.37319 6.52308 9.28427 6.74693 9.28427C6.97078 9.28427 7.18546 9.37319 7.34375 9.53148C7.50204 9.68977 7.59096 9.90445 7.59096 10.1283ZM4.63686 16.8805C4.74878 16.8805 4.85613 16.8361 4.93527 16.7569C5.01441 16.6778 5.05887 16.5704 5.05887 16.4585C5.05887 16.3466 5.01441 16.2393 4.93527 16.1601C4.85613 16.081 4.74878 16.0365 4.63686 16.0365C4.52493 16.0365 4.41759 16.081 4.33845 16.1601C4.25931 16.2393 4.21484 16.3466 4.21484 16.4585C4.21484 16.5704 4.25931 16.6778 4.33845 16.7569C4.41759 16.8361 4.52493 16.8805 4.63686 16.8805ZM10.123 17.7246C10.123 17.9484 10.0341 18.1631 9.87584 18.3214C9.71755 18.4797 9.50287 18.5686 9.27902 18.5686C9.05517 18.5686 8.84049 18.4797 8.6822 18.3214C8.52392 18.1631 8.43499 17.9484 8.43499 17.7246C8.43499 17.5007 8.52392 17.286 8.6822 17.1277C8.84049 16.9695 9.05517 16.8805 9.27902 16.8805C9.50287 16.8805 9.71755 16.9695 9.87584 17.1277C10.0341 17.286 10.123 17.5007 10.123 17.7246ZM13.4992 7.1742C13.4992 7.28612 13.4547 7.39346 13.3756 7.47261C13.2964 7.55175 13.1891 7.59621 13.0772 7.59621C12.9652 7.59621 12.8579 7.55175 12.7787 7.47261C12.6996 7.39346 12.6551 7.28612 12.6551 7.1742C12.6551 7.06227 12.6996 6.95493 12.7787 6.87579C12.8579 6.79664 12.9652 6.75218 13.0772 6.75218C13.1891 6.75218 13.2964 6.79664 13.3756 6.87579C13.4547 6.95493 13.4992 7.06227 13.4992 7.1742Z" fill="black" fill-opacity="0.2"/>
<path d="M13.0352 0.00574799C14.3147 0.0732703 15.4238 0.732457 16.1505 1.49293L20.9176 6.27942C21.7059 7.08125 21.9811 8.1557 21.9397 9.19807L21.9448 12.6375C21.9448 12.927 21.9076 13.2494 21.7658 13.6039C21.6266 13.95 21.4046 14.2842 21.0923 14.6277C20.4821 15.2979 19.449 16.0854 17.7499 17.1455C17.3026 17.424 16.8156 17.9161 16.2855 18.5828C15.7606 19.2412 15.2415 20.0076 14.7089 20.795L14.7005 20.8069C14.2582 21.4618 13.8041 22.132 13.3534 22.7211C12.9044 23.3077 12.4224 23.8622 11.9109 24.2572C11.4358 24.6252 10.455 25.1013 9.35185 25.2633C8.22929 25.4279 6.83242 25.2836 5.73434 24.1872C4.87005 23.3237 3.91714 22.2586 3.08155 21.3158L2.83341 21.0356C2.09066 20.1975 1.47958 19.507 1.1023 19.1424C0.466749 18.528 0.211852 17.6899 0.10044 17.1033C0.0335196 16.7442 -0.000102891 16.3797 2.36514e-07 16.0145V15.9976L0.00422048 13.3988C-0.00058619 13.2638 -0.00058619 13.1287 0.00422048 12.9937V12.9819C0.0379817 12.1125 0.26587 11.336 0.535115 10.7891C1.2154 9.40486 2.45613 8.64861 3.82767 7.85185C5.80439 6.70397 6.57246 5.59829 7.6334 4.07228C8.11913 3.3599 8.62865 2.66402 9.1611 1.98584C10.3292 0.515542 11.7033 -0.0651505 13.0352 0.00574799ZM1.69144 13.376C1.72592 14.2302 2.07177 15.0423 2.66376 15.6591C3.43015 16.4733 4.1721 17.3101 4.88862 18.1684L5.14436 18.4723C5.68538 19.1137 6.14031 19.6531 6.53448 20.0666L6.57161 20.1046L6.60284 20.1477C7.05862 20.7655 7.71105 21.0356 8.40738 21.0904C9.12565 21.147 9.811 20.9638 10.1824 20.7655C10.5234 20.5832 11.0652 20.0683 11.7168 19.1872C12.3465 18.3347 13.0158 17.2256 13.6328 15.9714C14.1864 14.8438 15.1031 13.95 15.9825 13.3127C16.857 12.6797 17.7753 12.2442 18.415 12.0804C19.0734 11.9142 19.7655 11.1604 20.0904 10.0851C20.1816 9.78298 20.2348 9.48589 20.2516 9.20314V8.80644C20.2153 8.25951 20.0322 7.7877 19.7157 7.46444L19.714 7.46359L14.9419 2.67119L14.9351 2.66444C14.4354 2.13945 13.707 1.73094 12.9466 1.69127C12.2334 1.65414 11.3598 1.93182 10.4828 3.03581C10.0264 3.62063 9.58928 4.22021 9.17207 4.8336C8.03263 6.47355 6.997 7.96241 4.67592 9.31202C3.24951 10.1409 2.47301 10.6726 2.05015 11.5335C1.83604 11.9887 1.7144 12.4818 1.69228 12.9844L1.69144 13.376Z" fill="url(#paint1_linear_196_15906)"/>
<path d="M13.0352 0.00574799C14.3147 0.0732703 15.4238 0.732457 16.1505 1.49293L20.9176 6.27942C21.7059 7.08125 21.9811 8.1557 21.9397 9.19807L21.9448 12.6375C21.9448 12.927 21.9076 13.2494 21.7658 13.6039C21.6266 13.95 21.4046 14.2842 21.0923 14.6277C20.4821 15.2979 19.449 16.0854 17.7499 17.1455C17.3026 17.424 16.8156 17.9161 16.2855 18.5828C15.7606 19.2412 15.2415 20.0076 14.7089 20.795L14.7005 20.8069C14.2582 21.4618 13.8041 22.132 13.3534 22.7211C12.9044 23.3077 12.4224 23.8622 11.9109 24.2572C11.4358 24.6252 10.455 25.1013 9.35185 25.2633C8.22929 25.4279 6.83242 25.2836 5.73434 24.1872C4.87005 23.3237 3.91714 22.2586 3.08155 21.3158L2.83341 21.0356C2.09066 20.1975 1.47958 19.507 1.1023 19.1424C0.466749 18.528 0.211852 17.6899 0.10044 17.1033C0.0335196 16.7442 -0.000102891 16.3797 2.36514e-07 16.0145V15.9976L0.00422048 13.3988C-0.00058619 13.2638 -0.00058619 13.1287 0.00422048 12.9937V12.9819C0.0379817 12.1125 0.26587 11.336 0.535115 10.7891C1.2154 9.40486 2.45613 8.64861 3.82767 7.85185C5.80439 6.70397 6.57246 5.59829 7.6334 4.07228C8.11913 3.3599 8.62865 2.66402 9.1611 1.98584C10.3292 0.515542 11.7033 -0.0651505 13.0352 0.00574799ZM1.69144 13.376C1.72592 14.2302 2.07177 15.0423 2.66376 15.6591C3.43015 16.4733 4.1721 17.3101 4.88862 18.1684L5.14436 18.4723C5.68538 19.1137 6.14031 19.6531 6.53448 20.0666L6.57161 20.1046L6.60284 20.1477C7.05862 20.7655 7.71105 21.0356 8.40738 21.0904C9.12565 21.147 9.811 20.9638 10.1824 20.7655C10.5234 20.5832 11.0652 20.0683 11.7168 19.1872C12.3465 18.3347 13.0158 17.2256 13.6328 15.9714C14.1864 14.8438 15.1031 13.95 15.9825 13.3127C16.857 12.6797 17.7753 12.2442 18.415 12.0804C19.0734 11.9142 19.7655 11.1604 20.0904 10.0851C20.1816 9.78298 20.2348 9.48589 20.2516 9.20314V8.80644C20.2153 8.25951 20.0322 7.7877 19.7157 7.46444L19.714 7.46359L14.9419 2.67119L14.9351 2.66444C14.4354 2.13945 13.707 1.73094 12.9466 1.69127C12.2334 1.65414 11.3598 1.93182 10.4828 3.03581C10.0264 3.62063 9.58928 4.22021 9.17207 4.8336C8.03263 6.47355 6.997 7.96241 4.67592 9.31202C3.24951 10.1409 2.47301 10.6726 2.05015 11.5335C1.83604 11.9887 1.7144 12.4818 1.69228 12.9844L1.69144 13.376Z" fill="black" fill-opacity="0.2"/>
<defs>
<linearGradient id="paint0_linear_196_15906" x1="4.21484" y1="11.1769" x2="17.7193" y2="11.1769" gradientUnits="userSpaceOnUse">
<stop stop-color="#1D91DE"/>
<stop offset="1" stop-color="#1D47A9"/>
</linearGradient>
<linearGradient id="paint1_linear_196_15906" x1="-1.61174e-07" y1="12.2765" x2="21.9448" y2="12.2765" gradientUnits="userSpaceOnUse">
<stop stop-color="#1D91DE"/>
<stop offset="1" stop-color="#1D47A9"/>
</linearGradient>
</defs>
</svg>
